<svg id="Laag_1" data-name="Laag 1" xmlns="http://www.w3.org/2000/svg" viewBox="0 0 400 400"><defs><style>.cls-1{fill:#16172c;}.cls-2{fill:#e57897;}.cls-3{fill:#001c56;}.cls-4{fill:#fff;}</style></defs><path class="cls-1" d="M172.4,116.19l.09-.06a.26.26,0,0,0,.12-.12.15.15,0,0,0,0-.17.16.16,0,0,0-.16,0l-.08,0-.07.05-.08.07a.17.17,0,0,0,0,.21.17.17,0,0,0,.21,0Z"/><path class="cls-2" d="M68.46,271.77s53-118,96-150c0,0,21-20,46-5,0,0,9,2,20-7s32,9,43,44-6,83-6,83,63,6,44,66-102,30-102,30S101,254.27,68.46,271.77Z"/><path class="cls-3" d="M68,271.27s90-110,134-107,49,51,49,51,4,36-20,44-35,7-35,7-26,1-46-9S82,249.27,68,271.27Z"/><path class="cls-4" d="M156,184.33l13,19.94,36-2-14-36.75S171.93,172.38,156,184.33Z"/><path class="cls-4" d="M199.83,164.22,213,199.27l28.43-11.08S223.69,163.16,199.83,164.22Z"/></svg>