<svg viewBox="0 0 400 400" xmlns="http://www.w3.org/2000/svg" xmlns:xlink="http://www.w3.org/1999/xlink"><clipPath id="a"><circle cx="619.72" cy="203.91" r="169.59"/></clipPath><path d="m257.75 229 69.86 28.81-13.08-54 68.89-22.4-55-38.14 31.6-82-71.67 34.5-37.25-59.54-59.56 37.28-67.07-40.92-28.82 69.85-78.21 7.5 64.28 53-55.81 76.43 78.21-7.51 13.07 54 83.81-31.71s7.5 78.21 101.57 112.6c-.03 0-68.07-92.14-44.82-137.75z" fill="#ead6b6"/><text fill="#001d56" font-family="Bangers-Regular, Bangers" font-size="36" transform="translate(114.17 134.94)">LET’S CRE<tspan letter-spacing="-.04em" x="109.11" y="0">A</tspan><tspan letter-spacing="0em" x="123.37" y="0">TE </tspan><tspan x="40.57" y="43.2">S</tspan><tspan letter-spacing="-.01em" x="56.05" y="43.2">O</tspan><tspan x="73.55" y="43.2">ME </tspan><tspan x="6.84" y="86.4">HAPPINESS!</tspan></text><g clip-path="url(#a)"><image height="3000" transform="matrix(.11 0 0 .11 393.23 33.9)" width="4000" xlink:href="../../../STUDIO%20NEANKE/Website/Mockups/jcolemockup.jpg"/></g></svg>