<svg id="Laag_1" data-name="Laag 1" xmlns="http://www.w3.org/2000/svg" viewBox="0 0 400 400"><defs><style>.cls-1{fill:#e57897;}.cls-2{fill:#001d56;}.cls-3{fill:#fff;}</style></defs><path class="cls-1" d="M311.61,246.6s-53-118-96-150c0,0-21-20-46-5,0,0-9,2-20-7s-32,9-43,44,6,83,6,83-63,6-44,66,102,30,102,30S279.11,229.1,311.61,246.6Z"/><path class="cls-2" d="M312.11,246.1s-90-110-134-107-49,51-49,51-4,36,20,44,35,7,35,7,26,1,46-9S298.11,224.1,312.11,246.1Z"/><path class="cls-3" d="M224.12,159.15l-13,19.95-36-2,14-36.76S208.14,147.21,224.12,159.15Z"/><path class="cls-3" d="M180.24,139,167.11,174.1,138.68,163S156.38,138,180.24,139Z"/></svg>