<svg id="Laag_1" data-name="Laag 1" xmlns="http://www.w3.org/2000/svg" viewBox="0 0 400 400"><defs><style>.cls-1{fill:#e57897;}.cls-2{fill:#001d56;stroke:#001d56;stroke-miterlimit:10;}.cls-3{fill:#ead6b6;}.cls-4{fill:#001c57;}</style></defs><polygon class="cls-1" points="124.42 272.87 194.74 211.7 244.56 291.92 266.96 275.42 204.3 205.59 206.63 202.57 284.82 155.65 268.32 133.25 199.77 194.98 196.35 194.32 149.55 114.42 126.11 130.68 187.94 200.22 187.14 203.57 107.01 251.13 124.42 272.87"/><circle class="cls-2" cx="196.6" cy="203.1" r="10.2"/><circle class="cls-3" cx="196.58" cy="203.09" r="4.32"/><path class="cls-4" d="M208.26,226.94c1-.88,2-1.73,3-2.54a34.28,34.28,0,0,0,3.12-2.34c.65-.64-.17-1.58-.93-1.21a15.26,15.26,0,0,0-3.07,2.37c-1,.91-2,1.86-3,2.84a.62.62,0,0,0,.87.88Z"/><path class="cls-4" d="M212.15,233.69c.61,0,.78-.15,1.27-.52.68-.51,1.39-1,2.08-1.47,1.3-1,2.61-1.91,3.95-2.81,1-.65,0-2.21-.89-1.54-1.37,1-2.72,2-4,3.12-.89.76-2.49,1.79-2.59,3a.2.2,0,0,0,.19.2Z"/><path class="cls-4" d="M217.3,240.65c2.38-1.89,4.8-3.72,7.29-5.46,1-.7,0-2.37-1-1.65a61.09,61.09,0,0,0-7.26,6.18c-.61.61.28,1.44.93.93Z"/><path class="cls-4" d="M221.81,247.86a24.11,24.11,0,0,0,4.55-3.11,40.79,40.79,0,0,0,4.06-3.23c.74-.75-.24-2.12-1.16-1.5a41.7,41.7,0,0,0-4.19,3.56,22.41,22.41,0,0,0-3.77,3.77c-.24.34.2.64.51.51Z"/><path class="cls-4" d="M226.52,254.5c.14-.5,1.3-1.25,1.71-1.6.92-.8,1.88-1.55,2.86-2.29,1.48-1.1,3.39-2,4.62-3.34a.86.86,0,0,0-.83-1.42c-2.07.63-4,2.57-5.61,4-1,.86-1.89,1.76-2.79,2.68-.46.48-1.09.95-1.24,1.62a.67.67,0,0,0,1.28.36Z"/><path class="cls-4" d="M232.28,260.47a1.39,1.39,0,0,0-1.79.08l.86,1.12c3.31-2.7,6.72-5.25,10-7.94,1-.8-.44-2.25-1.42-1.42-3.24,2.75-6.37,5.62-9.62,8.36-.61.51.2,1.58.86,1.11a4.54,4.54,0,0,0,1.12-1.11.15.15,0,0,0-.05-.2Z"/><path class="cls-4" d="M235.2,268.62a46.63,46.63,0,0,0,6.18-4.41c1.87-1.43,3.8-2.79,5.65-4.24.82-.64-.26-2-1.13-1.45-3.89,2.58-8.39,5.87-11.06,9.75-.16.22.15.47.36.35Z"/><path class="cls-4" d="M239.53,275.45a2.29,2.29,0,0,0,1.84-.83c1.32-1.09,2.67-2.12,4-3.15,2.37-1.79,4.81-3.46,7.3-5.07,1.09-.69.09-2.42-1-1.73a78.26,78.26,0,0,0-7.06,5.07c-1.66,1.34-4.92,3.31-5.25,5.51a.15.15,0,0,0,.15.2Z"/><path class="cls-4" d="M244.44,282.72c4.23-3.52,8.94-6.55,13.35-9.83,1-.78,0-2.55-1-1.76-4.46,3.34-9.49,6.51-13.31,10.59a.7.7,0,0,0,1,1Z"/><path class="cls-4" d="M207.82,191.83c.05.77.75,1.11,1.25,1.61a12.75,12.75,0,0,1,1.34,1.69.87.87,0,0,0,1.51-.88,7,7,0,0,0-1.29-1.59q-.34-.32-.72-.6l-.44-.33-.15-.1c-.18-.14-.2-.13-.08,0-.22-.75-1.47-.65-1.42.19Z"/><path class="cls-4" d="M214.61,186.61a20.67,20.67,0,0,0,3.07,4.08c.84.87,2.2-.49,1.32-1.33a18.9,18.9,0,0,1-2.93-3.61.85.85,0,0,0-1.46.86Z"/><path class="cls-4" d="M220.56,181.46c1,1.82,2.93,3.09,3.7,5a1,1,0,1,0,1.91-.81c-.92-2.07-2.93-3.23-4.13-5.08a.86.86,0,0,0-1.48.86Z"/><path class="cls-4" d="M227.21,175.7a19.74,19.74,0,0,1,4,5.28c.67,1.3,2.75.1,2-1.16a21.69,21.69,0,0,0-4.69-5.37c-.86-.7-2.09.45-1.25,1.25Z"/><path class="cls-4" d="M233,169.91c1.64,2.58,3.89,4.71,5.53,7.3.66,1,2.44.39,2-.86a9.67,9.67,0,0,0-2.35-3.55,42.23,42.23,0,0,0-3.85-4c-.71-.6-1.93.17-1.37,1.06Z"/><path class="cls-4" d="M239.08,164.13c2.11,3.17,4,6.92,6.78,9.61,1.1,1.08,2.8-.62,1.69-1.7a36.16,36.16,0,0,1-3.39-4.37q-1.69-2.26-3.4-4.52c-.73-1-2.39-.09-1.68,1Z"/><path class="cls-4" d="M246,158.58a65.45,65.45,0,0,0,7.46,10.72c1,1.18,2.73-.53,1.7-1.7-2.78-3.13-5.25-6.49-7.8-9.82a.79.79,0,0,0-1.36.8Z"/><path class="cls-4" d="M253.08,152.54l-.06-.1a.57.57,0,0,0-.63-.25l-.07,0a.78.78,0,0,0-.53.94,5.79,5.79,0,0,0,1.36,2.12c.84,1.12,1.69,2.24,2.5,3.38s1.44,2.07,2.12,3.14c.31.47.6,1,.89,1.43s.44.72.65,1.09.28.48.14-.09l1.79-.72-.17-.08.44,1.65.06-.11c.77-1.38-1.18-2.43-2.08-1.21l-.07.1a1.22,1.22,0,0,0,.43,1.65l.16.1a1.23,1.23,0,0,0,1.79-.73c.33-.84-.15-1.47-.57-2.18a50.9,50.9,0,0,0-3.07-4.54c-1.42-1.89-3.19-4.83-5.34-5.91l.12.89.07-.07a.43.43,0,0,0,.07-.52Z"/><path class="cls-4" d="M258.14,146.84c.22,2.16,1.84,3.92,3.22,5.47,2.38,2.71,4.83,5.36,7.28,8,1.05,1.14,2.75-.57,1.7-1.7-1.9-2-3.79-4.09-5.72-6.09-1.52-1.58-4.25-3.67-4.68-5.93-.19-1-1.91-.79-1.8.24Z"/><path class="cls-4" d="M265.78,141.26l-.19-.21c-.65-.72-1.65.2-1.27,1a45.41,45.41,0,0,0,4.75,7.35c.72,1,1.46,1.9,2.21,2.84s2.78,2.7,2.89,3.8a1.15,1.15,0,0,0,2.29,0c.09-1.32-.6-2-1.41-2.94-1.37-1.66-2.69-3.34-4-5-1.75-2.25-3.37-4.69-5.27-6.79Z"/><path class="cls-4" d="M185.05,191.36a21.91,21.91,0,0,0,3.35-2.15,1,1,0,0,0,.43-1.06.71.71,0,0,0-.43-.56,1,1,0,0,0-1,0,23.24,23.24,0,0,0-3.27,2.65.72.72,0,0,0,.87,1.12Z"/><path class="cls-4" d="M179.64,185c.08-.27,1.05-.73,1.29-.89l1.19-.83c.85-.6,1.72-1.18,2.55-1.81s.05-2.32-.95-1.62-2.12,1.61-3.16,2.43c-.78.61-2.15,1.29-2.41,2.31a.77.77,0,0,0,1.49.41Z"/><path class="cls-4" d="M174,179.12l6.56-5.26c.85-.68-.38-2-1.22-1.22L173,178.12c-.69.6.3,1.55,1,1Z"/><path class="cls-4" d="M167.84,171.79l0-.08-.23.87c1.68-.94,3.34-1.84,5-2.87a18.1,18.1,0,0,0,3.92-2.82c.73-.81-.22-2.27-1.22-1.59-2.89,2-5.68,4.13-8.43,6.28-1.14.89,1.6,1.66,1.06.28a.19.19,0,0,0,0-.07Z"/><path class="cls-4" d="M163.37,166c.35.39,7.72-5,8.44-5.55,1-.7,0-2.32-.93-1.6-2.16,1.62-4.25,3.33-6.31,5.08-.45.38-2.81,1.8-1.6,2.6.33.22.65-.26.4-.53Z"/><path class="cls-4" d="M157.25,160.24a40.88,40.88,0,0,0,6.64-4.17c1.16-.9,3.88-2.37,3.55-4.11a.89.89,0,0,0-.86-.66h-.12c-1,0-1.25,1.61-.24,1.74l.12,0-.66-.87c0,.22-1.53,1.38-1.75,1.58-.8.72-1.62,1.4-2.47,2a49.05,49.05,0,0,1-4.87,3.31.65.65,0,0,0,.66,1.11Z"/><path class="cls-4" d="M152,153.83c3.93-2.5,7.39-5.42,11.61-7.49,1.29-.64.15-2.63-1.14-1.94-4.06,2.16-8.49,4.9-11.21,8.68-.33.45.3,1,.74.75Z"/><path class="cls-4" d="M145.88,147.3c2,.77,4.59-2.2,6.16-3.31,2.48-1.77,5.08-3.45,7.43-5.4.95-.79-.28-2.37-1.32-1.71-2.76,1.78-5.33,3.92-8,5.9-1.44,1.08-4.53,2.34-4.41,4.4a.14.14,0,0,0,.1.12Z"/><path class="cls-4" d="M140,141.29A33.93,33.93,0,0,0,148,137c2.29-1.61,5.14-3.25,6.93-5.41a.89.89,0,0,0-1.07-1.38c-2.43,1.11-4.46,3.28-6.56,4.9-2.48,1.91-5.15,3.5-7.78,5.19-.5.32-.19,1.23.43,1Z"/><path class="cls-4" d="M135.41,135.18c2.15.33,4.3-2.56,5.87-3.78,2.83-2.18,5.81-4.1,8.81-6,1.26-.81.12-2.8-1.18-2a72.09,72.09,0,0,0-8.26,5.85c-1.62,1.3-5.51,3.57-5.31,5.88a.11.11,0,0,0,.07.1Z"/><path class="cls-4" d="M180.19,212.19a14.12,14.12,0,0,1,2.43,1.93c.32.33.63.67.92,1a8.29,8.29,0,0,0,1,1.33c.77.61,2.16.07,1.8-1a7.2,7.2,0,0,0-2.26-2.8,14.92,14.92,0,0,0-3-2.1,1,1,0,0,0-1,1.66Z"/><path class="cls-4" d="M173.85,216.43a9.51,9.51,0,0,1,2.62,1.72,15.64,15.64,0,0,1,1.88,2.49c.63.9,2.4.37,1.92-.81a9.86,9.86,0,0,0-5.71-5.09c-1-.38-1.67,1.26-.71,1.69Z"/><path class="cls-4" d="M166.66,221.07q1.46,1.6,2.89,3.23c.84.93,1.66,2.27,2.9,2.62a1,1,0,0,0,1.16-1.17c-.23-1.24-1.57-2.21-2.41-3.1q-1.47-1.59-3-3.16c-1-1-2.54.52-1.58,1.58Z"/><path class="cls-4" d="M159.5,224.31a29.35,29.35,0,0,1,5.26,7.33c.69,1.38,2.76.16,2.07-1.21a20.76,20.76,0,0,0-6.29-7.47c-.81-.6-1.7.67-1,1.35Z"/><path class="cls-4" d="M152.81,229.33a13.56,13.56,0,0,1,5.77,7.51,1.21,1.21,0,0,0,2,.53l.43-.49c1-1.13-.59-2.76-1.67-1.67l-.46.46,2,.53a12.92,12.92,0,0,0-7.39-8.51c-1-.4-1.48,1.1-.69,1.64Z"/><path class="cls-4" d="M145.43,233c.36.78.95,1.42,1.35,2.19.52,1,.89,2,1.39,3a18.4,18.4,0,0,0,3.79,5c1.11,1,2.78-.61,1.68-1.69a18.62,18.62,0,0,1-3.79-5.1,24.28,24.28,0,0,0-2.93-4.27.86.86,0,0,0-1.49.87Z"/><path class="cls-4" d="M137.63,237.63a18.14,18.14,0,0,1,3.61,5.55,22.35,22.35,0,0,0,4,5.45c1.08,1.1,2.78-.6,1.69-1.7a29.27,29.27,0,0,1-4.46-6.25c-1-1.68-2.06-3.5-3.9-4.3-.77-.34-1.68.58-1,1.25Z"/><path class="cls-4" d="M131,241.72c3,3.9,5.59,8.09,8.61,12,.81,1,2.45-.3,1.8-1.39-2.49-4.19-5.84-8-9-11.66-.66-.76-2,.28-1.41,1.09Z"/><path class="cls-4" d="M124.2,245.72c-.74,2.06,2,4.75,3.06,6.34,1.74,2.52,3.62,4.94,5.54,7.33a1.22,1.22,0,0,0,1.45.19l.47-.21a1.18,1.18,0,0,0,.58-1V258a.85.85,0,0,0-1.06-.81,3.47,3.47,0,0,0-.91.23l1.17.31c-2.09-2.6-4.1-5.25-6.11-7.9-1-1.38-2.27-4-4.15-4.11,0,0,0,0,0,0Z"/><path class="cls-4" d="M117.68,251.14a82,82,0,0,1,5.87,8.91c1.12,2,1.93,5.19,4.79,4.81a1.22,1.22,0,1,0-.32-2.41c-1,.13-3.84-6.07-4.4-6.94a51.18,51.18,0,0,0-4.26-5.67c-.78-.9-2.4.31-1.68,1.3Z"/></svg>