<svg viewBox="0 0 400 400" xmlns="http://www.w3.org/2000/svg"><path d="m172.4 116.19.09-.06a.26.26 0 0 0 .12-.12.15.15 0 0 0 0-.17.16.16 0 0 0 -.16 0h-.08l-.07.05-.08.07a.17.17 0 0 0 0 .21.17.17 0 0 0 .21 0z" fill="#16172c"/><path d="m68.46 271.77s53-118 96-150c0 0 21-20 46-5 0 0 9 2 20-7s32 9 43 44-6 83-6 83 63 6 44 66-102 30-102 30-108.46-78.5-141-61z" fill="#e57897"/><path d="m68 271.27s90-110 134-107 49 51 49 51 4 36-20 44-35 7-35 7-26 1-46-9-68-8-82 14z" fill="#001c56"/><g fill="#fff"><path d="m156 184.33 13 19.94 36-2-14-36.75s-19.07 6.86-35 18.81z"/><path d="m199.83 164.22 13.17 35.05 28.43-11.08s-17.74-25.03-41.6-23.97z"/></g></svg>