<svg id="Laag_1" data-name="Laag 1" xmlns="http://www.w3.org/2000/svg" xmlns:xlink="http://www.w3.org/1999/xlink" viewBox="0 0 400 400"><defs><style>.cls-1{fill:none;}.cls-2{clip-path:url(#clip-path);}.cls-3{fill:#6e1b57;}</style><clipPath id="clip-path"><rect class="cls-1" x="0.97" y="126.95" width="398.79" height="145.13"/></clipPath></defs><g class="cls-2"><path class="cls-3" d="M1.58,178.28C26.36,160,70.33,133.52,124.75,130.41a252.47,252.47,0,0,1,42.69,1.53c36.87,4.83,42.27,14.83,82.32,23.47,35.55,7.68,38.15,1.27,66.46,10.68,20.55,6.82,10.67,7.37,52.14,26.22,5.12,2.32,14.08,6.32,13.72,10.67-.34,4.05-8.51,5.17-21,11.89-12.18,6.53-13,10-19.21,13.11-18.66,9.22-32.18-12.45-65.24-14.64-27.19-1.8-31.11,12-55.8,6.41-19.71-4.46-28.41-15.77-36.59-11-8.94,5.24-2.41,21-12.8,35.67-8.56,12.05-21.87,6.62-29,16.77-4.25,6.07-5.94,16.23.91,34.15H1.58Z"/></g></svg>