<svg id="Laag_1" data-name="Laag 1" xmlns="http://www.w3.org/2000/svg" viewBox="0 0 400 400"><defs><style>.cls-1{fill:#e9c1b9;stroke:#dba6a6;stroke-miterlimit:10;}.cls-2{fill:#a9d2cb;opacity:0.9;}.cls-3{fill:#001d56;}</style></defs><path class="cls-1" d="M210.53,90.24l-47.28-53.8s-8.19-6.51-15.27-.74S92.71,71.86,92.71,71.86s-13.77,1.51-15.95,7.22c0,0,4.43,6.75,14.35,7s23.75,0,30.27-3.65c0,0,17.49-1.3,20.88-3.91s1.39-9.92,1.39-9.92,4.61,18.21,14.27,21.63c0,0,5,27.69.78,42.05L142,144s-11.75.52-12.79,0-26.62-26.1-28.19-26.1c0,0-9.65-30-27.92-36.53,0,0,2.61,9.13,2.35,15.39l-10.18,7s3.39,25.32,2.35,31.06c0,0,21.92,26.62,31.32,31S132.08,209,132.08,209s11.74,22.45,25.58,32.1,24.53,42.28,24.53,42.28,8.61,36.8,9.13,43.06,7.05,68.36,7.05,68.36H289S270.4,307.69,274.9,286.33a217,217,0,0,0-8.3-22.47c-5.49-12.8-9.51-12.8-11.34-39.5,0,0,.91-27.62-2.68-45.55,0,0-5.27-30.32-1.64-61.92,0,0,10-24-23.22-30.88,0,0-42.28-30.88-41.61-24.2"/><path class="cls-2" d="M75.46,82.41s7.68,2.69,11.67,3.19,28.69,2.31,28.92,3.94-.1,3.88-1,4.19-14.32,10.36-2,18.44c0,0-.46,9-7.32,7L101,117.93S92.71,90.71,75.46,82.41Z"/><path class="cls-3" d="M115,93.73s-14.79,10.18-2,18.44l226.52,49.71s28.89-6.34,3.88-22.2Z"/><path class="cls-2" d="M59.75,80.72a20.68,20.68,0,0,1-4.26,0c-.41-.1-1.74,1.77-2.92,4.54-2.33,5.45-4.09,14.38,2.92,18.58,0,0,7.11,4.12,10.42,5.07a57.55,57.55,0,0,0-2-8C63,98.76,57.82,88.09,59.75,80.72Z"/><path class="cls-3" d="M52.57,85.26A90.45,90.45,0,0,1,41.7,88.2s7.49,6,8.94,8.15"/><path class="cls-2" d="M293.59,151.79,309,155.16s-1.94-14.71,4.61-21.49l-12.85-2.59S290.52,133.84,293.59,151.79Z"/></svg>