<svg id="Laag_1" data-name="Laag 1" xmlns="http://www.w3.org/2000/svg" xmlns:xlink="http://www.w3.org/1999/xlink" viewBox="0 0 400 400"><defs><style>.cls-1{fill:#fff;}.cls-2{mask:url(#mask);}.cls-3{fill:#f9ba8a;}.cls-4{filter:url(#luminosity-invert-noclip);}</style><filter id="luminosity-invert-noclip" x="-173.93" y="86.24" width="692.41" height="322.83" filterUnits="userSpaceOnUse" color-interpolation-filters="sRGB"><feColorMatrix values="-1 0 0 0 1 0 -1 0 0 1 0 0 -1 0 1 0 0 0 1 0" result="invert"/><feFlood flood-color="#fff" result="bg"/><feBlend in="invert" in2="bg"/></filter><mask id="mask" x="-173.93" y="86.24" width="692.41" height="322.83" maskUnits="userSpaceOnUse"><g class="cls-4"><path class="cls-1" d="M-6.88,156.21a41.61,41.61,0,0,1,11.22-2.06"/><path class="cls-1" d="M16.62,361.82l2.78.06a1,1,0,0,0,.34,0,1,1,0,0,0,.33-.26,8.86,8.86,0,0,0,1.84-2.6,5.81,5.81,0,0,0,.54,1.9l.5,1.23a1.23,1.23,0,0,0,.21.37.94.94,0,0,0,.37.25,11.86,11.86,0,0,0,2.95.83l-2.67,1.77a1.27,1.27,0,0,0-.38.35,1.2,1.2,0,0,0-.09.5l-.05,3.57a.74.74,0,0,0-.08-.69,2.47,2.47,0,0,0-.5-.52l-2.05-1.67c-1.25.45-2.49.95-3.7,1.51a19.57,19.57,0,0,0,1.4-3.38.69.69,0,0,0,0-.25.72.72,0,0,0-.15-.27A14.6,14.6,0,0,1,16.67,362s-.05-.09-.1-.08,0,.1,0,.06Z"/><path class="cls-1" d="M48.36,324.43l1.55-.95a.58.58,0,0,0,.17-.14.48.48,0,0,0,.09-.26,5.57,5.57,0,0,0,.1-2.07,3.91,3.91,0,0,0,1,.85l.71.5a.8.8,0,0,0,.24.13.76.76,0,0,0,.3,0,8.59,8.59,0,0,0,1.91-.58l-.84,1.91a.62.62,0,0,0-.09.32.76.76,0,0,0,.13.31l1.22,2a.49.49,0,0,0-.28-.36,1.9,1.9,0,0,0-.46-.1l-1.71-.2c-.54.69-1,1.4-1.51,2.13a11.83,11.83,0,0,0-.42-2.35.39.39,0,0,0-.06-.15.38.38,0,0,0-.18-.09,10,10,0,0,1-1.75-.83s-.06,0-.09,0,0,.06,0,0Z"/><path class="cls-1" d="M13.26,305.38l1.81,0a.82.82,0,0,0,.22,0,.76.76,0,0,0,.22-.18,5.69,5.69,0,0,0,1.19-1.69,3.9,3.9,0,0,0,.35,1.24l.33.8a1,1,0,0,0,.14.24.56.56,0,0,0,.24.16,7.52,7.52,0,0,0,1.92.54L18,307.67a.62.62,0,0,0-.25.23.7.7,0,0,0-.06.32l0,2.33a.51.51,0,0,0-.05-.45,1.77,1.77,0,0,0-.33-.34l-1.34-1.08a23.85,23.85,0,0,0-2.41,1,13.6,13.6,0,0,0,.91-2.2.33.33,0,0,0,0-.17.4.4,0,0,0-.09-.17,9.61,9.61,0,0,1-1-1.64s0-.07-.07-.06,0,.07,0,0Z"/><path class="cls-1" d="M19.69,324.16a3.83,3.83,0,0,0-4.79,3.9,2,2,0,0,0,.41,1.22,2.63,2.63,0,0,0,.87.59,4.65,4.65,0,0,0,3.12.72c1.48-.38,2.19-2.14,2.12-3.66a2.75,2.75,0,0,0-1.67-2.66"/><path class="cls-1" d="M44.05,303.61c-.09.16.25.27.31.11s-.15-.35-.32-.3a.49.49,0,0,0-.33.4.65.65,0,0,0,.32.76.46.46,0,1,0-.26-.56.47.47,0,0,0,.68.5.53.53,0,0,0-.17-.88.71.71,0,0,0-.83.54.61.61,0,0,0,.22.61.4.4,0,0,0,.58-.16c.07-.21-.19-.47-.39-.36a.27.27,0,0,0,.08.47"/><path class="cls-1" d="M29,344.94l-.12.58a.57.57,0,0,0,.48-.94c-.36-.31-1,.17-.86.61a.48.48,0,0,0,.79.16c.19-.26-.15-.71-.43-.55a.64.64,0,0,0,.07.47.48.48,0,0,0,.45-.06c0-.37-.66-.44-.74-.08a.57.57,0,0,0,.4.32"/><path class="cls-1" d="M.51,352.74c-.09-.23-.51-.15-.55.1s.25.46.49.4a.54.54,0,0,0,.35-.6.65.65,0,0,0-.88-.49.58.58,0,0,0,0,1,.52.52,0,0,0,.73-.55.45.45,0,0,0-.63.06.45.45,0,0,0,.11.63A.27.27,0,0,0,0,352.8"/><path class="cls-1" d="M.19,376.56a.68.68,0,0,0-.28-.84c-.13.1.06.34.19.24-.28.07-.29.53,0,.67a.5.5,0,0,0,.66-.35.71.71,0,0,0-.36-.72.89.89,0,0,0-.36.52c0,.22.23.45.4.32"/><path class="cls-1" d="M36.36,358.49l5.11-1.9"/><path class="cls-1" d="M56,337a44.57,44.57,0,0,1,6-1.8"/><path class="cls-1" d="M60.2,310.62A27.46,27.46,0,0,0,63.9,315"/><path class="cls-1" d="M19.31,284.38q1.79,4.2,3.74,8.33"/><path class="cls-1" d="M-5.12,327A28.26,28.26,0,0,1,5.52,340.68"/><path class="cls-1" d="M-9.37,303.81a70.39,70.39,0,0,1,14.14-4.67"/><path class="cls-1" d="M45.11,293.59a25.31,25.31,0,0,1,15,9.66"/><path class="cls-1" d="M30.07,311.93c3.36,4.64,3,11,5.38,16.23"/><path class="cls-1" d="M19.44,379.4a1.35,1.35,0,0,0-.52-1.12,43.44,43.44,0,0,0,10.89,1.35"/><path class="cls-1" d="M34,369.1a121.69,121.69,0,0,1,16.55,5.52"/><path class="cls-1" d="M57.67,292.78a54.07,54.07,0,0,1,14.58-2.68"/><path class="cls-1" d="M50.71,184.59l2.5-.85a.78.78,0,0,0,.29-.14.89.89,0,0,0,.21-.35,8.1,8.1,0,0,0,.8-2.91,5.89,5.89,0,0,0,1.1,1.53l.85.93a1.29,1.29,0,0,0,.3.27,1,1,0,0,0,.41.1,11.78,11.78,0,0,0,2.9-.21l-1.8,2.44a1,1,0,0,0-.23.44,1.09,1.09,0,0,0,.08.47l1.11,3.21a.73.73,0,0,0-.29-.6,2.19,2.19,0,0,0-.62-.29L56,187.8c-1,.8-1.92,1.65-2.82,2.54a19.17,19.17,0,0,0,.16-3.47.64.64,0,0,0,0-.24.59.59,0,0,0-.22-.19,14.3,14.3,0,0,1-2.22-1.74s-.08-.07-.12,0,0,.09,0,.05Z"/><path class="cls-1" d="M103.36,234,106,234a1.16,1.16,0,0,0,.32,0,1,1,0,0,0,.32-.26,8.23,8.23,0,0,0,1.74-2.46,5.52,5.52,0,0,0,.51,1.8l.48,1.17a1.27,1.27,0,0,0,.2.36,1.07,1.07,0,0,0,.35.23,11.78,11.78,0,0,0,2.8.79l-2.53,1.68a1,1,0,0,0-.36.33,1.14,1.14,0,0,0-.09.48l0,3.39a.71.71,0,0,0-.07-.66,2.23,2.23,0,0,0-.48-.49l-1.94-1.58c-1.2.42-2.37.89-3.52,1.42A18.63,18.63,0,0,0,105,237a.66.66,0,0,0,0-.24.53.53,0,0,0-.13-.26,13.15,13.15,0,0,1-1.5-2.39s-.06-.09-.1-.08,0,.1,0,.06Z"/><path class="cls-1" d="M133.51,198.45l1.47-.89a.7.7,0,0,0,.16-.13.62.62,0,0,0,.09-.26,5.45,5.45,0,0,0,.09-2,3.74,3.74,0,0,0,.91.82l.68.47a.86.86,0,0,0,.23.13.88.88,0,0,0,.28,0,7.72,7.72,0,0,0,1.81-.55l-.8,1.81a.71.71,0,0,0-.08.31.74.74,0,0,0,.12.29l1.17,1.88a.45.45,0,0,0-.27-.33,1.34,1.34,0,0,0-.44-.1l-1.62-.19c-.51.65-1,1.33-1.44,2a12.11,12.11,0,0,0-.39-2.23.37.37,0,0,0-.07-.14.32.32,0,0,0-.16-.09,9.44,9.44,0,0,1-1.67-.79.06.06,0,0,0-.08,0s0,.06,0,0Z"/><path class="cls-1" d="M72.92,207.65l1.72,0a.75.75,0,0,0,.21,0,.68.68,0,0,0,.21-.17,5.49,5.49,0,0,0,1.14-1.61,3.53,3.53,0,0,0,.33,1.18l.31.76a.86.86,0,0,0,.13.23.7.7,0,0,0,.23.15,7.54,7.54,0,0,0,1.83.52l-1.65,1.09a.73.73,0,0,0-.24.22.67.67,0,0,0,0,.31l0,2.21a.51.51,0,0,0,0-.43,1.35,1.35,0,0,0-.32-.31l-1.26-1c-.78.28-1.55.59-2.3.93a12.79,12.79,0,0,0,.87-2.09.39.39,0,0,0,0-.15.35.35,0,0,0-.09-.17,8.7,8.7,0,0,1-1-1.56s0-.06-.06-.05,0,.06,0,0Z"/><path class="cls-1" d="M100.16,180.36l1.72,0a.75.75,0,0,0,.21,0,.56.56,0,0,0,.21-.17,5.49,5.49,0,0,0,1.14-1.61,3.53,3.53,0,0,0,.33,1.18l.31.76a.86.86,0,0,0,.13.23.73.73,0,0,0,.23.16,7.52,7.52,0,0,0,1.83.51l-1.65,1.09a.73.73,0,0,0-.24.22.67.67,0,0,0,0,.31l0,2.21a.51.51,0,0,0,0-.43,1.35,1.35,0,0,0-.32-.31l-1.26-1c-.78.28-1.55.59-2.3.93a12.43,12.43,0,0,0,.87-2.09.39.39,0,0,0,0-.15.35.35,0,0,0-.09-.17,8.7,8.7,0,0,1-1-1.56s0-.06-.06,0,0,.06,0,0Z"/><path class="cls-1" d="M106.28,198.2a3.65,3.65,0,0,0-4.56,3.71,1.93,1.93,0,0,0,.39,1.16,2.64,2.64,0,0,0,.83.56,4.41,4.41,0,0,0,3,.68c1.41-.36,2.09-2,2-3.48a2.58,2.58,0,0,0-1.58-2.52"/><path class="cls-1" d="M84.43,190.1l-.49.05a.34.34,0,0,0,.48.25.4.4,0,1,0-.45.48c.32-.25.65-.71.36-1s-.66,0-.76.29a1.39,1.39,0,0,0,.16.95.71.71,0,0,0,.81-.54.43.43,0,0,0-.64-.22c-.19.17,0,.59.27.46"/><path class="cls-1" d="M129.41,178.68c-.08.15.24.26.3.1s-.14-.33-.31-.28a.47.47,0,0,0-.31.38.62.62,0,0,0,.3.72A.46.46,0,0,0,130,179a.45.45,0,0,0-.8.06.45.45,0,0,0,.64.48.5.5,0,0,0-.16-.84.65.65,0,0,0-.78.51.55.55,0,0,0,.21.58.37.37,0,0,0,.54-.15c.07-.21-.18-.45-.37-.34a.25.25,0,0,0,.08.44"/><path class="cls-1" d="M115.13,217.94l-.12.55a.54.54,0,0,0,.46-.89c-.35-.3-1,.16-.82.58a.46.46,0,0,0,.75.15c.19-.25-.14-.68-.4-.52a.59.59,0,0,0,.06.45.47.47,0,0,0,.43-.07c0-.34-.63-.41-.71-.07a.55.55,0,0,0,.38.3"/><path class="cls-1" d="M52.06,213.14a.33.33,0,0,0-.46,0c-.05.35,0,.88.39.84s.29-.65-.05-.79a.55.55,0,0,0-.65.19.4.4,0,0,0,.21.59c.24.05.48-.27.33-.47l0,.47"/><path class="cls-1" d="M88.06,225.35a.29.29,0,0,0-.53.09.37.37,0,0,0,.47.38.52.52,0,0,0,.33-.57.61.61,0,0,0-.84-.46.54.54,0,0,0,0,.91.49.49,0,0,0,.69-.53.44.44,0,0,0-.6.07.42.42,0,0,0,.1.59.25.25,0,0,0-.11-.42"/><path class="cls-1" d="M87.75,248a.67.67,0,0,0-.27-.81c-.12.1.06.33.18.24-.26.07-.27.5,0,.63a.46.46,0,0,0,.62-.33.66.66,0,0,0-.34-.68.84.84,0,0,0-.34.49c0,.21.21.43.38.31"/><path class="cls-1" d="M122.11,230.81,127,229"/><path class="cls-1" d="M140.78,210.39a42.93,42.93,0,0,1,5.66-1.72"/><path class="cls-1" d="M144.75,185.34a27.14,27.14,0,0,0,3.52,4.19"/><path class="cls-1" d="M105.92,160.42q1.68,4,3.54,7.9"/><path class="cls-1" d="M41.35,175a69.36,69.36,0,0,1,20.92-1.37"/><path class="cls-1" d="M30.67,209.48a12.43,12.43,0,0,0,3.27-.86,112.09,112.09,0,0,1,14.91-4.25"/><path class="cls-1" d="M66.91,237.33a88.82,88.82,0,0,1,5.38-7.82"/><path class="cls-1" d="M82.7,200.91a26.86,26.86,0,0,1,10.11,13"/><path class="cls-1" d="M78.67,178.87a66.07,66.07,0,0,1,13.43-4.43"/><path class="cls-1" d="M130.42,169.16a24.08,24.08,0,0,1,14.22,9.17"/><path class="cls-1" d="M116.13,186.58C119.33,191,119,197,121.25,202"/><path class="cls-1" d="M106,250.67a1.28,1.28,0,0,0-.5-1.06,41.51,41.51,0,0,0,10.35,1.28"/><path class="cls-1" d="M119.82,240.89a116,116,0,0,1,15.72,5.25"/><path class="cls-1" d="M70.76,252.18c2.86-4.17,7.29-7,11.6-9.6"/><path class="cls-1" d="M61.83,213c-.65,2.62-1.41,5.21-2.29,7.75"/><path class="cls-1" d="M62.09,198.38A69.49,69.49,0,0,1,70,193.69"/><path class="cls-1" d="M30.88,195.79a55.13,55.13,0,0,1,13.18-2.87"/><path class="cls-1" d="M86.38,164.66h-.32"/><path class="cls-1" d="M142.35,168.39a51.06,51.06,0,0,1,13.85-2.54"/><path class="cls-1" d="M57.44,295l2.87-1a1.06,1.06,0,0,0,.34-.16,1.1,1.1,0,0,0,.24-.4,9.31,9.31,0,0,0,.92-3.36,6.6,6.6,0,0,0,1.26,1.76l1,1.08a1,1,0,0,0,.82.42,13.86,13.86,0,0,0,3.34-.24l-2.08,2.8a1.3,1.3,0,0,0-.26.51,1.13,1.13,0,0,0,.1.54l1.27,3.69a.82.82,0,0,0-.34-.68,2.58,2.58,0,0,0-.71-.34l-2.72-1c-1.13.92-2.22,1.9-3.25,2.92a21.26,21.26,0,0,0,.18-4,.62.62,0,0,0,0-.27.6.6,0,0,0-.25-.22,16,16,0,0,1-2.56-2s-.09-.08-.14-.05,0,.11.05.06Z"/><path class="cls-1" d="M118,351.82l3,.06a.76.76,0,0,0,.37,0,.94.94,0,0,0,.37-.29,9.54,9.54,0,0,0,2-2.84,6.11,6.11,0,0,0,.59,2.08l.55,1.35a1.41,1.41,0,0,0,.22.4,1.13,1.13,0,0,0,.41.27,13.18,13.18,0,0,0,3.22.91l-2.91,1.93a1.21,1.21,0,0,0-.42.39,1.12,1.12,0,0,0-.09.55l-.06,3.9a.83.83,0,0,0-.09-.76,2.44,2.44,0,0,0-.55-.56l-2.23-1.83c-1.38.49-2.73,1-4.06,1.64a21.2,21.2,0,0,0,1.54-3.68.9.9,0,0,0,0-.28.69.69,0,0,0-.16-.29,15.43,15.43,0,0,1-1.72-2.75c0-.05-.07-.11-.12-.1s0,.12,0,.07Z"/><path class="cls-1" d="M152.7,311l1.69-1a.54.54,0,0,0,.18-.15.51.51,0,0,0,.1-.29,6.16,6.16,0,0,0,.11-2.26,4.25,4.25,0,0,0,1.05.93l.78.55a1.3,1.3,0,0,0,.26.14.87.87,0,0,0,.32,0,9,9,0,0,0,2.09-.64l-.92,2.09a.73.73,0,0,0-.09.35.77.77,0,0,0,.14.34l1.34,2.16a.53.53,0,0,0-.32-.38,1.41,1.41,0,0,0-.5-.12l-1.87-.22c-.58.75-1.13,1.53-1.64,2.33a13.73,13.73,0,0,0-.46-2.56.51.51,0,0,0-.07-.17.45.45,0,0,0-.19-.11,9.87,9.87,0,0,1-1.92-.9s-.07,0-.09,0,0,.06,0,0Z"/><path class="cls-1" d="M83,321.54l2,0a.63.63,0,0,0,.24,0,.55.55,0,0,0,.24-.19,6.29,6.29,0,0,0,1.31-1.85,4,4,0,0,0,.38,1.35l.36.88a.89.89,0,0,0,.15.27.73.73,0,0,0,.26.17,8.52,8.52,0,0,0,2.1.59L88.12,324a.82.82,0,0,0-.27.25.89.89,0,0,0-.07.36l0,2.54a.54.54,0,0,0-.06-.49,1.8,1.8,0,0,0-.36-.37l-1.46-1.18c-.89.31-1.78.67-2.64,1.07a14.08,14.08,0,0,0,1-2.41.38.38,0,0,0,0-.18.41.41,0,0,0-.11-.19A10.34,10.34,0,0,1,83,321.64s0-.07-.08-.06,0,.07,0,0Z"/><path class="cls-1" d="M114.33,290.14l2,0a1,1,0,0,0,.24,0,.66.66,0,0,0,.24-.2,6.29,6.29,0,0,0,1.31-1.85,4.13,4.13,0,0,0,.38,1.36l.36.88a.84.84,0,0,0,.15.26.93.93,0,0,0,.26.18,9,9,0,0,0,2.1.59l-1.89,1.26a.66.66,0,0,0-.27.25.73.73,0,0,0-.07.36l0,2.54a.53.53,0,0,0-.06-.49,1.58,1.58,0,0,0-.36-.37l-1.46-1.19c-.89.32-1.78.67-2.64,1.07a14,14,0,0,0,1-2.4.57.57,0,0,0,0-.18.4.4,0,0,0-.11-.19,10.42,10.42,0,0,1-1.12-1.8s0-.07-.08-.06,0,.08,0,.05Z"/><path class="cls-1" d="M121.37,310.66a4.19,4.19,0,0,0-5.25,4.26,2.19,2.19,0,0,0,.46,1.34,2.84,2.84,0,0,0,1,.64,5,5,0,0,0,3.4.79c1.62-.42,2.4-2.34,2.32-4-.07-1.23-.64-2.6-1.82-2.91"/><path class="cls-1" d="M96.23,301.35l-.56,0a.39.39,0,0,0,.55.3.48.48,0,0,0-.78-.22.49.49,0,0,0,.27.77c.36-.29.74-.81.41-1.14s-.77,0-.88.34a1.68,1.68,0,0,0,.18,1.09.84.84,0,0,0,.94-.62c-.11-.29-.51-.46-.73-.26s0,.69.31.54"/><path class="cls-1" d="M148,288.21c-.09.17.28.29.34.11s-.16-.38-.35-.33a.58.58,0,0,0-.36.44.73.73,0,0,0,.35.84.54.54,0,0,0,.65-.68.52.52,0,0,0-.93.07.51.51,0,0,0,.74.54.57.57,0,0,0-.19-1,.75.75,0,0,0-.9.59.64.64,0,0,0,.24.66.44.44,0,0,0,.63-.17c.08-.24-.2-.52-.42-.4a.28.28,0,0,0,.08.51"/><path class="cls-1" d="M131.55,333.37l-.14.64a.59.59,0,1,0-.41-.36.53.53,0,0,0,.86.17c.22-.28-.16-.78-.46-.6a.7.7,0,0,0,.07.51.51.51,0,0,0,.49-.07c0-.4-.72-.47-.81-.08a.65.65,0,0,0,.44.35"/><path class="cls-1" d="M59,327.85a.38.38,0,0,0-.52,0c-.07.41,0,1,.44,1s.33-.75,0-.9a.63.63,0,0,0-.76.21.47.47,0,0,0,.25.68c.28.06.55-.31.37-.54l0,.54"/><path class="cls-1" d="M100.4,341.9c-.1-.26-.56-.17-.6.1a.43.43,0,0,0,.54.44.6.6,0,0,0,.38-.66.71.71,0,0,0-1-.53.63.63,0,0,0-.06,1.05.58.58,0,0,0,.8-.61.49.49,0,0,0-.69.08.49.49,0,0,0,.12.68.29.29,0,0,0-.13-.48"/><path class="cls-1" d="M100.05,367.93a.75.75,0,0,0-.31-.92c-.14.1.07.37.21.26a.41.41,0,0,0,0,.73.53.53,0,0,0,.72-.38.76.76,0,0,0-.39-.78,1,1,0,0,0-.4.56c0,.24.25.49.44.36"/><path class="cls-1" d="M139.58,348.18l5.58-2.08"/><path class="cls-1" d="M161.06,324.69a49,49,0,0,1,6.52-2"/><path class="cls-1" d="M165.63,295.87a30.61,30.61,0,0,0,4.05,4.82"/><path class="cls-1" d="M121,267.19c1.3,3.06,2.65,6.1,4.08,9.1"/><path class="cls-1" d="M46.67,284a79.78,79.78,0,0,1,24.07-1.58"/><path class="cls-1" d="M34.39,323.64a14.33,14.33,0,0,0,3.76-1,130.48,130.48,0,0,1,17.15-4.88"/><path class="cls-1" d="M76.07,355.68a104.82,104.82,0,0,1,6.2-9"/><path class="cls-1" d="M94.24,313.78a31,31,0,0,1,11.64,14.94"/><path class="cls-1" d="M89.6,288.42a77,77,0,0,1,15.46-5.1"/><path class="cls-1" d="M149.14,277.25a27.64,27.64,0,0,1,16.36,10.56"/><path class="cls-1" d="M132.7,297.29c3.68,5.08,3.31,12,5.89,17.74"/><path class="cls-1" d="M121.09,371a1.47,1.47,0,0,0-.57-1.22,47.33,47.33,0,0,0,11.91,1.47"/><path class="cls-1" d="M137,359.78a132.21,132.21,0,0,1,18.08,6"/><path class="cls-1" d="M80.5,372.77c3.29-4.81,8.39-8,13.35-11"/><path class="cls-1" d="M70.23,327.67c-.74,3-1.62,6-2.63,8.92"/><path class="cls-1" d="M70.53,310.86a79.43,79.43,0,0,1,9.06-5.38"/><path class="cls-1" d="M34.63,307.89a63.48,63.48,0,0,1,15.16-3.31"/><path class="cls-1" d="M98.48,272.08H98.1"/><path class="cls-1" d="M162.87,276.37a58.79,58.79,0,0,1,15.93-2.93"/><path class="cls-1" d="M38.91,245.43l1.5-3a1.2,1.2,0,0,0,.13-.39,1,1,0,0,0-.12-.51,10.57,10.57,0,0,0-1.9-3.37,7,7,0,0,0,2.37.4l1.61.08a1.52,1.52,0,0,0,.52,0,1.49,1.49,0,0,0,.46-.29,14.93,14.93,0,0,0,2.44-2.81l.56,3.85a1,1,0,0,0,.7.95l3.9,1.9a.94.94,0,0,0-.81-.27,3,3,0,0,0-.82.29l-2.9,1.39c-.16,1.61-.25,3.23-.26,4.85a23.32,23.32,0,0,0-3-3.29.62.62,0,0,0-.25-.17.93.93,0,0,0-.37,0,16.7,16.7,0,0,1-3.59.43c-.06,0-.13,0-.15.08s.12.06.08,0Z"/><path class="cls-1" d="M14.2,191.2,14,189a.82.82,0,0,0-.06-.27.69.69,0,0,0-.25-.23,6.94,6.94,0,0,0-2.23-1.18,4.49,4.49,0,0,0,1.44-.62l.92-.52a1,1,0,0,0,.27-.2.73.73,0,0,0,.15-.32,9.67,9.67,0,0,0,.35-2.4l1.67,1.91a.8.8,0,0,0,.31.27.78.78,0,0,0,.4,0l2.81-.32a.58.58,0,0,0-.53.13,2,2,0,0,0-.36.45l-1.1,1.78q.72,1.41,1.56,2.76a15.77,15.77,0,0,0-2.79-.76.45.45,0,0,0-.2,0,.46.46,0,0,0-.2.14,11.82,11.82,0,0,1-1.81,1.5s-.07,0-.06.09.08,0,.05,0Z"/><path class="cls-1" d="M-.91,222.59a4.71,4.71,0,0,0-.95,4.1A4.77,4.77,0,0,0,.9,229.88a2.4,2.4,0,0,0,1.56.17,3,3,0,0,0,1.09-.65c1-.82,2.16-1.75,2.4-3.05.35-1.83-1.21-3.52-2.93-4.23-1.26-.51-2.91-.59-3.78.46"/><path class="cls-1" d="M26.75,223.08l.58.44c.36-.46-.25-1.25-.78-1a.69.69,0,0,0,.22,1.26.59.59,0,0,0,.58-.78c-.18-.35-.86-.21-.83.18a.76.76,0,0,0,.56.17.57.57,0,0,0,.16-.53c-.4-.19-.82.51-.47.78a.71.71,0,0,0,.56-.27"/><path class="cls-1" d="M20.6,258.45c-.3,0-.44.48-.18.66a.48.48,0,0,0,.69-.34.67.67,0,0,0-.48-.7.79.79,0,0,0-1,.72.7.7,0,0,0,1,.55.62.62,0,0,0-.23-1.08.53.53,0,1,0,.49.93.31.31,0,0,0-.54-.1"/><path class="cls-1" d="M46.63,271.11a.85.85,0,0,0-1.08-.12c0,.19.41.1.36-.09-.06.34.44.6.72.39a.6.6,0,0,0,0-.9.83.83,0,0,0-1,0,1,1,0,0,0,.38.66c.22.14.6,0,.56-.27"/><path class="cls-1" d="M45.44,222l.55-6.6"/><path class="cls-1" d="M32,189.29a54.24,54.24,0,0,1,1.1-7.5"/><path class="cls-1" d="M5.14,171.06a34.22,34.22,0,0,0,6.76-1.8"/><path class="cls-1" d="M23,289.45A115.81,115.81,0,0,1,16.84,279"/><path class="cls-1" d="M-10.6,251.35a34.4,34.4,0,0,1,20.53-4.64"/><path class="cls-1" d="M-9,204.86c6.85-1.3,13.66,2.36,20.63,2.47"/><path class="cls-1" d="M59.69,251.41a1.65,1.65,0,0,0-1.5,0,52.6,52.6,0,0,0,7.12-11.28"/><path class="cls-1" d="M55.87,230.14A147.19,147.19,0,0,1,70.49,214.8"/><path class="cls-1" d="M42.24,293.07c-3.27-5.58-4.07-12.23-4.8-18.65"/><path class="cls-1" d="M95.25,268.17l1.12-.68a.58.58,0,0,0,.12-.1.48.48,0,0,0,.07-.2,4.2,4.2,0,0,0,.07-1.5,2.6,2.6,0,0,0,.7.62l.51.36a.64.64,0,0,0,.18.1.5.5,0,0,0,.21,0,5.64,5.64,0,0,0,1.38-.42L99,267.74a.6.6,0,0,0-.06.23.54.54,0,0,0,.09.22l.89,1.44a.34.34,0,0,0-.21-.26.88.88,0,0,0-.33-.07l-1.24-.15c-.39.5-.75,1-1.09,1.55a9.6,9.6,0,0,0-.3-1.7.22.22,0,0,0,0-.11.21.21,0,0,0-.13-.07,6.74,6.74,0,0,1-1.27-.61s0,0-.06,0,0,0,0,0Z"/><path class="cls-1" d="M135.15,259.53l1.13.67a.28.28,0,0,0,.15.06.46.46,0,0,0,.2,0,4.15,4.15,0,0,0,1.36-.64,2.82,2.82,0,0,0-.22.91l-.08.62a.45.45,0,0,0,0,.2.48.48,0,0,0,.09.19,5.53,5.53,0,0,0,1,1l-1.51.11a.46.46,0,0,0-.23.05.58.58,0,0,0-.16.19l-.85,1.46a.39.39,0,0,0,.13-.31,1.35,1.35,0,0,0-.09-.33l-.45-1.16c-.62-.11-1.25-.19-1.88-.24a8.86,8.86,0,0,0,1.37-1.07.16.16,0,0,0,.07-.09.26.26,0,0,0,0-.15,6.54,6.54,0,0,1-.06-1.4s0-.05,0-.06,0,0,0,0Z"/><path class="cls-1" d="M180.87,239.59l2.63-.89a.87.87,0,0,0,.31-.14,1.07,1.07,0,0,0,.22-.37,8.57,8.57,0,0,0,.84-3.07,5.89,5.89,0,0,0,1.16,1.61l.89,1a1.06,1.06,0,0,0,.32.28.92.92,0,0,0,.43.11,12.11,12.11,0,0,0,3.06-.22l-1.91,2.57a1,1,0,0,0-.23.46,1.08,1.08,0,0,0,.08.5l1.17,3.37a.74.74,0,0,0-.31-.62,2.17,2.17,0,0,0-.65-.31l-2.49-.88c-1,.85-2,1.74-3,2.68a19.48,19.48,0,0,0,.17-3.66.49.49,0,0,0-.05-.24.63.63,0,0,0-.22-.21,13.79,13.79,0,0,1-2.34-1.83s-.09-.07-.13-.05,0,.11,0,.06Z"/><path class="cls-1" d="M236.3,291.59l2.77.05a.79.79,0,0,0,.34,0,.86.86,0,0,0,.33-.27,8.55,8.55,0,0,0,1.84-2.6,5.94,5.94,0,0,0,.54,1.91l.5,1.23a1.36,1.36,0,0,0,.21.37,1.34,1.34,0,0,0,.37.25,12.92,12.92,0,0,0,3,.83l-2.67,1.76a1.06,1.06,0,0,0-.37.36,1,1,0,0,0-.09.5l-.06,3.57a.74.74,0,0,0-.08-.7,2,2,0,0,0-.5-.51l-2-1.67c-1.26.44-2.5.94-3.71,1.5a19.8,19.8,0,0,0,1.4-3.37.59.59,0,0,0,0-.26.57.57,0,0,0-.15-.26,14.33,14.33,0,0,1-1.57-2.52c0-.05-.06-.1-.11-.09s0,.11,0,.07Z"/><path class="cls-1" d="M268,254.19l1.54-.94a.58.58,0,0,0,.17-.14.51.51,0,0,0,.09-.27,5.56,5.56,0,0,0,.1-2.07,4,4,0,0,0,1,.86l.71.49a.89.89,0,0,0,.25.14.94.94,0,0,0,.29,0,7.65,7.65,0,0,0,1.91-.58l-.84,1.91a.63.63,0,0,0-.09.33.67.67,0,0,0,.13.3l1.23,2a.49.49,0,0,0-.29-.35,1.41,1.41,0,0,0-.46-.11l-1.71-.2c-.53.69-1,1.4-1.51,2.13a12.33,12.33,0,0,0-.41-2.34.35.35,0,0,0-.07-.15.42.42,0,0,0-.17-.1,9.44,9.44,0,0,1-1.76-.83.07.07,0,0,0-.09,0s0,.06,0,0Z"/><path class="cls-1" d="M204.25,263.88l1.81,0a.78.78,0,0,0,.22,0,.55.55,0,0,0,.22-.18,5.55,5.55,0,0,0,1.2-1.69,3.9,3.9,0,0,0,.35,1.24l.33.8a.62.62,0,0,0,.13.24.85.85,0,0,0,.25.17,8.28,8.28,0,0,0,1.92.54l-1.74,1.15a.66.66,0,0,0-.24.23.61.61,0,0,0-.06.33l0,2.32a.46.46,0,0,0,0-.45,1.48,1.48,0,0,0-.33-.33l-1.33-1.09c-.82.29-1.63.61-2.42,1a13.27,13.27,0,0,0,.92-2.2.5.5,0,0,0,0-.17.4.4,0,0,0-.09-.17,9,9,0,0,1-1-1.64s0-.07-.07-.06,0,.07,0,0Z"/><path class="cls-1" d="M232.93,235.15l1.81,0a.55.55,0,0,0,.22,0,.6.6,0,0,0,.22-.17,5.9,5.9,0,0,0,1.2-1.7,3.66,3.66,0,0,0,.35,1.24l.33.8a.75.75,0,0,0,.13.25.67.67,0,0,0,.24.16,8.57,8.57,0,0,0,1.92.54l-1.73,1.15a.69.69,0,0,0-.25.23.92.92,0,0,0-.06.33l0,2.32a.49.49,0,0,0-.05-.45,1.72,1.72,0,0,0-.33-.33l-1.33-1.09c-.83.29-1.63.62-2.42,1a12.43,12.43,0,0,0,.91-2.2.45.45,0,0,0,0-.16.4.4,0,0,0-.1-.18,9.61,9.61,0,0,1-1-1.64.09.09,0,0,0-.07-.06s0,.07,0,0Z"/><path class="cls-1" d="M239.37,253.92a3.84,3.84,0,0,0-4.8,3.9,2.07,2.07,0,0,0,.41,1.23,2.91,2.91,0,0,0,.87.59,4.64,4.64,0,0,0,3.12.71c1.48-.38,2.2-2.13,2.12-3.66a2.72,2.72,0,0,0-1.67-2.65"/><path class="cls-1" d="M216.36,245.4l-.51,0a.37.37,0,0,0,.51.28.42.42,0,1,0-.47.5c.33-.27.67-.75.38-1.05s-.71,0-.81.31a1.48,1.48,0,0,0,.17,1,.74.74,0,0,0,.85-.57.45.45,0,0,0-.67-.23c-.2.18,0,.63.29.49"/><path class="cls-1" d="M263.72,233.38c-.09.16.25.27.31.1s-.15-.34-.32-.3a.52.52,0,0,0-.33.4.68.68,0,0,0,.32.77.49.49,0,0,0,.59-.62.45.45,0,1,0-.17.56.52.52,0,0,0-.17-.88.68.68,0,0,0-.82.54.56.56,0,0,0,.22.6.39.39,0,0,0,.57-.16c.08-.21-.19-.47-.39-.36a.27.27,0,0,0,.08.47"/><path class="cls-1" d="M248.68,274.7l-.12.59a.57.57,0,0,0,.48-.94c-.36-.32-1,.16-.86.61a.49.49,0,0,0,.79.15c.2-.25-.14-.71-.43-.55a.73.73,0,0,0,.07.48.48.48,0,0,0,.45-.07c0-.37-.66-.44-.74-.08a.56.56,0,0,0,.4.32"/><path class="cls-1" d="M182.29,269.65a.34.34,0,0,0-.48,0c-.06.37,0,.92.41.88s.3-.68-.05-.82a.57.57,0,0,0-.69.19.42.42,0,0,0,.23.62c.25.06.5-.28.34-.49l-.05.5"/><path class="cls-1" d="M220.18,282.51c-.09-.24-.51-.16-.55.09a.39.39,0,0,0,.49.4.54.54,0,0,0,.35-.6.65.65,0,0,0-.88-.49.58.58,0,0,0-.05,1,.52.52,0,0,0,.73-.55.45.45,0,0,0-.63.06.46.46,0,0,0,.11.63.26.26,0,0,0-.12-.44"/><path class="cls-1" d="M219.87,306.33a.71.71,0,0,0-.29-.85c-.13.1.06.35.19.24a.39.39,0,0,0,0,.67.49.49,0,0,0,.66-.34.69.69,0,0,0-.35-.72.84.84,0,0,0-.37.52c0,.21.23.44.41.32"/><path class="cls-1" d="M256,288.25l5.11-1.9"/><path class="cls-1" d="M275.69,266.76a44,44,0,0,1,6-1.81"/><path class="cls-1" d="M279.87,240.39a28.36,28.36,0,0,0,3.7,4.41"/><path class="cls-1" d="M239,214.15q1.77,4.2,3.73,8.32"/><path class="cls-1" d="M171,229.48A73.46,73.46,0,0,1,193,228"/><path class="cls-1" d="M159.78,265.8a13.06,13.06,0,0,0,3.44-.91,118.87,118.87,0,0,1,15.69-4.47"/><path class="cls-1" d="M197.92,295.12a98.62,98.62,0,0,1,5.67-8.24"/><path class="cls-1" d="M214.55,256.77a28.33,28.33,0,0,1,10.64,13.68"/><path class="cls-1" d="M210.3,233.57a70.36,70.36,0,0,1,14.14-4.66"/><path class="cls-1" d="M264.78,223.35a25.31,25.31,0,0,1,15,9.66"/><path class="cls-1" d="M249.74,241.69c3.36,4.65,3,11,5.38,16.23"/><path class="cls-1" d="M239.11,309.16a1.35,1.35,0,0,0-.52-1.12,43.11,43.11,0,0,0,10.9,1.35"/><path class="cls-1" d="M253.62,298.87a121.69,121.69,0,0,1,16.55,5.52"/><path class="cls-1" d="M202,310.75c3-4.39,7.68-7.31,12.22-10.11"/><path class="cls-1" d="M192.57,269.49c-.68,2.75-1.48,5.48-2.4,8.16"/><path class="cls-1" d="M192.85,254.11a70.71,70.71,0,0,1,8.29-4.93"/><path class="cls-1" d="M160,251.38a58.85,58.85,0,0,1,13.87-3"/><path class="cls-1" d="M218.42,218.62h-.34"/><path class="cls-1" d="M277.35,222.54a53.91,53.91,0,0,1,14.57-2.67"/><path class="cls-1" d="M153.09,230.2a3.84,3.84,0,0,0-4.8,3.9,2,2,0,0,0,.42,1.22,2.63,2.63,0,0,0,.87.59,4.63,4.63,0,0,0,3.12.72c1.48-.38,2.19-2.14,2.11-3.66a2.73,2.73,0,0,0-1.66-2.66"/><path class="cls-1" d="M258.52,108.37l2-.68a.68.68,0,0,0,.24-.12.73.73,0,0,0,.17-.28,6.6,6.6,0,0,0,.65-2.36,4.5,4.5,0,0,0,.89,1.23l.69.76a1,1,0,0,0,.24.22.94.94,0,0,0,.34.08,9.8,9.8,0,0,0,2.35-.17l-1.47,2a.84.84,0,0,0-.18.35.77.77,0,0,0,.07.39l.89,2.59a.54.54,0,0,0-.24-.47,1.67,1.67,0,0,0-.5-.25l-1.91-.67c-.8.65-1.56,1.34-2.29,2.06a15.52,15.52,0,0,0,.13-2.81.58.58,0,0,0,0-.19.46.46,0,0,0-.18-.16,11.65,11.65,0,0,1-1.8-1.41.08.08,0,0,0-.1,0s0,.07,0,0Z"/><path class="cls-1" d="M301.19,148.4l2.13,0a.74.74,0,0,0,.26,0,.65.65,0,0,0,.26-.2,6.77,6.77,0,0,0,1.42-2,4.43,4.43,0,0,0,.41,1.46l.39,1a.72.72,0,0,0,.44.48,10,10,0,0,0,2.27.64l-2,1.36a.75.75,0,0,0-.29.27.81.81,0,0,0-.07.38l0,2.75a.56.56,0,0,0-.06-.53,1.64,1.64,0,0,0-.39-.4l-1.57-1.28c-1,.34-1.92.72-2.86,1.15a14.41,14.41,0,0,0,1.08-2.6.4.4,0,0,0,0-.19.47.47,0,0,0-.11-.21,10.77,10.77,0,0,1-1.21-1.93s-.05-.08-.09-.07,0,.08,0,.05Z"/><path class="cls-1" d="M163.05,207.67l2.14,0a.74.74,0,0,0,.26,0,.82.82,0,0,0,.26-.2,6.73,6.73,0,0,0,1.41-2,4.44,4.44,0,0,0,.42,1.46l.38.95a1.64,1.64,0,0,0,.16.29,1,1,0,0,0,.29.19,9.68,9.68,0,0,0,2.27.64l-2,1.36a.78.78,0,0,0-.3.27.8.8,0,0,0-.06.38l0,2.75a.59.59,0,0,0-.07-.53,1.6,1.6,0,0,0-.38-.4l-1.58-1.28c-1,.34-1.92.72-2.85,1.15a15.16,15.16,0,0,0,1.08-2.6.4.4,0,0,0,0-.19.63.63,0,0,0-.12-.21,11.36,11.36,0,0,1-1.21-1.93s0-.08-.08-.07,0,.08,0,0Z"/><path class="cls-1" d="M325.62,119.61l1.19-.73a.49.49,0,0,0,.14-.11.43.43,0,0,0,.06-.2,4.32,4.32,0,0,0,.08-1.6,2.74,2.74,0,0,0,.74.66l.55.39a.81.81,0,0,0,.18.1.59.59,0,0,0,.23,0,5.92,5.92,0,0,0,1.47-.44l-.65,1.47a.54.54,0,0,0-.06.25.43.43,0,0,0,.1.23l.94,1.53a.39.39,0,0,0-.22-.28,1.35,1.35,0,0,0-.36-.08l-1.31-.15c-.41.53-.8,1.08-1.16,1.64a10.09,10.09,0,0,0-.32-1.81.37.37,0,0,0-.05-.11.39.39,0,0,0-.14-.08,6.94,6.94,0,0,1-1.35-.64s-.05,0-.07,0,0,0,0,0Z"/><path class="cls-1" d="M276.52,127.06l1.39,0a.47.47,0,0,0,.17,0,.43.43,0,0,0,.17-.13,4.38,4.38,0,0,0,.92-1.31,3.2,3.2,0,0,0,.27,1l.26.62a.46.46,0,0,0,.1.18.5.5,0,0,0,.19.13,5.7,5.7,0,0,0,1.48.41l-1.34.89a.4.4,0,0,0-.23.43l0,1.79a.37.37,0,0,0,0-.34.89.89,0,0,0-.25-.26l-1-.84q-.94.33-1.86.75a9.56,9.56,0,0,0,.7-1.69.27.27,0,0,0,0-.13.33.33,0,0,0-.07-.13,6.92,6.92,0,0,1-.79-1.27.07.07,0,0,0-.06,0s0,.06,0,0Z"/><path class="cls-1" d="M298.6,105l1.39,0a.47.47,0,0,0,.17,0,.46.46,0,0,0,.17-.14,4.22,4.22,0,0,0,.92-1.3,2.87,2.87,0,0,0,.27,1l.25.62a.72.72,0,0,0,.11.19.71.71,0,0,0,.18.12,6.4,6.4,0,0,0,1.48.42l-1.33.89a.45.45,0,0,0-.19.17.56.56,0,0,0,0,.25l0,1.8a.4.4,0,0,0,0-.35,1.28,1.28,0,0,0-.26-.26l-1-.84c-.64.23-1.26.48-1.87.76a9.39,9.39,0,0,0,.71-1.7.5.5,0,0,0,0-.12.29.29,0,0,0-.08-.14,7.42,7.42,0,0,1-.79-1.26s0,0-.05,0,0,.06,0,0Z"/><path class="cls-1" d="M303.55,119.4a3,3,0,0,0-2.61.57,3,3,0,0,0-1.08,2.44,1.53,1.53,0,0,0,.32.94,2,2,0,0,0,.67.45,3.53,3.53,0,0,0,2.4.55,2.66,2.66,0,0,0,1.63-2.82,2.11,2.11,0,0,0-1.28-2"/><path class="cls-1" d="M285.84,112.84l-.39,0a.27.27,0,0,0,.39.21.32.32,0,1,0-.36.39c.25-.2.52-.57.29-.8s-.54,0-.62.23a1.14,1.14,0,0,0,.13.78.6.6,0,0,0,.66-.44.35.35,0,0,0-.52-.19c-.16.15,0,.49.22.38"/><path class="cls-1" d="M322.3,103.59c-.07.12.19.2.24.07s-.11-.26-.25-.22a.39.39,0,0,0-.25.3.51.51,0,0,0,.24.59.37.37,0,0,0,.46-.48.37.37,0,0,0-.65.05.36.36,0,0,0,.52.38.4.4,0,0,0-.13-.67.53.53,0,0,0-.64.41.48.48,0,0,0,.17.47.3.3,0,0,0,.44-.12c.06-.17-.14-.37-.29-.28a.2.2,0,0,0,.06.36"/><path class="cls-1" d="M310.72,135.4l-.09.45a.44.44,0,0,0,.37-.72c-.28-.25-.8.12-.66.47a.37.37,0,0,0,.6.12c.16-.2-.1-.55-.32-.43a.53.53,0,0,0,.05.37.37.37,0,0,0,.35-.06c0-.28-.51-.33-.57-.06a.42.42,0,0,0,.3.25"/><path class="cls-1" d="M259.62,131.51a.27.27,0,0,0-.38,0c0,.28,0,.71.32.68s.23-.53,0-.64a.44.44,0,0,0-.53.15.33.33,0,0,0,.17.48c.2,0,.39-.22.27-.38l0,.38"/><path class="cls-1" d="M288.78,141.41c-.07-.18-.39-.12-.42.07s.19.36.38.31a.42.42,0,0,0,.27-.47.5.5,0,0,0-.68-.37.44.44,0,0,0,0,.74.4.4,0,0,0,.56-.43.33.33,0,1,0-.4.53.2.2,0,0,0-.09-.34"/><path class="cls-1" d="M288.54,159.74a.53.53,0,0,0-.22-.65c-.1.08.05.27.15.19a.29.29,0,0,0,0,.51.37.37,0,0,0,.5-.26.52.52,0,0,0-.27-.55.64.64,0,0,0-.28.39c0,.17.17.35.31.25"/><path class="cls-1" d="M316.38,145.83l3.94-1.46"/><path class="cls-1" d="M331.51,129.28a35.15,35.15,0,0,1,4.59-1.39"/><path class="cls-1" d="M334.73,109a21.59,21.59,0,0,0,2.85,3.4"/><path class="cls-1" d="M303.26,88.78c.91,2.16,1.87,4.29,2.87,6.41"/><path class="cls-1" d="M250.93,100.59a56.18,56.18,0,0,1,17-1.12"/><path class="cls-1" d="M242.28,128.54a9.89,9.89,0,0,0,2.65-.7A91.92,91.92,0,0,1,257,124.4"/><path class="cls-1" d="M271.64,151.11a76.48,76.48,0,0,1,4.37-6.33"/><path class="cls-1" d="M284.45,121.6a21.74,21.74,0,0,1,8.19,10.52"/><path class="cls-1" d="M281.18,103.73a54.63,54.63,0,0,1,10.88-3.59"/><path class="cls-1" d="M323.12,95.87a19.49,19.49,0,0,1,11.52,7.43"/><path class="cls-1" d="M311.54,110c2.59,3.57,2.33,8.47,4.14,12.49"/><path class="cls-1" d="M303.36,161.93a1,1,0,0,0-.41-.86,33.48,33.48,0,0,0,8.39,1"/><path class="cls-1" d="M314.53,154a93.78,93.78,0,0,1,12.74,4.25"/><path class="cls-1" d="M274.77,163.15c2.31-3.38,5.91-5.63,9.4-7.78"/><path class="cls-1" d="M267.53,131.38q-.78,3.18-1.85,6.29"/><path class="cls-1" d="M267.74,119.55a54.75,54.75,0,0,1,6.38-3.8"/><path class="cls-1" d="M242.45,117.45a44.89,44.89,0,0,1,10.68-2.33"/><path class="cls-1" d="M287.43,92.22h-.27"/><path class="cls-1" d="M332.79,95.24A42,42,0,0,1,344,93.18"/><path class="cls-1" d="M300.87,248.87l2.63-.9a.87.87,0,0,0,.31-.14,1.07,1.07,0,0,0,.22-.37,8.57,8.57,0,0,0,.84-3.07A5.89,5.89,0,0,0,306,246l.89,1a1.06,1.06,0,0,0,.32.28.92.92,0,0,0,.43.11,12.11,12.11,0,0,0,3.06-.22l-1.91,2.57a1.05,1.05,0,0,0-.23.46,1.08,1.08,0,0,0,.08.5l1.17,3.37a.74.74,0,0,0-.31-.62,2.17,2.17,0,0,0-.65-.31l-2.49-.88c-1,.85-2,1.74-3,2.68a19.41,19.41,0,0,0,.17-3.65.51.51,0,0,0-.05-.25.73.73,0,0,0-.22-.21A13.79,13.79,0,0,1,301,249s-.09-.07-.13,0,0,.1,0,.05Z"/><path class="cls-1" d="M356.3,300.86l2.77.05a.79.79,0,0,0,.34,0,.86.86,0,0,0,.33-.27,8.55,8.55,0,0,0,1.84-2.6,5.94,5.94,0,0,0,.54,1.91l.5,1.23a1.36,1.36,0,0,0,.21.37,1.34,1.34,0,0,0,.37.25,12.92,12.92,0,0,0,2.95.83l-2.67,1.76a1.06,1.06,0,0,0-.37.36,1,1,0,0,0-.09.5l-.06,3.57a.74.74,0,0,0-.08-.7,2,2,0,0,0-.5-.51l-2-1.67c-1.26.44-2.5.94-3.71,1.5A19.8,19.8,0,0,0,358,304a.77.77,0,0,0,0-.25.56.56,0,0,0-.15-.27,14,14,0,0,1-1.57-2.52c0-.05-.06-.1-.11-.09s0,.11,0,.07Z"/><path class="cls-1" d="M388,263.46l1.54-.94a.58.58,0,0,0,.17-.14.51.51,0,0,0,.09-.27,5.56,5.56,0,0,0,.1-2.07,4,4,0,0,0,1,.86l.71.5a1.19,1.19,0,0,0,.25.13.71.71,0,0,0,.29,0,7.65,7.65,0,0,0,1.91-.58l-.84,1.91a.63.63,0,0,0-.09.33.67.67,0,0,0,.13.3l1.23,2a.51.51,0,0,0-.29-.35,1.41,1.41,0,0,0-.46-.11l-1.71-.19c-.53.68-1,1.39-1.51,2.12a12.33,12.33,0,0,0-.41-2.34.35.35,0,0,0-.07-.15.4.4,0,0,0-.18-.1,9,9,0,0,1-1.75-.83.07.07,0,0,0-.09,0s0,.06,0,0Z"/><path class="cls-1" d="M324.25,273.15l1.81,0a.78.78,0,0,0,.22,0,.55.55,0,0,0,.22-.18,5.55,5.55,0,0,0,1.2-1.69,3.9,3.9,0,0,0,.35,1.24l.33.8a.75.75,0,0,0,.13.25,1.07,1.07,0,0,0,.25.16,8.28,8.28,0,0,0,1.92.54l-1.74,1.15a.78.78,0,0,0-.25.23.74.74,0,0,0-.05.33l0,2.32a.49.49,0,0,0-.05-.45,1.48,1.48,0,0,0-.33-.33l-1.33-1.09c-.82.29-1.63.62-2.42,1a12.43,12.43,0,0,0,.91-2.2.32.32,0,0,0,0-.17.4.4,0,0,0-.09-.17,9,9,0,0,1-1-1.64s0-.07-.07-.06,0,.07,0,0Z"/><path class="cls-1" d="M352.93,244.42l1.81,0a.42.42,0,0,0,.22,0,.6.6,0,0,0,.22-.17,5.9,5.9,0,0,0,1.2-1.7,3.66,3.66,0,0,0,.35,1.24l.33.8a.75.75,0,0,0,.13.25.67.67,0,0,0,.24.16,8.57,8.57,0,0,0,1.92.54l-1.73,1.15a.7.7,0,0,0-.25.23.75.75,0,0,0-.06.33l0,2.33a.5.5,0,0,0,0-.46,1.72,1.72,0,0,0-.33-.33l-1.33-1.09c-.83.29-1.63.62-2.42,1a12.43,12.43,0,0,0,.91-2.2.45.45,0,0,0,0-.16.4.4,0,0,0-.1-.18,9.61,9.61,0,0,1-1-1.64.09.09,0,0,0-.07-.06s0,.07,0,.05Z"/><path class="cls-1" d="M359.37,263.19a3.84,3.84,0,0,0-4.8,3.91,2.06,2.06,0,0,0,.41,1.22,2.91,2.91,0,0,0,.87.59,4.64,4.64,0,0,0,3.12.71c1.48-.38,2.2-2.13,2.12-3.66a2.72,2.72,0,0,0-1.67-2.65"/><path class="cls-1" d="M336.36,254.67l-.51,0a.37.37,0,0,0,.51.28.42.42,0,1,0-.47.5c.33-.27.67-.75.38-1.05s-.71,0-.81.31a1.51,1.51,0,0,0,.17,1,.75.75,0,0,0,.85-.58.45.45,0,0,0-.67-.23c-.2.18,0,.63.29.49"/><path class="cls-1" d="M383.72,242.65c-.09.16.25.27.31.1s-.15-.34-.32-.3a.52.52,0,0,0-.33.41.66.66,0,0,0,.32.76.48.48,0,0,0,.59-.62.45.45,0,1,0-.17.56.53.53,0,0,0-.17-.88.68.68,0,0,0-.82.54.56.56,0,0,0,.22.6.39.39,0,0,0,.57-.15c.08-.22-.19-.48-.39-.37a.27.27,0,0,0,.08.47"/><path class="cls-1" d="M368.68,284l-.12.58a.57.57,0,0,0,.48-.94c-.36-.32-1,.16-.86.61a.49.49,0,0,0,.79.15c.2-.25-.14-.71-.43-.55a.73.73,0,0,0,.07.48.48.48,0,0,0,.45-.07c0-.37-.66-.44-.74-.08a.56.56,0,0,0,.4.32"/><path class="cls-1" d="M302.29,278.92a.34.34,0,0,0-.48,0c-.06.37,0,.92.41.89s.3-.69-.05-.83a.57.57,0,0,0-.69.19.42.42,0,0,0,.23.62c.25.06.5-.28.34-.49l-.05.5"/><path class="cls-1" d="M340.18,291.78c-.09-.24-.51-.16-.55.09a.39.39,0,0,0,.49.4.54.54,0,0,0,.35-.6.65.65,0,0,0-.88-.49.58.58,0,0,0,0,1,.52.52,0,0,0,.73-.55.43.43,0,1,0-.52.69.26.26,0,0,0-.12-.44"/><path class="cls-1" d="M339.87,315.6a.71.71,0,0,0-.29-.85c-.13.1.06.35.19.24a.38.38,0,0,0,0,.67.49.49,0,0,0,.66-.34.71.71,0,0,0-.35-.72.84.84,0,0,0-.37.52c0,.21.23.44.41.32"/><path class="cls-1" d="M376,297.52l5.11-1.9"/><path class="cls-1" d="M395.69,276a44,44,0,0,1,6-1.81"/><path class="cls-1" d="M399.87,249.66a28.36,28.36,0,0,0,3.7,4.41"/><path class="cls-1" d="M359,223.42q1.77,4.2,3.73,8.32"/><path class="cls-1" d="M291,238.75a73.13,73.13,0,0,1,22-1.44"/><path class="cls-1" d="M279.78,275.07a13.06,13.06,0,0,0,3.44-.91,118.87,118.87,0,0,1,15.69-4.47"/><path class="cls-1" d="M317.92,304.39a98.62,98.62,0,0,1,5.67-8.24"/><path class="cls-1" d="M334.55,266a28.33,28.33,0,0,1,10.64,13.68"/><path class="cls-1" d="M330.3,242.84a70.36,70.36,0,0,1,14.14-4.66"/><path class="cls-1" d="M384.78,232.62a25.35,25.35,0,0,1,15,9.66"/><path class="cls-1" d="M369.74,251c3.36,4.65,3,11,5.38,16.23"/><path class="cls-1" d="M359.11,318.43a1.35,1.35,0,0,0-.52-1.12,43.11,43.11,0,0,0,10.9,1.35"/><path class="cls-1" d="M373.62,308.14a121.69,121.69,0,0,1,16.55,5.52"/><path class="cls-1" d="M322,320c3-4.39,7.68-7.31,12.22-10.11"/><path class="cls-1" d="M312.57,278.76c-.68,2.75-1.48,5.48-2.4,8.16"/><path class="cls-1" d="M312.85,263.38a72.12,72.12,0,0,1,8.29-4.93"/><path class="cls-1" d="M280,260.65a58.85,58.85,0,0,1,13.87-3"/><path class="cls-1" d="M338.42,227.89h-.34"/><path class="cls-1" d="M397.35,231.81a53.91,53.91,0,0,1,14.57-2.67"/><path class="cls-1" d="M390.38,123.62l2.5-.84a1,1,0,0,0,.29-.14.78.78,0,0,0,.21-.35,8.38,8.38,0,0,0,.81-2.92,5.48,5.48,0,0,0,1.09,1.53l.85.94a1.06,1.06,0,0,0,.3.26,1,1,0,0,0,.42.1,11.35,11.35,0,0,0,2.9-.21l-1.81,2.44a1.17,1.17,0,0,0-.23.44,1,1,0,0,0,.09.48l1.1,3.2a.7.7,0,0,0-.29-.59,2.23,2.23,0,0,0-.62-.3l-2.37-.83c-1,.8-1.92,1.65-2.82,2.54a19.17,19.17,0,0,0,.16-3.47.46.46,0,0,0,0-.23.58.58,0,0,0-.21-.2,13.37,13.37,0,0,1-2.23-1.74s-.08-.06-.12,0,0,.1,0,0Z"/><path class="cls-1" d="M391.74,152.17a.34.34,0,0,0-.46,0c-.06.36,0,.88.38.85s.29-.66,0-.79a.55.55,0,0,0-.66.18.4.4,0,0,0,.22.59c.24.05.47-.27.32-.46l0,.47"/><path class="cls-1" d="M381,114a69.36,69.36,0,0,1,20.92-1.38"/><path class="cls-1" d="M370.34,148.51a12.06,12.06,0,0,0,3.27-.86,115.64,115.64,0,0,1,14.91-4.25"/><path class="cls-1" d="M401.5,152q-1,3.93-2.29,7.75"/><path class="cls-1" d="M370.56,134.82A55.43,55.43,0,0,1,383.73,132"/><path class="cls-1" d="M397.11,234l2.87-1a1.06,1.06,0,0,0,.34-.16,1,1,0,0,0,.24-.4,9.54,9.54,0,0,0,.93-3.35,6,6,0,0,0,1.26,1.75l1,1.08a1.47,1.47,0,0,0,.35.31,1.13,1.13,0,0,0,.48.11,13.32,13.32,0,0,0,3.33-.24L405.8,235a1.2,1.2,0,0,0-.26.5,1.31,1.31,0,0,0,.1.55l1.27,3.69a.81.81,0,0,0-.34-.69,2.45,2.45,0,0,0-.71-.34l-2.72-1c-1.13.92-2.21,1.9-3.25,2.92a21.31,21.31,0,0,0,.19-4,.82.82,0,0,0-.06-.27.6.6,0,0,0-.25-.22,15.45,15.45,0,0,1-2.55-2s-.1-.08-.15,0,0,.12.05.06Z"/><path class="cls-1" d="M398.67,266.88a.38.38,0,0,0-.53,0c-.07.41,0,1,.44,1s.34-.76-.05-.91a.63.63,0,0,0-.75.21.47.47,0,0,0,.24.68c.28.06.55-.31.38-.53l0,.54"/><path class="cls-1" d="M386.34,223a80.1,80.1,0,0,1,24.07-1.58"/><path class="cls-1" d="M374.06,262.67a14.21,14.21,0,0,0,3.76-1A131,131,0,0,1,395,256.79"/><path class="cls-1" d="M374.3,246.92a64,64,0,0,1,15.16-3.3"/><path class="cls-1" d="M292.77,218.53l.38-3.35a.94.94,0,0,0,0-.41,1.17,1.17,0,0,0-.29-.44,10.32,10.32,0,0,0-2.93-2.51,7.41,7.41,0,0,0,2.36-.44l1.54-.47a1.59,1.59,0,0,0,.48-.21,1.74,1.74,0,0,0,.34-.42A15.08,15.08,0,0,0,296,206.8l1.84,3.43a1.25,1.25,0,0,0,.39.49,1.34,1.34,0,0,0,.59.17l4.31.46a.89.89,0,0,0-.84,0,2.42,2.42,0,0,0-.68.55l-2.25,2.29q.59,2.35,1.4,4.65a23.3,23.3,0,0,0-3.92-2.07.84.84,0,0,0-.3-.08.78.78,0,0,0-.35.15,16.74,16.74,0,0,1-3.22,1.62c-.06,0-.12.06-.12.12s.13,0,.08,0Z"/><path class="cls-1" d="M378.58,184.46l1.5-3a1.3,1.3,0,0,0,.14-.39,1.2,1.2,0,0,0-.13-.51,10.63,10.63,0,0,0-1.9-3.36,7,7,0,0,0,2.37.39l1.61.08a1.52,1.52,0,0,0,.52,0,1.3,1.3,0,0,0,.46-.28,15.25,15.25,0,0,0,2.44-2.81l.56,3.84a1.38,1.38,0,0,0,.2.6,1.31,1.31,0,0,0,.5.36l3.9,1.9a.88.88,0,0,0-.8-.27,2.41,2.41,0,0,0-.83.29l-2.89,1.38c-.17,1.61-.26,3.23-.27,4.85a24.38,24.38,0,0,0-3-3.28.73.73,0,0,0-.26-.17.67.67,0,0,0-.37,0,17.35,17.35,0,0,1-3.59.43c-.06,0-.13,0-.15.07s.12.06.09,0Z"/><path class="cls-1" d="M353.87,130.24l-.24-2.19a.76.76,0,0,0-.06-.26.72.72,0,0,0-.25-.24,6.81,6.81,0,0,0-2.23-1.17,4.72,4.72,0,0,0,1.44-.62l.92-.52a1.11,1.11,0,0,0,.27-.2,1,1,0,0,0,.16-.32,10.15,10.15,0,0,0,.35-2.4l1.66,1.91a.86.86,0,0,0,.31.26.94.94,0,0,0,.41,0l2.8-.33a.61.61,0,0,0-.53.14,1.56,1.56,0,0,0-.35.45l-1.11,1.77A31.17,31.17,0,0,0,359,129.3a15.24,15.24,0,0,0-2.8-.75.69.69,0,0,0-.2,0,.59.59,0,0,0-.2.15,11.21,11.21,0,0,1-1.81,1.49.1.1,0,0,0-.06.1s.09,0,.05,0Z"/><path class="cls-1" d="M331.56,205.37l1-2a.55.55,0,0,0,0-.59,6.87,6.87,0,0,0-1.24-2.19,4.7,4.7,0,0,0,1.54.26l1.05.05a.7.7,0,0,0,.64-.21,9.59,9.59,0,0,0,1.59-1.83l.37,2.51a.82.82,0,0,0,.13.39.79.79,0,0,0,.33.23l2.54,1.24a.61.61,0,0,0-.53-.18,1.83,1.83,0,0,0-.54.19l-1.88.9a30.6,30.6,0,0,0-.17,3.17,15.83,15.83,0,0,0-1.95-2.14.32.32,0,0,0-.17-.11.39.39,0,0,0-.24,0,11.51,11.51,0,0,1-2.34.28s-.09,0-.09.05.07,0,.05,0Z"/><path class="cls-1" d="M314.79,159l1-2a.58.58,0,0,0,.09-.25.62.62,0,0,0-.08-.33,6.87,6.87,0,0,0-1.24-2.19,4.71,4.71,0,0,0,1.55.25l1.05.05a.91.91,0,0,0,.33,0,1,1,0,0,0,.31-.18,9.6,9.6,0,0,0,1.58-1.84l.37,2.51a.65.65,0,0,0,.46.62l2.54,1.24a.55.55,0,0,0-.52-.17,1.72,1.72,0,0,0-.54.18l-1.89.91c-.1,1-.16,2.11-.17,3.16a15.19,15.19,0,0,0-2-2.14.42.42,0,0,0-.16-.11.53.53,0,0,0-.25,0,10.76,10.76,0,0,1-2.33.28s-.09,0-.1.05.08,0,.05,0Z"/><path class="cls-1" d="M338.76,161.62a4.66,4.66,0,0,0,1.81,7.29,2.47,2.47,0,0,0,1.56.18,3.36,3.36,0,0,0,1.09-.65,5.64,5.64,0,0,0,2.41-3.06c.34-1.82-1.22-3.52-2.94-4.22-1.26-.52-2.91-.59-3.78.46"/><path class="cls-1" d="M317.5,182.51l-.22.58a.44.44,0,0,0,.57-.42.51.51,0,1,0,.31.78c-.13-.49-.48-1.13-1-.95s-.39.76-.08,1a1.89,1.89,0,0,0,1.19.34.93.93,0,0,0-.18-1.24c-.34,0-.7.29-.61.61s.71.28.69-.05"/><path class="cls-1" d="M328.76,124.23c.13.17.43-.14.27-.3s-.45,0-.49.21a.62.62,0,0,0,.27.56.79.79,0,0,0,1,0,.59.59,0,0,0-.37-1,.55.55,0,1,0,.53.47.65.65,0,0,0-1.06-.26.82.82,0,0,0,.17,1.18.7.7,0,0,0,.78.07.48.48,0,0,0,.12-.71c-.2-.19-.62,0-.6.24a.33.33,0,0,0,.56.16"/><path class="cls-1" d="M366.42,162.12l.58.43c.36-.45-.25-1.25-.78-1a.69.69,0,0,0,.22,1.26c.4,0,.76-.44.58-.78s-.85-.22-.82.18a.82.82,0,0,0,.55.17.58.58,0,0,0,.16-.53c-.4-.19-.82.5-.47.77a.68.68,0,0,0,.56-.27"/><path class="cls-1" d="M326.55,232.5a.42.42,0,0,0-.28.51c.38.26,1,.45,1.19,0s-.6-.69-.94-.37a.7.7,0,0,0-.15.86.52.52,0,0,0,.8.07c.2-.25-.05-.7-.36-.63l.53.31"/><path class="cls-1" d="M360.27,197.48c-.3,0-.43.49-.18.66a.47.47,0,0,0,.69-.34.66.66,0,0,0-.47-.69.8.8,0,0,0-1,.72.71.71,0,0,0,1,.55.63.63,0,0,0-.24-1.09.55.55,0,0,0-.25.73.54.54,0,0,0,.74.2.32.32,0,0,0-.54-.1"/><path class="cls-1" d="M386.3,210.14a.86.86,0,0,0-1.08-.12c0,.2.41.11.37-.08-.06.34.43.59.71.38a.59.59,0,0,0,0-.9.84.84,0,0,0-1,0,1.06,1.06,0,0,0,.38.67c.22.14.61,0,.56-.28"/><path class="cls-1" d="M385.12,161l.55-6.6"/><path class="cls-1" d="M371.64,128.32a54.1,54.1,0,0,1,1.1-7.49"/><path class="cls-1" d="M344.81,110.09a33.52,33.52,0,0,0,6.76-1.79"/><path class="cls-1" d="M294.83,141.48c3.69.15,7.39.21,11.08.2"/><path class="cls-1" d="M276.56,224.14a89.19,89.19,0,0,1,9.79-25"/><path class="cls-1" d="M310.68,255.26a15.2,15.2,0,0,0,.78-4.25,145.66,145.66,0,0,1,3.2-19.57"/><path class="cls-1" d="M362.63,228.48A118,118,0,0,1,356.51,218"/><path class="cls-1" d="M329.07,190.38a34.4,34.4,0,0,1,20.53-4.64"/><path class="cls-1" d="M301.36,183.06a85.56,85.56,0,0,1,2.18-18"/><path class="cls-1" d="M318.28,117.88a30.76,30.76,0,0,1,18.36-11.47"/><path class="cls-1" d="M330.67,143.9c6.85-1.3,13.67,2.36,20.63,2.46"/><path class="cls-1" d="M399.36,190.45a1.62,1.62,0,0,0-1.5,0A52.6,52.6,0,0,0,405,179.16"/><path class="cls-1" d="M395.54,169.17a148.24,148.24,0,0,1,14.63-15.34"/><path class="cls-1" d="M381.92,232.1c-3.28-5.58-4.08-12.22-4.8-18.65"/><path class="cls-1" d="M331.69,221.11q4,3.25,7.73,6.86"/><path class="cls-1" d="M314.93,212.86a87.68,87.68,0,0,1-1.14-11.66"/><path class="cls-1" d="M295,247.57a70.84,70.84,0,0,1,3.85-16.81"/><path class="cls-1" d="M289.12,166.4l-.17.38"/><path class="cls-1" d="M323.89,103.64a65.56,65.56,0,0,1,4.59-17.4"/><path class="cls-1" d="M181,167.24l1.9-.65a.55.55,0,0,0,.22-.1.69.69,0,0,0,.17-.27,6.45,6.45,0,0,0,.61-2.22,4.11,4.11,0,0,0,.83,1.16l.65.72a1.1,1.1,0,0,0,.23.2.89.89,0,0,0,.32.08,9.11,9.11,0,0,0,2.21-.16l-1.38,1.86a.87.87,0,0,0-.17.33.8.8,0,0,0,.06.37l.85,2.44a.56.56,0,0,0-.23-.45,1.47,1.47,0,0,0-.47-.23l-1.8-.63c-.75.61-1.47,1.26-2.16,1.94A14.71,14.71,0,0,0,183,169a.52.52,0,0,0,0-.18.49.49,0,0,0-.17-.15,10.38,10.38,0,0,1-1.7-1.33s-.06,0-.09,0,0,.08,0,0Z"/><path class="cls-1" d="M221.22,204.94l2,0a.69.69,0,0,0,.25,0,.55.55,0,0,0,.24-.19,6.23,6.23,0,0,0,1.33-1.89,4.45,4.45,0,0,0,.39,1.38l.37.9a1,1,0,0,0,.15.27.85.85,0,0,0,.27.18,9.25,9.25,0,0,0,2.13.6l-1.93,1.28a.81.81,0,0,0-.27.25.9.9,0,0,0-.07.37l0,2.58a.56.56,0,0,0-.06-.5,1.45,1.45,0,0,0-.37-.37l-1.48-1.21c-.91.32-1.81.68-2.69,1.09a13.48,13.48,0,0,0,1-2.45.31.31,0,0,0-.08-.38,10.1,10.1,0,0,1-1.14-1.82s0-.07-.08-.06,0,.07,0,0Z"/><path class="cls-1" d="M244.23,177.82l1.12-.68a.45.45,0,0,0,.13-.1.47.47,0,0,0,.06-.19,4,4,0,0,0,.07-1.51,2.76,2.76,0,0,0,.7.62l.52.36a.59.59,0,0,0,.17.1.5.5,0,0,0,.21,0,5.71,5.71,0,0,0,1.39-.42l-.61,1.39a.46.46,0,0,0-.06.23.5.5,0,0,0,.09.23l.89,1.43a.37.37,0,0,0-.21-.26,1.21,1.21,0,0,0-.33-.07l-1.24-.15c-.39.5-.75,1-1.09,1.55a8.78,8.78,0,0,0-.31-1.7.36.36,0,0,0,0-.11.24.24,0,0,0-.13-.07,7.37,7.37,0,0,1-1.27-.6s0,0-.06,0,0,0,0,0Z"/><path class="cls-1" d="M198,184.84l1.31,0a.44.44,0,0,0,.16,0,.45.45,0,0,0,.16-.12,4.18,4.18,0,0,0,.87-1.23,2.63,2.63,0,0,0,.25.9l.24.58a.64.64,0,0,0,.1.18.5.5,0,0,0,.17.11,5.6,5.6,0,0,0,1.4.39l-1.26.84a.59.59,0,0,0-.18.17.45.45,0,0,0,0,.23l0,1.69a.35.35,0,0,0,0-.33,1.81,1.81,0,0,0-.24-.24l-1-.79c-.6.21-1.18.45-1.75.71a9.19,9.19,0,0,0,.66-1.59.5.5,0,0,0,0-.12.33.33,0,0,0-.07-.13,7,7,0,0,1-.75-1.19.07.07,0,0,0,0,0s0,0,0,0Z"/><path class="cls-1" d="M218.78,164l1.31,0a.41.41,0,0,0,.16,0,.38.38,0,0,0,.16-.12,4.18,4.18,0,0,0,.87-1.23,2.63,2.63,0,0,0,.25.9l.24.58a.64.64,0,0,0,.1.18.62.62,0,0,0,.17.11,6.07,6.07,0,0,0,1.4.4l-1.26.83a.59.59,0,0,0-.18.17.47.47,0,0,0,0,.24l0,1.68a.33.33,0,0,0,0-.32,1,1,0,0,0-.24-.25l-1-.79c-.59.21-1.18.45-1.75.71a9.19,9.19,0,0,0,.66-1.59.5.5,0,0,0,0-.12.33.33,0,0,0-.07-.13,7,7,0,0,1-.75-1.19s0,0-.05,0,0,.05,0,0Z"/><path class="cls-1" d="M223.45,177.63a2.77,2.77,0,0,0-3.48,2.83,1.4,1.4,0,0,0,.3.88,1.81,1.81,0,0,0,.63.43,3.36,3.36,0,0,0,2.26.52,2.5,2.5,0,0,0,1.53-2.65,2,2,0,0,0-1.2-1.93"/><path class="cls-1" d="M206.77,171.45l-.37,0a.26.26,0,0,0,.37.2.33.33,0,0,0-.53-.15.32.32,0,0,0,.18.51c.24-.19.49-.54.28-.75s-.51,0-.58.22a1.11,1.11,0,0,0,.11.73.57.57,0,0,0,.63-.42.33.33,0,0,0-.49-.17c-.15.13,0,.46.21.36"/><path class="cls-1" d="M241.1,162.73c-.06.12.19.2.23.08s-.11-.25-.23-.22a.36.36,0,0,0-.24.29.49.49,0,0,0,.23.56.36.36,0,0,0,.43-.45.33.33,0,1,0-.12.4.38.38,0,0,0-.13-.64.51.51,0,0,0-.6.39.45.45,0,0,0,.16.45.29.29,0,0,0,.42-.12c.05-.16-.14-.34-.28-.26a.19.19,0,0,0,.05.34"/><path class="cls-1" d="M230.2,192.7l-.09.42a.41.41,0,0,0,.35-.68c-.26-.23-.75.12-.62.44a.35.35,0,0,0,.57.11c.14-.18-.1-.51-.31-.4a.48.48,0,0,0,.05.35.35.35,0,0,0,.33-.05c0-.27-.48-.32-.54-.06a.42.42,0,0,0,.29.24"/><path class="cls-1" d="M182.07,189a.25.25,0,0,0-.35,0c-.05.27,0,.67.29.64s.22-.5,0-.6a.42.42,0,0,0-.5.14.31.31,0,0,0,.16.45c.18,0,.36-.21.25-.35l0,.36"/><path class="cls-1" d="M209.54,198.35c-.07-.17-.37-.11-.4.07a.29.29,0,0,0,.36.29.4.4,0,0,0,.25-.43.47.47,0,0,0-.64-.36.43.43,0,0,0,0,.7c.25.14.62-.13.53-.4a.33.33,0,0,0-.46,0,.34.34,0,0,0,.08.46.19.19,0,0,0-.08-.32"/><path class="cls-1" d="M209.31,215.62a.51.51,0,0,0-.21-.61c-.09.07.05.25.14.18-.2.05-.21.38,0,.48a.36.36,0,0,0,.48-.25.5.5,0,0,0-.26-.52.6.6,0,0,0-.26.37c0,.16.16.33.29.24"/><path class="cls-1" d="M235.53,202.52l3.7-1.38"/><path class="cls-1" d="M249.78,186.94a32.61,32.61,0,0,1,4.32-1.32"/><path class="cls-1" d="M252.81,167.82A21,21,0,0,0,255.5,171"/><path class="cls-1" d="M223.17,148.79q1.29,3,2.71,6"/><path class="cls-1" d="M173.89,159.91a52.89,52.89,0,0,1,16-1"/><path class="cls-1" d="M165.74,186.24a9.62,9.62,0,0,0,2.5-.66,86.33,86.33,0,0,1,11.38-3.24"/><path class="cls-1" d="M193.4,207.5a67.91,67.91,0,0,1,4.11-6"/><path class="cls-1" d="M205.45,179.7a20.45,20.45,0,0,1,7.72,9.91"/><path class="cls-1" d="M202.37,162.87a51.39,51.39,0,0,1,10.26-3.38"/><path class="cls-1" d="M241.87,155.46a18.37,18.37,0,0,1,10.86,7"/><path class="cls-1" d="M256.38,186.7a18.32,18.32,0,0,1,10.85,7"/><path class="cls-1" d="M237,217.93a18.31,18.31,0,0,1,10.86,7"/><path class="cls-1" d="M231,168.76c2.44,3.37,2.19,8,3.9,11.77"/><path class="cls-1" d="M223.26,217.68a1,1,0,0,0-.38-.81,31.43,31.43,0,0,0,7.9,1"/><path class="cls-1" d="M233.78,210.21a88.46,88.46,0,0,1,12,4"/><path class="cls-1" d="M196.34,218.83c2.18-3.18,5.56-5.3,8.85-7.33"/><path class="cls-1" d="M189.52,188.91c-.49,2-1.07,4-1.74,5.92"/><path class="cls-1" d="M189.72,177.76a52,52,0,0,1,6-3.57"/><path class="cls-1" d="M165.9,175.79A41.76,41.76,0,0,1,176,173.6"/><path class="cls-1" d="M208.26,152H208"/><path class="cls-1" d="M251,154.88a38.82,38.82,0,0,1,10.57-1.94"/><path class="cls-1" d="M257.28,180.51c-.06.11.18.2.23.07s-.11-.25-.24-.21a.37.37,0,0,0-.23.29.46.46,0,0,0,.23.55.36.36,0,0,0,.43-.45.35.35,0,0,0-.62.05.34.34,0,0,0,.49.36.38.38,0,0,0-.12-.64.5.5,0,0,0-.6.39.43.43,0,0,0,.16.44.3.3,0,0,0,.42-.11c.05-.16-.14-.35-.28-.27a.19.19,0,0,0,.05.34"/><path class="cls-1" d="M226.06,171.81c-.06.11.18.19.23.07s-.11-.25-.24-.22a.4.4,0,0,0-.23.3.46.46,0,0,0,.23.55.33.33,0,1,0-.19-.41.35.35,0,0,0,.5.36.38.38,0,0,0-.13-.63.49.49,0,0,0-.6.39.43.43,0,0,0,.16.44.29.29,0,0,0,.42-.12c0-.15-.14-.34-.28-.26a.19.19,0,0,0,0,.34"/><path class="cls-1" d="M230.89,163.61c-.06.12.19.2.23.07s-.11-.24-.24-.21a.37.37,0,0,0-.23.29.47.47,0,0,0,.23.55.36.36,0,0,0,.43-.45.33.33,0,1,0-.12.41.38.38,0,0,0-.13-.64.5.5,0,0,0-.6.39.43.43,0,0,0,.16.44.3.3,0,0,0,.42-.11c.05-.16-.14-.35-.28-.26a.18.18,0,0,0,.05.33"/><path class="cls-1" d="M204.82,290.41l1.91-.65a.76.76,0,0,0,.22-.11.57.57,0,0,0,.16-.26,6.08,6.08,0,0,0,.61-2.23,4.4,4.4,0,0,0,.84,1.17l.65.71a.91.91,0,0,0,.23.21.78.78,0,0,0,.31.07,8.75,8.75,0,0,0,2.22-.16L210.59,291a.72.72,0,0,0-.18.33.92.92,0,0,0,.07.36l.84,2.45a.52.52,0,0,0-.22-.45,1.71,1.71,0,0,0-.47-.23l-1.81-.64c-.75.62-1.47,1.26-2.16,1.94a13.71,13.71,0,0,0,.13-2.64.53.53,0,0,0,0-.18.39.39,0,0,0-.16-.15,10.38,10.38,0,0,1-1.7-1.33s-.06-.05-.1,0,0,.07,0,0Z"/><path class="cls-1" d="M245,328.1l2,0a.49.49,0,0,0,.24,0,.79.79,0,0,0,.25-.2,6.31,6.31,0,0,0,1.33-1.88,4.19,4.19,0,0,0,.39,1.38l.36.89a.79.79,0,0,0,.15.27.71.71,0,0,0,.27.18,8.72,8.72,0,0,0,2.14.6l-1.93,1.29a.76.76,0,0,0-.28.25.74.74,0,0,0-.06.36l0,2.59a.56.56,0,0,0-.06-.5,1.58,1.58,0,0,0-.36-.37l-1.49-1.21a28.36,28.36,0,0,0-2.68,1.09,14.87,14.87,0,0,0,1-2.45.38.38,0,0,0,0-.18.4.4,0,0,0-.11-.2,11.1,11.1,0,0,1-1.14-1.82s0-.08-.08-.07,0,.08,0,.05Z"/><path class="cls-1" d="M268,301l1.12-.69a.28.28,0,0,0,.12-.1.4.4,0,0,0,.07-.19,4.21,4.21,0,0,0,.07-1.5,2.6,2.6,0,0,0,.7.62l.51.36a.64.64,0,0,0,.18.1.5.5,0,0,0,.21,0,5.71,5.71,0,0,0,1.39-.42l-.62,1.38a.71.71,0,0,0-.06.24.49.49,0,0,0,.1.22l.88,1.44a.34.34,0,0,0-.2-.26,1,1,0,0,0-.34-.07l-1.24-.15c-.38.5-.75,1-1.09,1.54a9.93,9.93,0,0,0-.3-1.7.22.22,0,0,0,0-.11.4.4,0,0,0-.13-.07,6.39,6.39,0,0,1-1.27-.6s0,0-.06,0,0,0,0,0Z"/><path class="cls-1" d="M221.77,308l1.32,0a.47.47,0,0,0,.16,0,.37.37,0,0,0,.15-.13,4,4,0,0,0,.87-1.22,2.9,2.9,0,0,0,.26.9l.23.58a1,1,0,0,0,.1.17.44.44,0,0,0,.18.12,5.64,5.64,0,0,0,1.39.39l-1.26.84a.46.46,0,0,0-.18.16.51.51,0,0,0,0,.24l0,1.69a.35.35,0,0,0,0-.33.91.91,0,0,0-.24-.24l-1-.79c-.59.21-1.18.45-1.75.71a9,9,0,0,0,.66-1.6.14.14,0,0,0,0-.11.33.33,0,0,0-.07-.13,6.38,6.38,0,0,1-.74-1.19s0-.05-.05,0,0,0,0,0Z"/><path class="cls-1" d="M242.56,287.18l1.32,0a.44.44,0,0,0,.16,0,.35.35,0,0,0,.15-.12,4.18,4.18,0,0,0,.87-1.23,2.9,2.9,0,0,0,.26.9l.24.58a.56.56,0,0,0,.09.17.52.52,0,0,0,.18.12,5.64,5.64,0,0,0,1.39.39l-1.26.84a.48.48,0,0,0-.18.17.59.59,0,0,0,0,.23l0,1.69a.36.36,0,0,0,0-.33.91.91,0,0,0-.24-.24l-1-.79c-.6.21-1.18.45-1.76.71a9.24,9.24,0,0,0,.67-1.59.25.25,0,0,0,0-.12c0-.05,0-.09-.07-.13a7.64,7.64,0,0,1-.74-1.19s0-.05-.05,0,0,.05,0,0Z"/><path class="cls-1" d="M247.23,300.8a2.77,2.77,0,0,0-3.48,2.82,1.54,1.54,0,0,0,.3.89,2.13,2.13,0,0,0,.63.43,3.38,3.38,0,0,0,2.26.52,2.51,2.51,0,0,0,1.54-2.66,2,2,0,0,0-1.21-1.92"/><path class="cls-1" d="M230.55,294.62l-.37,0a.27.27,0,0,0,.37.2.3.3,0,1,0-.34.36c.24-.19.49-.54.27-.76s-.51,0-.58.23a1.08,1.08,0,0,0,.12.72.55.55,0,0,0,.62-.41c-.07-.19-.33-.31-.48-.17s0,.45.2.35"/><path class="cls-1" d="M264.89,285.9c-.06.12.18.2.23.07s-.11-.25-.24-.21a.36.36,0,0,0-.24.29.49.49,0,0,0,.23.55.35.35,0,0,0,.43-.45.33.33,0,1,0-.12.41.39.39,0,0,0-.12-.64.5.5,0,0,0-.6.39.43.43,0,0,0,.16.44.28.28,0,0,0,.41-.11c.06-.16-.13-.35-.28-.27a.19.19,0,0,0,.06.34"/><path class="cls-1" d="M254,315.86l-.09.42c.34.09.61-.45.35-.68s-.76.12-.63.45a.35.35,0,0,0,.57.11c.15-.19-.1-.52-.3-.4a.49.49,0,0,0,0,.34.38.38,0,0,0,.33,0c0-.27-.48-.32-.54-.06a.42.42,0,0,0,.29.23"/><path class="cls-1" d="M205.85,312.2a.25.25,0,0,0-.35,0c0,.27,0,.67.3.64s.22-.5,0-.6a.42.42,0,0,0-.5.14.31.31,0,0,0,.17.45c.18,0,.36-.21.24-.36l0,.36"/><path class="cls-1" d="M233.32,321.52c-.07-.17-.37-.11-.4.07a.29.29,0,0,0,.36.29.39.39,0,0,0,.25-.44.46.46,0,0,0-.63-.35.42.42,0,0,0,0,.7.38.38,0,0,0,.53-.41.33.33,0,0,0-.46.05.31.31,0,0,0,.08.45.19.19,0,0,0-.08-.32"/><path class="cls-1" d="M233.09,338.79a.5.5,0,0,0-.2-.61c-.1.07,0,.25.13.17a.28.28,0,0,0,0,.49.35.35,0,0,0,.47-.25.48.48,0,0,0-.25-.52.65.65,0,0,0-.27.37c0,.16.17.32.3.23"/><path class="cls-1" d="M259.32,325.68l3.7-1.37"/><path class="cls-1" d="M273.56,310.1a32.71,32.71,0,0,1,4.33-1.31"/><path class="cls-1" d="M276.6,291a20,20,0,0,0,2.68,3.2"/><path class="cls-1" d="M247,272c.85,2,1.76,4,2.7,6"/><path class="cls-1" d="M197.67,283.07a52.9,52.9,0,0,1,16-1"/><path class="cls-1" d="M189.53,309.4a9.06,9.06,0,0,0,2.49-.65,86.37,86.37,0,0,1,11.38-3.25"/><path class="cls-1" d="M217.18,330.66a71.78,71.78,0,0,1,4.11-6"/><path class="cls-1" d="M229.24,302.86a20.61,20.61,0,0,1,7.72,9.91"/><path class="cls-1" d="M226.16,286a50.67,50.67,0,0,1,10.25-3.38"/><path class="cls-1" d="M265.66,278.63a18.41,18.41,0,0,1,10.85,7"/><path class="cls-1" d="M280.16,309.86a18.32,18.32,0,0,1,10.85,7"/><path class="cls-1" d="M260.78,341.09a18.38,18.38,0,0,1,10.85,7"/><path class="cls-1" d="M254.75,291.93c2.44,3.36,2.19,8,3.91,11.77"/><path class="cls-1" d="M247.05,340.85a1,1,0,0,0-.38-.82,31.43,31.43,0,0,0,7.9,1"/><path class="cls-1" d="M257.57,333.38a90.3,90.3,0,0,1,12,4"/><path class="cls-1" d="M220.12,342c2.18-3.19,5.57-5.3,8.86-7.33"/><path class="cls-1" d="M213.3,312.08q-.74,3-1.74,5.92"/><path class="cls-1" d="M213.51,300.93a51.83,51.83,0,0,1,6-3.57"/><path class="cls-1" d="M189.69,299a42.66,42.66,0,0,1,10.05-2.19"/><path class="cls-1" d="M232.05,275.2h-.25"/><path class="cls-1" d="M274.77,278a39.21,39.21,0,0,1,10.57-1.94"/></g></mask></defs><g class="cls-2"><path class="cls-3" d="M399.64,109.81c-124.4-17.25-171.8,5.45-191.09,31.63C200,153.1,185.48,181,165.06,180.53c-14.18-.31-18.19-14-32.07-19.76C89.56,142.66-1.76,222,10.86,256.09,16,270,37.43,273.83,52.15,276.3,172.53,296.49,351.88,313.58,399.64,318Z"/></g></svg>