<svg viewBox="0 0 400 400" xmlns="http://www.w3.org/2000/svg"><path d="m88.65 337.55 196 28.81 47.66-304.36s-1.38-3.88-3.65-3.85-193.33-30.4-193.33-30.4z" fill="#ead6b6"/><path d="m115.73 275.23 160.72 25.59 33.76-212.05-163.88-26.1z" fill="#fff"/><g fill="#16172c"><path d="m231.87 194.43a.11.11 0 1 0 0-.22.11.11 0 0 0 0 .22z"/><path d="m240.42 208.36a.41.41 0 0 0 0-.81.41.41 0 0 0 0 .81z"/><path d="m201.09 148.56-.15.13c-.05 0 0 .12.07.09l.17-.11a.07.07 0 0 0 0-.11.08.08 0 0 0 -.11 0z"/><path d="m172.4 116.19.09-.06a.26.26 0 0 0 .12-.12.15.15 0 0 0 0-.17.16.16 0 0 0 -.16 0h-.08l-.07.05-.08.07a.17.17 0 0 0 0 .21.17.17 0 0 0 .21 0z"/></g><path d="m163.17 266.67s41 14.25 71.64 11.36l4.64-29.25-71.64-11.36z" fill="#6e1b57"/><path d="m161.26 238.17 21.69 8.03 39.42 6.25 23.56-.85-9.93-19.95-.34-67.33-38.53-6.11-19.22 63.31z" fill="#001c57"/><path d="m182.95 246.2 39.42 6.25-4.74-19.45 7.48-67.73-18.3-2.9-12.59 67.3z" fill="#ead6b6"/><path d="m194.15 158.81s25.52 10.44 44.76 7.1c0 0 10-28.55-17.22-35.1s-27.54 28-27.54 28z" fill="#6e1b57"/><path d="m199.39 217.64 16.86 2.67s4.86-19.07-5.51-19.61-11.35 16.94-11.35 16.94z" fill="#6e1b57"/><path d="m203.55 214.81 9.39 1.49s2.7-10.62-3.07-10.93-6.32 9.44-6.32 9.44z" fill="#001d56" stroke="#001d56" stroke-miterlimit="10"/><path d="m208.55 181.71 9.64 1.53s2.81-10.9-3.19-11.24-6.45 9.71-6.45 9.71z" fill="#6e1b57"/><path d="m210.92 180.1 5.38.85s1.54-6.08-1.76-6.25-3.62 5.4-3.62 5.4z" fill="#001d56" stroke="#001d56" stroke-miterlimit="10"/><path d="m192 274.38s-.09-22.57 10.13-19.79 3.7 22 3.7 22a83.2 83.2 0 0 1 -13.83-2.21z" fill="#ead6b6"/><path d="m195.66 264.6h-.06a.79.79 0 0 0 -.43 0 .59.59 0 0 0 -.28.15.52.52 0 0 0 -.21.23.81.81 0 0 0 -.11.41v.06.23l.09.21.14.18.17.13.21.09h.23.23a.77.77 0 0 0 .3-.15 1.17 1.17 0 0 0 .27-.35.43.43 0 0 0 .06-.22.45.45 0 0 0 0-.23.43.43 0 0 0 -.06-.22.35.35 0 0 0 -.12-.19.39.39 0 0 0 -.15-.16.67.67 0 0 0 -.3-.16z" fill="#001c57"/></svg>