<svg id="Laag_1" data-name="Laag 1" xmlns="http://www.w3.org/2000/svg" xmlns:xlink="http://www.w3.org/1999/xlink" viewBox="0 0 400 400"><defs><style>.cls-1{fill:#b4b2a9;stroke:#b4b2a9;stroke-miterlimit:10;}.cls-2{fill:#e57897;}.cls-3{fill:#fff;}.cls-4{mask:url(#mask);}.cls-5{fill:#001c56;}.cls-6{filter:url(#luminosity-invert-noclip);}</style><filter id="luminosity-invert-noclip" x="79.43" y="5.16" width="386.07" height="358.38" filterUnits="userSpaceOnUse" color-interpolation-filters="sRGB"><feColorMatrix values="-1 0 0 0 1 0 -1 0 0 1 0 0 -1 0 1 0 0 0 1 0" result="invert"/><feFlood flood-color="#fff" result="bg"/><feBlend in="invert" in2="bg"/></filter><mask id="mask" x="79.43" y="5.16" width="386.07" height="358.38" maskUnits="userSpaceOnUse"><g class="cls-6"><path class="cls-1" d="M295.77,36.94l2,1.14a1.19,1.19,0,0,0,.26.11,1.07,1.07,0,0,0,.35-.06A7.38,7.38,0,0,0,300.68,37a4.87,4.87,0,0,0-.37,1.57l-.12,1.08a.77.77,0,0,0,.17.68,9.89,9.89,0,0,0,1.79,1.75l-2.61.22a1,1,0,0,0-.41.1.93.93,0,0,0-.26.33l-1.45,2.54a.62.62,0,0,0,.22-.53,1.86,1.86,0,0,0-.16-.57l-.81-2c-1.07-.18-2.16-.31-3.25-.39a15.54,15.54,0,0,0,2.34-1.86.41.41,0,0,0,.12-.17.43.43,0,0,0,0-.25,11.59,11.59,0,0,1-.13-2.43s0-.09-.05-.1,0,.08,0,0Z"/><path class="cls-1" d="M293.76,99.1l1.47,1.73a.72.72,0,0,0,.2.19.7.7,0,0,0,.35.06,7,7,0,0,0,2.59-.27,4.74,4.74,0,0,0-.88,1.36l-.48,1a.82.82,0,0,0-.12.33.75.75,0,0,0,.05.36,10,10,0,0,0,1.08,2.26l-2.53-.68a.85.85,0,0,0-.42,0,.84.84,0,0,0-.35.21l-2.22,1.9a.62.62,0,0,0,.38-.42,1.67,1.67,0,0,0,0-.59l-.08-2.16c-.95-.53-1.93-1-2.92-1.47a15.73,15.73,0,0,0,2.83-1,.37.37,0,0,0,.26-.35,11.35,11.35,0,0,1,.7-2.33.11.11,0,0,0,0-.11s-.07.06,0,0Z"/><path class="cls-1" d="M333.9,98.4l1.41.43a.58.58,0,0,0,.18,0,.5.5,0,0,0,.21-.09A4.75,4.75,0,0,0,337,97.72a3.08,3.08,0,0,0,0,1l.08.71a.87.87,0,0,0,0,.22.52.52,0,0,0,.15.18,6.86,6.86,0,0,0,1.39.86l-1.62.51a.55.55,0,0,0-.25.13.68.68,0,0,0-.12.24l-.55,1.82a.41.41,0,0,0,.06-.36,1.14,1.14,0,0,0-.19-.34l-.8-1.16c-.71,0-1.42.12-2.12.23a10.64,10.64,0,0,0,1.22-1.53.31.31,0,0,0,.05-.12.29.29,0,0,0,0-.16,7.34,7.34,0,0,1-.44-1.52.07.07,0,0,0,0-.07s0,.06,0,0Z"/><path class="cls-1" d="M293.48,64.43l1,1.13a.4.4,0,0,0,.13.13.57.57,0,0,0,.22,0,4.78,4.78,0,0,0,1.69-.18,3.25,3.25,0,0,0-.57.88l-.32.64a.86.86,0,0,0-.07.21.66.66,0,0,0,0,.24,6.43,6.43,0,0,0,.71,1.47l-1.65-.44a.53.53,0,0,0-.28,0,.62.62,0,0,0-.23.14l-1.44,1.24a.38.38,0,0,0,.24-.28,1,1,0,0,0,0-.38l-.05-1.41a20,20,0,0,0-1.91-1,11.21,11.21,0,0,0,1.85-.63.28.28,0,0,0,.11-.08A.25.25,0,0,0,293,66a8,8,0,0,1,.45-1.52s0-.06,0-.07-.05,0,0,0Z"/><path class="cls-1" d="M326.63,66.53l.95,1.13a.44.44,0,0,0,.14.13.85.85,0,0,0,.22,0,4.78,4.78,0,0,0,1.69-.18,3.25,3.25,0,0,0-.57.88l-.32.64a.86.86,0,0,0-.07.21.66.66,0,0,0,0,.24,6.43,6.43,0,0,0,.71,1.47l-1.65-.44a.54.54,0,0,0-.28,0,.55.55,0,0,0-.23.14L325.8,72a.39.39,0,0,0,.25-.28,1,1,0,0,0,0-.38L326,69.93c-.62-.35-1.26-.67-1.91-1a11.17,11.17,0,0,0,1.85-.62.27.27,0,0,0,.17-.23,8,8,0,0,1,.45-1.52s0-.06,0-.07,0,0,0,0Z"/><path class="cls-1" d="M318.57,80.63a3.14,3.14,0,0,0-5-.84,1.63,1.63,0,0,0-.53.92,2.26,2.26,0,0,0,.11.85,3.79,3.79,0,0,0,1.24,2.3c1,.71,2.5.2,3.4-.67a2.25,2.25,0,0,0,.73-2.46"/><path class="cls-1" d="M311.38,61.89l-.31-.29a.29.29,0,0,0,.11.46.34.34,0,1,0-.56,0c.34.06.82,0,.84-.33s-.36-.45-.62-.33a1.29,1.29,0,0,0-.53.64.62.62,0,0,0,.82.22.37.37,0,0,0-.22-.54c-.23,0-.36.37-.15.44"/><path class="cls-1" d="M344.35,84.5c-.14,0,0,.3.11.24s.13-.27,0-.36a.42.42,0,0,0-.42,0,.54.54,0,0,0-.3.61.4.4,0,0,0,.7,0,.39.39,0,0,0-.5-.49.39.39,0,0,0,.06.69.44.44,0,0,0,.45-.59.56.56,0,0,0-.78-.21.47.47,0,0,0-.25.46.32.32,0,0,0,.41.27c.17-.07.19-.37,0-.43s-.34.15-.25.3"/><path class="cls-1" d="M310.83,97.59l-.42.23a.44.44,0,1,0,0-.4.39.39,0,0,0,.33.56c.26,0,.36-.47.11-.55a.53.53,0,0,0-.26.29.39.39,0,0,0,.29.24c.22-.19-.1-.64-.36-.49a.46.46,0,0,0,0,.41"/><path class="cls-1" d="M278.07,54.06a.3.3,0,0,0-.25-.32c-.26.17-.55.52-.32.73s.59-.18.48-.47a.46.46,0,0,0-.49-.32.34.34,0,0,0-.26.47.28.28,0,0,0,.49,0l-.33.24"/><path class="cls-1" d="M290.64,84.29c.09-.19-.18-.4-.36-.29a.33.33,0,0,0,0,.52.45.45,0,0,0,.56-.11.53.53,0,0,0-.18-.8.46.46,0,0,0-.61.48.42.42,0,0,0,.73.15.37.37,0,0,0-.38-.35.38.38,0,0,0-.33.4.21.21,0,0,0,.21-.3"/><path class="cls-1" d="M275.83,97a.56.56,0,0,0,.36-.63c-.13,0-.17.23,0,.25-.2-.13-.49.11-.43.34a.4.4,0,0,0,.57.22.57.57,0,0,0,.24-.61.64.64,0,0,0-.51.06c-.15.1-.15.38,0,.42"/><path class="cls-1" d="M306.48,109.42l3.93,2.12"/><path class="cls-1" d="M330.31,109.89a35.88,35.88,0,0,1,4.33,2.69"/><path class="cls-1" d="M348.77,98.21a22.91,22.91,0,0,0-.7,4.66"/><path class="cls-1" d="M342.81,58.91c-1.08,2.24-2.12,4.5-3.1,6.79"/><path class="cls-1" d="M296.65,25.42a59.8,59.8,0,0,1,12.8,12.76"/><path class="cls-1" d="M268.27,38.14a10.71,10.71,0,0,0,2.41,1.62A97.14,97.14,0,0,1,281.91,47"/><path class="cls-1" d="M270.86,77.42a79.2,79.2,0,0,1,8.12-1"/><path class="cls-1" d="M303.41,66.92a23.17,23.17,0,0,1-2.65,13.93"/><path class="cls-1" d="M315.37,51.77a57.67,57.67,0,0,1,10.51,6.17"/><path class="cls-1" d="M351.09,79.73a20.74,20.74,0,0,1,2.15,14.42"/><path class="cls-1" d="M331.69,80.4c-1,4.57-5.13,7.8-7.06,12.08"/><path class="cls-1" d="M284.49,110.33a1.11,1.11,0,0,0,.4-.93,35.72,35.72,0,0,0,5.06,7.43"/><path class="cls-1" d="M298.65,113.68a99.21,99.21,0,0,1,5.55,13.15"/><path class="cls-1" d="M263.44,88.36c4.33-.52,8.65.77,12.81,2"/><path class="cls-1" d="M283.72,60.29c-2.06,1.07-4.17,2.05-6.31,2.93"/><path class="cls-1" d="M293.32,52.15a58.69,58.69,0,0,1,7.51,2.43"/><path class="cls-1" d="M277.24,30.49a47.12,47.12,0,0,1,9.35,6.89"/><path class="cls-1" d="M329,48.68l-.19-.2"/><path class="cls-1" d="M358.38,87a44.64,44.64,0,0,1,9.52,7.52"/><path class="cls-1" d="M213.34,169.36l2.56,1.48a1.06,1.06,0,0,0,.33.14,1,1,0,0,0,.45-.08,9.15,9.15,0,0,0,3-1.48,6.45,6.45,0,0,0-.47,2.05l-.16,1.4a1.36,1.36,0,0,0,0,.45,1.3,1.3,0,0,0,.22.42,13.59,13.59,0,0,0,2.32,2.29l-3.38.28a1.11,1.11,0,0,0-.54.13,1.2,1.2,0,0,0-.34.43l-1.87,3.29a.79.79,0,0,0,.28-.68,2.41,2.41,0,0,0-.21-.74l-1-2.6c-1.4-.24-2.81-.4-4.22-.5a20.82,20.82,0,0,0,3-2.43.68.68,0,0,0,.17-.21.74.74,0,0,0,0-.33,15.11,15.11,0,0,1-.18-3.15c0-.05,0-.12-.06-.14s0,.1,0,.08Z"/><path class="cls-1" d="M210.74,250.1l1.91,2.25a1,1,0,0,0,.26.25,1.16,1.16,0,0,0,.45.08,9.3,9.3,0,0,0,3.37-.36,6.35,6.35,0,0,0-1.15,1.77l-.62,1.26a1.4,1.4,0,0,0-.16.43,1.1,1.1,0,0,0,.07.47,12.93,12.93,0,0,0,1.4,2.93L213,258.3a1.16,1.16,0,0,0-.55-.06,1.3,1.3,0,0,0-.46.28L209.1,261a.82.82,0,0,0,.49-.55,2.21,2.21,0,0,0,.06-.77l-.1-2.8c-1.24-.7-2.51-1.33-3.8-1.91a20.62,20.62,0,0,0,3.67-1.25.49.49,0,0,0,.23-.14.68.68,0,0,0,.11-.31,15.23,15.23,0,0,1,.91-3c0-.05,0-.12,0-.15s-.09.07,0,.06Z"/><path class="cls-1" d="M262.87,249.19l1.84.57a1,1,0,0,0,.23,0,.63.63,0,0,0,.28-.12,5.92,5.92,0,0,0,1.72-1.38,4,4,0,0,0,0,1.38l.1.91a1,1,0,0,0,.07.29.63.63,0,0,0,.2.23,8.35,8.35,0,0,0,1.8,1.12l-2.11.67a1,1,0,0,0-.32.16.78.78,0,0,0-.15.32l-.72,2.37a.54.54,0,0,0,.08-.48,1.88,1.88,0,0,0-.24-.44l-1-1.5c-.93,0-1.85.15-2.76.29a13.59,13.59,0,0,0,1.58-2,.37.37,0,0,0,.07-.16.39.39,0,0,0,0-.21,9.75,9.75,0,0,1-.57-2s0-.08-.05-.08,0,.07,0,0Z"/><path class="cls-1" d="M210.37,205.07l1.25,1.47a.65.65,0,0,0,.17.16.58.58,0,0,0,.29.05,6.26,6.26,0,0,0,2.2-.23,4,4,0,0,0-.75,1.15l-.41.82a.94.94,0,0,0-.1.28.83.83,0,0,0,0,.31A8.62,8.62,0,0,0,214,211l-2.14-.57a.64.64,0,0,0-.36,0,.92.92,0,0,0-.3.18l-1.88,1.61a.54.54,0,0,0,.33-.36,1.67,1.67,0,0,0,0-.5l-.06-1.82c-.81-.46-1.64-.87-2.48-1.25a13.46,13.46,0,0,0,2.39-.81.4.4,0,0,0,.15-.1.44.44,0,0,0,.08-.2,9.87,9.87,0,0,1,.58-2s0-.07,0-.09-.06,0,0,0Z"/><path class="cls-1" d="M253.43,207.8l1.25,1.47a.65.65,0,0,0,.17.16.71.71,0,0,0,.29,0,6,6,0,0,0,2.19-.24,4.19,4.19,0,0,0-.74,1.15l-.41.83a.94.94,0,0,0-.1.28.78.78,0,0,0,0,.3,8.48,8.48,0,0,0,.92,1.92l-2.14-.58a.74.74,0,0,0-.36,0,.67.67,0,0,0-.3.18l-1.88,1.61a.54.54,0,0,0,.33-.36,1.67,1.67,0,0,0,0-.5l-.06-1.83c-.81-.45-1.64-.87-2.48-1.24a13.49,13.49,0,0,0,2.39-.82.38.38,0,0,0,.15-.09.5.5,0,0,0,.08-.2,9.5,9.5,0,0,1,.58-2s0-.08,0-.1-.06.05,0,0Z"/><path class="cls-1" d="M243,226.11a4.07,4.07,0,0,0-6.48-1.09,2.15,2.15,0,0,0-.68,1.19,2.83,2.83,0,0,0,.14,1.11,4.88,4.88,0,0,0,1.61,3c1.35.91,3.25.25,4.41-.88.85-.83,1.49-2.13.95-3.19"/><path class="cls-1" d="M233.62,201.77l-.39-.38a.39.39,0,0,0,.14.6.48.48,0,0,0-.35-.72.47.47,0,0,0-.38.69c.44.08,1.06,0,1.1-.43s-.48-.57-.82-.42a1.61,1.61,0,0,0-.68.83.81.81,0,0,0,1.06.28.47.47,0,0,0-.29-.69c-.29,0-.47.47-.19.57"/><path class="cls-1" d="M276.46,231.13c-.19.05,0,.39.14.32s.17-.36,0-.46a.54.54,0,0,0-.55,0,.69.69,0,0,0-.39.78.52.52,0,0,0,.91,0,.51.51,0,0,0-.64-.63.5.5,0,0,0,.08.89.56.56,0,0,0,.58-.75.72.72,0,0,0-1-.28.62.62,0,0,0-.33.6.42.42,0,0,0,.53.35c.22-.09.25-.49,0-.57s-.45.21-.33.39"/><path class="cls-1" d="M232.91,248.14l-.55.31a.58.58,0,1,0,0-.54.52.52,0,0,0,.43.74c.34,0,.47-.61.14-.72a.72.72,0,0,0-.33.38.52.52,0,0,0,.37.32c.29-.26-.12-.84-.46-.65a.6.6,0,0,0,0,.54"/><path class="cls-1" d="M190.35,191.59a.36.36,0,0,0-.31-.4c-.34.21-.72.67-.42.94s.76-.24.62-.62a.59.59,0,0,0-.63-.41.44.44,0,0,0-.34.61.36.36,0,0,0,.63-.07l-.43.32"/><path class="cls-1" d="M206.68,230.86c.12-.24-.23-.52-.46-.37a.41.41,0,0,0,0,.67A.57.57,0,0,0,207,231a.69.69,0,0,0-.23-1.05.62.62,0,0,0-.8.64.55.55,0,0,0,.95.19.46.46,0,1,0-.91.07.28.28,0,0,0,.27-.4"/><path class="cls-1" d="M187.45,247.33a.74.74,0,0,0,.47-.82c-.17,0-.23.29-.06.32-.25-.17-.63.14-.56.44a.52.52,0,0,0,.74.28.73.73,0,0,0,.32-.79.91.91,0,0,0-.67.08c-.18.13-.19.49,0,.54"/><path class="cls-1" d="M227.26,263.51l5.1,2.75"/><path class="cls-1" d="M258.21,264.11a46,46,0,0,1,5.63,3.5"/><path class="cls-1" d="M282.2,248.94a29.49,29.49,0,0,0-.92,6.06"/><path class="cls-1" d="M274.45,197.89q-2.11,4.37-4,8.82"/><path class="cls-1" d="M214.5,154.4A77.63,77.63,0,0,1,231.11,171"/><path class="cls-1" d="M177.62,170.91a13.4,13.4,0,0,0,3.14,2.11,127.62,127.62,0,0,1,14.59,9.4"/><path class="cls-1" d="M181,221.94a101,101,0,0,1,10.56-1.25"/><path class="cls-1" d="M223.27,208.3a30.14,30.14,0,0,1-3.44,18.1"/><path class="cls-1" d="M238.81,188.63a74.42,74.42,0,0,1,13.65,8"/><path class="cls-1" d="M285.21,224.94a27,27,0,0,1,2.8,18.73"/><path class="cls-1" d="M260,225.81c-1.35,5.94-6.66,10.14-9.18,15.69"/><path class="cls-1" d="M198.69,264.68a1.43,1.43,0,0,0,.53-1.2,45.94,45.94,0,0,0,6.57,9.65"/><path class="cls-1" d="M217.09,269a129.23,129.23,0,0,1,7.21,17.08"/><path class="cls-1" d="M171.36,236.15c5.62-.68,11.22,1,16.64,2.66"/><path class="cls-1" d="M197.7,199.68q-4,2.1-8.21,3.81"/><path class="cls-1" d="M210.17,189.11a76.43,76.43,0,0,1,9.75,3.16"/><path class="cls-1" d="M189.28,161a61.25,61.25,0,0,1,12.15,9"/><path class="cls-1" d="M256.45,184.61l-.25-.26"/><path class="cls-1" d="M294.67,234.4A57.56,57.56,0,0,1,307,244.16"/><path class="cls-1" d="M376.15,152.91l2.42,1.4a1.27,1.27,0,0,0,.32.13,1.08,1.08,0,0,0,.43-.07,8.94,8.94,0,0,0,2.89-1.41,5.61,5.61,0,0,0-.45,1.95l-.16,1.33a1.24,1.24,0,0,0,0,.43,1.16,1.16,0,0,0,.2.4,12.27,12.27,0,0,0,2.21,2.17l-3.22.27a1.06,1.06,0,0,0-.5.12,1.16,1.16,0,0,0-.33.4l-1.78,3.14a.77.77,0,0,0,.27-.65,2.5,2.5,0,0,0-.2-.71l-1-2.47c-1.32-.22-2.66-.38-4-.47a19.44,19.44,0,0,0,2.88-2.31.51.51,0,0,0,.16-.2.54.54,0,0,0,0-.31,14.26,14.26,0,0,1-.17-3c0-.05,0-.12-.05-.13s-.06.09,0,.07Z"/><path class="cls-1" d="M373.68,229.6l1.8,2.14a.82.82,0,0,0,.26.23.85.85,0,0,0,.42.08,8.81,8.81,0,0,0,3.2-.34,6.07,6.07,0,0,0-1.09,1.68l-.59,1.2a1.22,1.22,0,0,0-.15.4,1.14,1.14,0,0,0,.06.45,12.15,12.15,0,0,0,1.34,2.79l-3.12-.84a1,1,0,0,0-.52,0,1.1,1.1,0,0,0-.44.26l-2.74,2.34a.75.75,0,0,0,.47-.52,2.52,2.52,0,0,0,.06-.73l-.1-2.66c-1.18-.66-2.38-1.26-3.61-1.81a18.66,18.66,0,0,0,3.49-1.19.61.61,0,0,0,.22-.13.59.59,0,0,0,.1-.29,15.15,15.15,0,0,1,.86-2.88s0-.11,0-.14-.09.07,0,.06Z"/><path class="cls-1" d="M373.32,186.83l1.18,1.39a.49.49,0,0,0,.17.15.52.52,0,0,0,.28,0,5.6,5.6,0,0,0,2.08-.22,4.07,4.07,0,0,0-.71,1.1l-.39.78a.8.8,0,0,0-.09.26.78.78,0,0,0,0,.3,8.37,8.37,0,0,0,.87,1.81l-2-.54a.8.8,0,0,0-.34,0,.74.74,0,0,0-.29.18l-1.78,1.52a.47.47,0,0,0,.3-.34,1.47,1.47,0,0,0,0-.47l-.06-1.74c-.77-.43-1.56-.82-2.36-1.18a12.24,12.24,0,0,0,2.28-.77.67.67,0,0,0,.14-.09.49.49,0,0,0,.07-.19,9.66,9.66,0,0,1,.56-1.88s0-.07,0-.09,0,.05,0,0Z"/><path class="cls-1" d="M404.28,206.82a3.87,3.87,0,0,0-6.16-1,2,2,0,0,0-.64,1.13,2.69,2.69,0,0,0,.13,1.05,4.69,4.69,0,0,0,1.53,2.84c1.28.87,3.09.24,4.19-.83.81-.79,1.42-2,.9-3"/><path class="cls-1" d="M395.41,183.69l-.38-.36a.37.37,0,0,0,.14.57.43.43,0,1,0-.7,0c.42.07,1,0,1-.41s-.46-.55-.77-.41a1.61,1.61,0,0,0-.66.79.77.77,0,0,0,1,.27.46.46,0,0,0-.27-.66c-.28,0-.45.45-.18.54"/><path class="cls-1" d="M394.74,227.74l-.53.29a.55.55,0,1,0,0-.5.49.49,0,0,0,.41.7c.32,0,.44-.59.13-.69a.65.65,0,0,0-.31.36.47.47,0,0,0,.35.3c.28-.24-.11-.79-.44-.61a.57.57,0,0,0,0,.51"/><path class="cls-1" d="M354.31,174a.36.36,0,0,0-.3-.39c-.33.2-.68.64-.4.9s.72-.23.59-.59a.59.59,0,0,0-.6-.4.43.43,0,0,0-.32.59c.12.23.55.19.59-.07l-.4.3"/><path class="cls-1" d="M369.82,211.33c.11-.23-.23-.49-.44-.36a.39.39,0,0,0,0,.64.54.54,0,0,0,.68-.13.67.67,0,0,0-.21-1,.6.6,0,0,0-.77.61.53.53,0,0,0,.91.18.44.44,0,1,0-.87.07.27.27,0,0,0,.26-.39"/><path class="cls-1" d="M351.55,227a.72.72,0,0,0,.45-.78c-.17,0-.22.28-.06.31-.24-.16-.6.13-.53.41a.49.49,0,0,0,.7.27.72.72,0,0,0,.31-.75.88.88,0,0,0-.64.07c-.18.13-.19.47,0,.52"/><path class="cls-1" d="M389.37,242.34l4.84,2.61"/><path class="cls-1" d="M377.24,138.69A73.88,73.88,0,0,1,393,154.43"/><path class="cls-1" d="M342.21,154.38a13,13,0,0,0,3,2,120,120,0,0,1,13.85,8.92"/><path class="cls-1" d="M345.41,202.85a96.57,96.57,0,0,1,10-1.18"/><path class="cls-1" d="M385.57,189.9a28.5,28.5,0,0,1-3.27,17.18"/><path class="cls-1" d="M362.23,243.46a1.39,1.39,0,0,0,.5-1.15,43.92,43.92,0,0,0,6.24,9.17"/><path class="cls-1" d="M379.71,247.59a122.86,122.86,0,0,1,6.85,16.23"/><path class="cls-1" d="M336.26,216.35c5.34-.64,10.67,1,15.81,2.52"/><path class="cls-1" d="M361.28,181.71q-3.81,2-7.79,3.62"/><path class="cls-1" d="M373.13,171.67a71.42,71.42,0,0,1,9.26,3"/><path class="cls-1" d="M353.29,144.94a58.94,58.94,0,0,1,11.54,8.5"/><path class="cls-1" d="M292.73,235.78l2.8,1.61a1.14,1.14,0,0,0,.36.15,1.18,1.18,0,0,0,.49-.08,10.31,10.31,0,0,0,3.33-1.62,6.55,6.55,0,0,0-.52,2.24l-.18,1.53a1.61,1.61,0,0,0,0,.49,1.5,1.5,0,0,0,.24.47,14.61,14.61,0,0,0,2.54,2.49l-3.7.31a1.28,1.28,0,0,0-.58.15,1.05,1.05,0,0,0-.37.46l-2.05,3.6a.87.87,0,0,0,.3-.75,2.57,2.57,0,0,0-.22-.81L294,243.18q-2.29-.37-4.62-.54a22.38,22.38,0,0,0,3.32-2.66.68.68,0,0,0,.18-.23.69.69,0,0,0,0-.35,17.34,17.34,0,0,1-.2-3.45c0-.06,0-.13-.06-.15s-.06.11,0,.08Z"/><path class="cls-1" d="M289.89,324l2.08,2.46a.93.93,0,0,0,.29.27,1,1,0,0,0,.49.09,10.12,10.12,0,0,0,3.68-.39,6.54,6.54,0,0,0-1.25,1.93l-.69,1.38a1.31,1.31,0,0,0-.16.47,1.13,1.13,0,0,0,.07.51,14.1,14.1,0,0,0,1.53,3.21l-3.58-1a1.37,1.37,0,0,0-.6-.06,1.17,1.17,0,0,0-.51.31l-3.15,2.69a.86.86,0,0,0,.54-.6,2.63,2.63,0,0,0,.06-.84l-.11-3.06c-1.35-.76-2.74-1.45-4.15-2.08a23,23,0,0,0,4-1.37.67.67,0,0,0,.25-.16.73.73,0,0,0,.12-.33,16.15,16.15,0,0,1,1-3.31c0-.05,0-.12,0-.16s-.1.08,0,.07Z"/><path class="cls-1" d="M346.86,323l2,.63a.73.73,0,0,0,.25,0,.79.79,0,0,0,.3-.12,6.81,6.81,0,0,0,1.89-1.51,4.2,4.2,0,0,0,0,1.5l.11,1a.78.78,0,0,0,.07.31.7.7,0,0,0,.22.26,9.26,9.26,0,0,0,2,1.22l-2.31.73a.73.73,0,0,0-.35.18.82.82,0,0,0-.17.35l-.78,2.58a.56.56,0,0,0,.08-.52,1.49,1.49,0,0,0-.26-.48l-1.14-1.64c-1,.06-2,.16-3,.31a15,15,0,0,0,1.73-2.16.53.53,0,0,0,.08-.17.46.46,0,0,0-.05-.23,10.87,10.87,0,0,1-.62-2.16s0-.09-.06-.09,0,.08,0,0Z"/><path class="cls-1" d="M289.49,274.8l1.35,1.61a1,1,0,0,0,.19.17.7.7,0,0,0,.32.06,6.67,6.67,0,0,0,2.4-.26,4.38,4.38,0,0,0-.81,1.26l-.45.9a.89.89,0,0,0-.11.31.76.76,0,0,0,.05.33,9.12,9.12,0,0,0,1,2.09l-2.34-.63a.61.61,0,0,0-.72.16l-2.05,1.76a.57.57,0,0,0,.35-.39,1.68,1.68,0,0,0,0-.55l-.07-2c-.89-.5-1.79-.95-2.71-1.36a14.71,14.71,0,0,0,2.62-.89.46.46,0,0,0,.16-.11.54.54,0,0,0,.08-.21,10.74,10.74,0,0,1,.64-2.16s0-.08,0-.1-.07.05,0,0Z"/><path class="cls-1" d="M336.54,277.78l1.36,1.61a.77.77,0,0,0,.19.17.7.7,0,0,0,.32.06,6.67,6.67,0,0,0,2.4-.26,4.64,4.64,0,0,0-.82,1.26l-.44.9a.91.91,0,0,0-.11.3.78.78,0,0,0,0,.34,9.16,9.16,0,0,0,1,2.09l-2.34-.63a.61.61,0,0,0-.72.16l-2.06,1.76a.59.59,0,0,0,.36-.39,2,2,0,0,0,0-.55l-.08-2c-.88-.49-1.78-.94-2.71-1.35a15,15,0,0,0,2.62-.89.62.62,0,0,0,.17-.11.54.54,0,0,0,.08-.21,10.74,10.74,0,0,1,.64-2.16s0-.08,0-.11-.07.06,0,.05Z"/><path class="cls-1" d="M287.8,202.25a4.45,4.45,0,0,0-7.08-1.19,2.28,2.28,0,0,0-.75,1.29,3.11,3.11,0,0,0,.16,1.21,5.39,5.39,0,0,0,1.76,3.28c1.47,1,3.55.27,4.82-1,.93-.9,1.63-2.32,1-3.49"/><path class="cls-1" d="M314.89,271.19l-.43-.41a.42.42,0,0,0,.15.65.51.51,0,0,0-.37-.78.52.52,0,0,0-.43.76c.49.08,1.17,0,1.21-.47s-.52-.64-.89-.47a1.74,1.74,0,0,0-.75.91.89.89,0,0,0,1.16.31.53.53,0,0,0-.31-.76c-.32,0-.52.51-.21.62"/><path class="cls-1" d="M361.71,303.28c-.21.05,0,.43.15.35s.18-.39,0-.51a.59.59,0,0,0-.6,0,.77.77,0,0,0-.43.86.57.57,0,0,0,1,0,.56.56,0,0,0-.7-.7.55.55,0,0,0,.08,1c.42.11.81-.43.64-.82a.79.79,0,0,0-1.1-.31.72.72,0,0,0-.37.66.47.47,0,0,0,.58.38.35.35,0,0,0,0-.62.31.31,0,0,0-.35.43"/><path class="cls-1" d="M314.12,321.87l-.6.33a.67.67,0,0,0,1.19-.29.67.67,0,0,0-1.2-.29.57.57,0,0,0,.47.81c.38,0,.51-.67.16-.79a.71.71,0,0,0-.36.42.55.55,0,0,0,.4.34c.32-.28-.13-.91-.5-.71a.67.67,0,0,0,0,.6"/><path class="cls-1" d="M267.61,260.07a.41.41,0,0,0-.35-.44c-.37.23-.78.73-.46,1s.84-.26.69-.68a.68.68,0,0,0-.7-.45.49.49,0,0,0-.37.67.39.39,0,0,0,.69-.07l-.47.34"/><path class="cls-1" d="M285.45,303c.13-.26-.26-.57-.5-.41a.46.46,0,0,0,0,.74.65.65,0,0,0,.79-.16.75.75,0,0,0-.25-1.14.67.67,0,0,0-.88.69.6.6,0,0,0,1,.21.5.5,0,1,0-1,.08.31.31,0,0,0,.3-.44"/><path class="cls-1" d="M264.43,321a.82.82,0,0,0,.52-.9c-.19,0-.25.33-.07.36-.27-.19-.69.15-.61.48a.58.58,0,0,0,.81.31.8.8,0,0,0,.35-.86,1,1,0,0,0-.73.08c-.21.14-.22.53,0,.59"/><path class="cls-1" d="M307.94,338.67l5.58,3"/><path class="cls-1" d="M341.77,339.33a52,52,0,0,1,6.15,3.81"/><path class="cls-1" d="M368,322.75a32.81,32.81,0,0,0-1,6.61"/><path class="cls-1" d="M359.51,267q-2.29,4.77-4.4,9.63"/><path class="cls-1" d="M294,219.42a84.75,84.75,0,0,1,18.16,18.11"/><path class="cls-1" d="M253.69,237.47a14.7,14.7,0,0,0,3.44,2.31A139.87,139.87,0,0,1,273.07,250"/><path class="cls-1" d="M257.37,293.24a111.75,111.75,0,0,1,11.54-1.37"/><path class="cls-1" d="M303.58,278.33a32.92,32.92,0,0,1-3.76,19.78"/><path class="cls-1" d="M320.56,256.83a81.15,81.15,0,0,1,14.92,8.76"/><path class="cls-1" d="M371.27,296.52A29.47,29.47,0,0,1,374.33,317"/><path class="cls-1" d="M343.73,297.46c-1.47,6.5-7.28,11.08-10,17.15"/><path class="cls-1" d="M276.72,340a1.59,1.59,0,0,0,.58-1.32,50.39,50.39,0,0,0,7.18,10.55"/><path class="cls-1" d="M296.83,344.71a141.64,141.64,0,0,1,7.88,18.67"/><path class="cls-1" d="M246.84,308.77c6.15-.75,12.28,1.09,18.19,2.9"/><path class="cls-1" d="M275.63,268.91q-4.38,2.29-9,4.16"/><path class="cls-1" d="M289.26,257.36a83.31,83.31,0,0,1,10.66,3.45"/><path class="cls-1" d="M266.44,226.61a67.7,67.7,0,0,1,13.27,9.79"/><path class="cls-1" d="M339.84,252.45l-.28-.3"/><path class="cls-1" d="M381.61,306.86a62.81,62.81,0,0,1,13.52,10.66"/><path class="cls-1" d="M231.88,141.61l2.94-2.05a1.14,1.14,0,0,0,.32-.3,1.06,1.06,0,0,0,.15-.53,11.35,11.35,0,0,0,0-4.11,7.51,7.51,0,0,0,2,1.58l1.46.9a1.42,1.42,0,0,0,.5.23,1.26,1.26,0,0,0,.58,0,16.08,16.08,0,0,0,3.71-1.37l-1.44,3.87a1,1,0,0,0,.16,1.24l2.65,3.77a1,1,0,0,0-.6-.66,2.87,2.87,0,0,0-.92-.16l-3.41-.19c-1,1.42-1.89,2.89-2.73,4.39a25,25,0,0,0-1.1-4.59.67.67,0,0,0-.15-.29.76.76,0,0,0-.35-.17,18,18,0,0,1-3.56-1.43c-.06,0-.14-.06-.18,0s.08.11.07,0Z"/><path class="cls-1" d="M319.3,186.19l3.46-.93a1,1,0,0,0,.41-.16,1.2,1.2,0,0,0,.32-.45,11.2,11.2,0,0,0,1.35-3.89,7.24,7.24,0,0,0,1.35,2.17l1.06,1.35a2.06,2.06,0,0,0,.39.39,1.53,1.53,0,0,0,.55.17,15.91,15.91,0,0,0,4,0L329.48,188a1.36,1.36,0,0,0-.35.57,1.5,1.5,0,0,0,.07.66l1.22,4.44a1,1,0,0,0-.35-.83,2.93,2.93,0,0,0-.81-.46L326.13,191q-2.11,1.5-4.06,3.19a24.59,24.59,0,0,0,.52-4.69.58.58,0,0,0,0-.32.75.75,0,0,0-.28-.28,19.25,19.25,0,0,1-2.86-2.56s-.1-.1-.16-.07,0,.13.05.07Z"/><path class="cls-1" d="M345.24,128.4l1.58-1.72a.78.78,0,0,0,.16-.24.87.87,0,0,0,0-.36,7.19,7.19,0,0,0-.63-2.6,4.87,4.87,0,0,0,1.51.71l1.05.37a.87.87,0,0,0,.35.07,1,1,0,0,0,.37-.09,10.56,10.56,0,0,0,2.16-1.41l-.36,2.67a.68.68,0,0,0,.28.77l2.23,2a.6.6,0,0,0-.48-.33,1.79,1.79,0,0,0-.61,0l-2.19.37a32.27,32.27,0,0,0-1.1,3.18,17.67,17.67,0,0,0-1.36-2.76.54.54,0,0,0-.14-.16.46.46,0,0,0-.25-.06,12,12,0,0,1-2.47-.4s-.1,0-.12,0,.07.06.06,0Z"/><path class="cls-1" d="M269.6,163.33l2.26-.61a.6.6,0,0,0,.26-.11.68.68,0,0,0,.21-.29,7.34,7.34,0,0,0,.88-2.53,5,5,0,0,0,.88,1.41l.7.88a1,1,0,0,0,.25.25.89.89,0,0,0,.36.11,10.13,10.13,0,0,0,2.58,0l-1.74,2.06a1,1,0,0,0-.23.37.91.91,0,0,0,.05.43l.79,2.89a.61.61,0,0,0-.22-.54,1.71,1.71,0,0,0-.53-.29l-2.05-.88c-.91.66-1.79,1.35-2.64,2.09a16.57,16.57,0,0,0,.34-3.06.49.49,0,0,0,0-.21.45.45,0,0,0-.18-.18,11.81,11.81,0,0,1-1.86-1.67s-.07-.07-.11-.05,0,.09,0,.05Z"/><path class="cls-1" d="M294.85,117.39l2.26-.6a.9.9,0,0,0,.27-.11.79.79,0,0,0,.2-.3,7.2,7.2,0,0,0,.88-2.53,4.92,4.92,0,0,0,.88,1.41l.7.88a.85.85,0,0,0,.25.25,1,1,0,0,0,.36.12,10.61,10.61,0,0,0,2.58,0l-1.74,2.05a.81.81,0,0,0-.22.38.76.76,0,0,0,0,.42l.8,2.9a.64.64,0,0,0-.23-.54,1.73,1.73,0,0,0-.53-.3l-2-.87a33.32,33.32,0,0,0-2.65,2.09,16.67,16.67,0,0,0,.34-3.06.53.53,0,0,0,0-.22.52.52,0,0,0-.18-.18,12.27,12.27,0,0,1-1.86-1.67s-.07-.06-.11,0,0,.09,0,0Z"/><path class="cls-1" d="M309.58,138.37a4.95,4.95,0,0,0-4.55,6.56,2.58,2.58,0,0,0,1,1.37,3.5,3.5,0,0,0,1.29.42c1.39.25,2.92.49,4.13-.23,1.7-1,2-3.44,1.31-5.3-.47-1.37-1.57-2.74-3-2.7"/><path class="cls-1" d="M278,136.06l-.62.24a.46.46,0,0,0,.73.15.55.55,0,1,0-.41.8c.31-.45.57-1.17.1-1.44s-.88.23-.89.68a2,2,0,0,0,.56,1.18,1,1,0,0,0,.86-1,.58.58,0,0,0-.91-.05c-.2.31.27.77.52.51"/><path class="cls-1" d="M332.41,104.14c-.05.23.41.24.43,0s-.31-.37-.52-.25a.64.64,0,0,0-.25.62.85.85,0,0,0,.66.83.63.63,0,0,0,.51-1,.58.58,0,1,0,0,.75.68.68,0,0,0-.53-1,.89.89,0,0,0-.83,1,.75.75,0,0,0,.49.67.5.5,0,0,0,.65-.4c0-.3-.4-.52-.6-.31a.34.34,0,0,0,.26.55"/><path class="cls-1" d="M328.6,160.8l.06.77a.7.7,0,1,0-.59-.27.63.63,0,0,0,1-.09c.16-.39-.43-.83-.72-.54a.86.86,0,0,0,.25.57.62.62,0,0,0,.54-.25c-.13-.45-1-.3-.95.17a.72.72,0,0,0,.61.26"/><path class="cls-1" d="M244.44,178.37a.46.46,0,0,0-.61.14c.06.49.37,1.14.82,1s.13-1-.36-1a.77.77,0,0,0-.79.49.56.56,0,0,0,.51.69.43.43,0,0,0,.25-.73l.12.63"/><path class="cls-1" d="M296.05,180.72c-.2-.26-.69,0-.65.31a.51.51,0,0,0,.76.32.72.72,0,0,0,.22-.87.85.85,0,0,0-1.27-.29.75.75,0,0,0,.28,1.21.67.67,0,0,0,.7-1,.56.56,0,1,0-.39,1.05.35.35,0,0,0-.31-.51"/><path class="cls-1" d="M304.21,210.37a.9.9,0,0,0-.65-.94c-.13.17.2.4.32.23a.49.49,0,0,0,.19.84.63.63,0,0,0,.7-.66.89.89,0,0,0-.7-.76,1.07,1.07,0,0,0-.27.77c.05.27.44.47.62.25"/><path class="cls-1" d="M342.58,175l5.66-4.19"/><path class="cls-1" d="M359.24,141.25a57.35,57.35,0,0,1,6.75-4.39"/><path class="cls-1" d="M355,107a35.66,35.66,0,0,0,6.18,4.14"/><path class="cls-1" d="M294.82,89.17q3.72,4.58,7.62,9"/><path class="cls-1" d="M216,132.6a94.39,94.39,0,0,1,26.8-9.7"/><path class="cls-1" d="M215.12,181.69a16.65,16.65,0,0,0,3.94-2.37,154.4,154.4,0,0,1,17.87-11.18"/><path class="cls-1" d="M273,204.35a120.45,120.45,0,0,1,4.08-12.25"/><path class="cls-1" d="M279.82,150.82A36.56,36.56,0,0,1,297.93,164"/><path class="cls-1" d="M266.22,123.56a90.57,90.57,0,0,1,15.87-10.86"/><path class="cls-1" d="M330.13,91.32a32.65,32.65,0,0,1,22,6.6"/><path class="cls-1" d="M318.05,119.47c5.85,4.55,7.71,12.57,12.51,18.2"/><path class="cls-1" d="M329.11,207a1.76,1.76,0,0,0-1.05-1.2,55.9,55.9,0,0,0,14-2.24"/><path class="cls-1" d="M343.41,189a156.73,156.73,0,0,1,22.51.9"/><path class="cls-1" d="M283.61,222.29c2.16-6.53,6.9-11.83,11.52-16.92"/><path class="cls-1" d="M257.13,174.48c.15,3.66.13,7.33-.06,11"/><path class="cls-1" d="M252,155.31a91.44,91.44,0,0,1,8.51-9.09"/><path class="cls-1" d="M210.22,163.73A75.46,75.46,0,0,1,226.34,155"/><path class="cls-1" d="M270.92,102.1l-.42.13"/><path class="cls-1" d="M345.42,85.8a70,70,0,0,1,17.12-8.55"/><path class="cls-1" d="M194.39,16.41l1.85,1.07a.82.82,0,0,0,.24.1.76.76,0,0,0,.33,0,6.74,6.74,0,0,0,2.2-1.08,4.69,4.69,0,0,0-.34,1.49l-.11,1a.69.69,0,0,0,0,.32.77.77,0,0,0,.16.31,9.05,9.05,0,0,0,1.68,1.65l-2.46.21a.64.64,0,0,0-.63.4L196,24.24a.57.57,0,0,0,.2-.49,1.67,1.67,0,0,0-.15-.54l-.76-1.89q-1.52-.24-3.06-.36a14.27,14.27,0,0,0,2.2-1.76.35.35,0,0,0,.12-.15.49.49,0,0,0,0-.24,10.87,10.87,0,0,1-.13-2.28s0-.09,0-.1,0,.07,0,.05Z"/><path class="cls-1" d="M192.5,75l1.38,1.63a.55.55,0,0,0,.52.24,6.89,6.89,0,0,0,2.44-.26,4.55,4.55,0,0,0-.83,1.28l-.45.92a.89.89,0,0,0-.11.31.8.8,0,0,0,0,.34,9.48,9.48,0,0,0,1,2.13l-2.38-.65a.87.87,0,0,0-.39,0,.81.81,0,0,0-.34.21l-2.09,1.78a.58.58,0,0,0,.36-.4,1.66,1.66,0,0,0,0-.55l-.07-2a29.59,29.59,0,0,0-2.76-1.38,15,15,0,0,0,2.67-.91.46.46,0,0,0,.16-.11.42.42,0,0,0,.08-.22,10.62,10.62,0,0,1,.66-2.19s0-.08,0-.11-.06.06,0,0Z"/><path class="cls-1" d="M230.3,74.29l1.33.41a.51.51,0,0,0,.17,0,.5.5,0,0,0,.2-.08,4.34,4.34,0,0,0,1.25-1,3,3,0,0,0,0,1l.08.67a.45.45,0,0,0,0,.2.65.65,0,0,0,.15.18,6.24,6.24,0,0,0,1.31.81l-1.54.48a.51.51,0,0,0-.23.12.45.45,0,0,0-.11.23L232.42,79a.38.38,0,0,0,.06-.34,1.26,1.26,0,0,0-.18-.32l-.75-1.09c-.67,0-1.34.11-2,.21a9.44,9.44,0,0,0,1.15-1.44.37.37,0,0,0,.05-.11.27.27,0,0,0,0-.15,7.2,7.2,0,0,1-.42-1.44s0,0,0,0,0,0,0,0Z"/><path class="cls-1" d="M192.24,42.3l.89,1.07a.45.45,0,0,0,.13.11.38.38,0,0,0,.21,0,4.23,4.23,0,0,0,1.59-.17,3,3,0,0,0-.54.84l-.29.59a.76.76,0,0,0-.08.21.57.57,0,0,0,0,.22,6.31,6.31,0,0,0,.66,1.39l-1.55-.42a.47.47,0,0,0-.26,0,.71.71,0,0,0-.22.13l-1.36,1.17a.36.36,0,0,0,.23-.26,1.1,1.1,0,0,0,0-.36l-.05-1.33a18.88,18.88,0,0,0-1.8-.9,9.64,9.64,0,0,0,1.74-.59.41.41,0,0,0,.11-.07.34.34,0,0,0,.05-.14,7.14,7.14,0,0,1,.43-1.43s0-.06,0-.07,0,0,0,0Z"/><path class="cls-1" d="M223.46,44.28l.9,1.06a.34.34,0,0,0,.12.12.49.49,0,0,0,.21,0,4.45,4.45,0,0,0,1.59-.17,2.9,2.9,0,0,0-.54.83l-.29.6a.7.7,0,0,0-.08.2.54.54,0,0,0,0,.22,5.91,5.91,0,0,0,.66,1.39l-1.55-.42a.58.58,0,0,0-.26,0,.56.56,0,0,0-.22.13l-1.36,1.17a.37.37,0,0,0,.23-.26,1.14,1.14,0,0,0,0-.37l-.05-1.32a18.88,18.88,0,0,0-1.8-.9,9.64,9.64,0,0,0,1.74-.59.41.41,0,0,0,.11-.07.33.33,0,0,0,.05-.15,7.14,7.14,0,0,1,.43-1.43s0-.05,0-.07,0,0,0,0Z"/><path class="cls-1" d="M215.86,57.56A3,3,0,0,0,213.71,56a3,3,0,0,0-2.55.8,1.47,1.47,0,0,0-.49.86,2,2,0,0,0,.1.8,3.53,3.53,0,0,0,1.17,2.17,2.67,2.67,0,0,0,3.2-.64,2.09,2.09,0,0,0,.69-2.31"/><path class="cls-1" d="M209.09,39.91l-.29-.28a.29.29,0,0,0,.11.44.33.33,0,1,0-.54,0c.32.05.78,0,.8-.31s-.34-.42-.59-.31a1.17,1.17,0,0,0-.49.6.58.58,0,0,0,.76.21.35.35,0,0,0-.2-.51c-.21,0-.34.34-.14.41"/><path class="cls-1" d="M240.15,61.2c-.14,0,0,.28.1.23s.12-.26,0-.34a.38.38,0,0,0-.4,0,.49.49,0,0,0-.28.57.36.36,0,1,0,.19-.44.36.36,0,0,0,.06.65.4.4,0,0,0,.42-.54.53.53,0,0,0-.73-.21.46.46,0,0,0-.24.44.3.3,0,0,0,.38.25.23.23,0,0,0,0-.41c-.15-.06-.32.15-.24.29"/><path class="cls-1" d="M208.58,73.53l-.4.22a.44.44,0,0,0,.79-.2.44.44,0,0,0-.79-.18.37.37,0,0,0,.31.53c.25,0,.34-.44.1-.53a.51.51,0,0,0-.24.28.35.35,0,0,0,.27.23c.21-.19-.09-.6-.33-.47a.47.47,0,0,0,0,.4"/><path class="cls-1" d="M177.72,32.53a.26.26,0,0,0-.23-.29c-.25.15-.52.48-.31.68s.56-.17.46-.45a.45.45,0,0,0-.46-.3.33.33,0,0,0-.25.45.26.26,0,0,0,.46,0l-.31.22"/><path class="cls-1" d="M189.56,61c.09-.17-.17-.37-.34-.27a.31.31,0,0,0,0,.49.44.44,0,0,0,.53-.1.5.5,0,0,0-.17-.76.44.44,0,0,0-.58.46.4.4,0,0,0,.69.14.33.33,0,1,0-.66,0,.2.2,0,0,0,.19-.29"/><path class="cls-1" d="M175.61,72.94a.55.55,0,0,0,.35-.6c-.13,0-.17.22-.05.24-.18-.12-.45.1-.4.32a.37.37,0,0,0,.53.2.53.53,0,0,0,.24-.57.74.74,0,0,0-.49,0c-.14.1-.14.36,0,.4"/><path class="cls-1" d="M204.48,84.67l3.7,2"/><path class="cls-1" d="M226.92,85.11A34.23,34.23,0,0,1,231,87.64"/><path class="cls-1" d="M244.31,74.11a21.78,21.78,0,0,0-.67,4.39"/><path class="cls-1" d="M238.69,37.1q-1.53,3.16-2.92,6.39"/><path class="cls-1" d="M195.23,5.56a56.43,56.43,0,0,1,12,12"/><path class="cls-1" d="M168.49,17.54a10.22,10.22,0,0,0,2.28,1.53,91,91,0,0,1,10.57,6.81"/><path class="cls-1" d="M170.93,54.53a75.62,75.62,0,0,1,7.65-.9"/><path class="cls-1" d="M201.58,44.65a21.81,21.81,0,0,1-2.49,13.11"/><path class="cls-1" d="M212.85,30.38a54.29,54.29,0,0,1,9.9,5.81"/><path class="cls-1" d="M246.49,56.71a19.52,19.52,0,0,1,2,13.58"/><path class="cls-1" d="M231.74,90.21a19.52,19.52,0,0,1,2,13.58"/><path class="cls-1" d="M193.2,96.66a19.44,19.44,0,0,1,2,13.57"/><path class="cls-1" d="M228.22,57.34c-1,4.31-4.83,7.35-6.65,11.37"/><path class="cls-1" d="M183.77,85.52a1.06,1.06,0,0,0,.38-.87,33.64,33.64,0,0,0,4.76,7"/><path class="cls-1" d="M197.11,88.68a94.15,94.15,0,0,1,5.22,12.39"/><path class="cls-1" d="M164,64.84c4.07-.5,8.14.72,12.06,1.92"/><path class="cls-1" d="M183,38.4q-2.91,1.51-5.94,2.76"/><path class="cls-1" d="M192.08,30.73A54.48,54.48,0,0,1,199.15,33"/><path class="cls-1" d="M176.94,10.33a45.21,45.21,0,0,1,8.81,6.49"/><path class="cls-1" d="M225.64,27.47l-.18-.19"/><path class="cls-1" d="M253.35,63.57a41.51,41.51,0,0,1,9,7.07"/><path class="cls-1" d="M237.31,86.59c-.13,0,0,.28.11.23s.12-.26,0-.34a.39.39,0,0,0-.4,0,.52.52,0,0,0-.28.57.37.37,0,0,0,.66,0,.37.37,0,0,0-.47-.46.36.36,0,0,0,.06.64c.28.08.54-.28.43-.54a.54.54,0,0,0-.74-.21.48.48,0,0,0-.24.44.3.3,0,0,0,.39.25.23.23,0,0,0,0-.41.2.2,0,0,0-.23.29"/><path class="cls-1" d="M340.69,247.12l1.33.42a.86.86,0,0,0,.17,0,.59.59,0,0,0,.2-.09,4.44,4.44,0,0,0,1.24-1,3,3,0,0,0,0,1l.07.66a.72.72,0,0,0,.05.21.49.49,0,0,0,.15.17,5.79,5.79,0,0,0,1.3.81l-1.53.49a.49.49,0,0,0-.23.11.54.54,0,0,0-.11.23l-.52,1.72a.36.36,0,0,0,.05-.35,1.05,1.05,0,0,0-.17-.31l-.75-1.09a16.74,16.74,0,0,0-2,.21,9.88,9.88,0,0,0,1.14-1.44.23.23,0,0,0,.06-.12.33.33,0,0,0,0-.14,8.14,8.14,0,0,1-.41-1.44s0-.06,0-.06,0,.05,0,0Z"/><path class="cls-1" d="M375.59,272.91l.26,1.37a.48.48,0,0,0,0,.17.43.43,0,0,0,.17.13,4.28,4.28,0,0,0,1.47.64,2.65,2.65,0,0,0-.88.46l-.56.38a.54.54,0,0,0-.16.14.7.7,0,0,0-.08.2,6.58,6.58,0,0,0-.11,1.54l-1.14-1.13a.62.62,0,0,0-.21-.15.57.57,0,0,0-.26,0l-1.76.34a.38.38,0,0,0,.33-.11.88.88,0,0,0,.2-.3l.61-1.18c-.34-.57-.72-1.13-1.12-1.67a9.32,9.32,0,0,0,1.81.34.29.29,0,0,0,.13,0,.35.35,0,0,0,.11-.1,7.59,7.59,0,0,1,1.08-1s0,0,0-.06-.05,0,0,0Z"/><path class="cls-1" d="M222.35,55.56c-.14,0,0,.28.1.23s.12-.26,0-.34a.38.38,0,0,0-.4,0,.49.49,0,0,0-.28.57.35.35,0,1,0,.19-.43.36.36,0,0,0,.06.65c.28.07.53-.29.42-.55a.53.53,0,0,0-.73-.21.46.46,0,0,0-.24.44.29.29,0,0,0,.38.25.22.22,0,0,0,0-.4c-.14-.07-.32.14-.23.28"/><path class="cls-1" d="M232.28,53.66c-.13,0,0,.29.1.24s.12-.27,0-.34a.41.41,0,0,0-.4,0,.51.51,0,0,0-.28.57.35.35,0,1,0,.19-.43.37.37,0,0,0,.06.65.41.41,0,0,0,.42-.55.52.52,0,0,0-.73-.2.47.47,0,0,0-.24.43.31.31,0,0,0,.38.26.23.23,0,0,0,0-.41.2.2,0,0,0-.23.28"/><path class="cls-1" d="M112.77,121.85l1.85,1.07a.72.72,0,0,0,.24.1.77.77,0,0,0,.33-.06,6.62,6.62,0,0,0,2.2-1.07,4.69,4.69,0,0,0-.34,1.48l-.12,1a1.22,1.22,0,0,0,0,.33,1,1,0,0,0,.16.31,9.78,9.78,0,0,0,1.69,1.65l-2.46.21a.89.89,0,0,0-.39.09.74.74,0,0,0-.24.31l-1.36,2.39a.58.58,0,0,0,.2-.5,1.68,1.68,0,0,0-.15-.53l-.76-1.89c-1-.17-2-.29-3.06-.36a16.17,16.17,0,0,0,2.2-1.76.67.67,0,0,0,.12-.16.59.59,0,0,0,0-.23,11,11,0,0,1-.13-2.29.12.12,0,0,0,0-.1s0,.08,0,.06Z"/><path class="cls-1" d="M110.88,180.38l1.38,1.64a.8.8,0,0,0,.19.18.92.92,0,0,0,.33.06,6.89,6.89,0,0,0,2.44-.26,4.41,4.41,0,0,0-.83,1.28l-.46.91a1.63,1.63,0,0,0-.11.31,1,1,0,0,0,.05.34,9.48,9.48,0,0,0,1,2.13l-2.38-.64a.91.91,0,0,0-.4,0,.86.86,0,0,0-.33.2l-2.09,1.79a.6.6,0,0,0,.36-.4,2,2,0,0,0,0-.55l-.08-2c-.89-.5-1.81-1-2.75-1.38a14.62,14.62,0,0,0,2.66-.9.5.5,0,0,0,.17-.11.53.53,0,0,0,.08-.22,10.44,10.44,0,0,1,.66-2.19s0-.09,0-.11-.06.05,0,.05Z"/><path class="cls-1" d="M148.68,179.72l1.33.42a.86.86,0,0,0,.17,0,.59.59,0,0,0,.2-.09,4.48,4.48,0,0,0,1.25-1,2.8,2.8,0,0,0,0,1l.07.66a.72.72,0,0,0,.05.21.49.49,0,0,0,.15.17,6,6,0,0,0,1.3.81l-1.53.49a.49.49,0,0,0-.23.11.54.54,0,0,0-.11.23l-.52,1.72a.36.36,0,0,0,0-.35,1.05,1.05,0,0,0-.17-.31l-.75-1.09a16.74,16.74,0,0,0-2,.21,9.88,9.88,0,0,0,1.14-1.44.27.27,0,0,0,.06-.12.33.33,0,0,0,0-.14,8.14,8.14,0,0,1-.41-1.44s0-.06,0-.06,0,0,0,0Z"/><path class="cls-1" d="M110.61,147.74l.9,1.06a.36.36,0,0,0,.34.16,4.45,4.45,0,0,0,1.59-.17,2.9,2.9,0,0,0-.54.83l-.3.6a.8.8,0,0,0-.07.2.53.53,0,0,0,0,.22,5.94,5.94,0,0,0,.67,1.39l-1.55-.42a.59.59,0,0,0-.26,0,.54.54,0,0,0-.22.13l-1.36,1.17a.42.42,0,0,0,.23-.26,1.14,1.14,0,0,0,0-.37l0-1.32q-.89-.49-1.8-.9a9.64,9.64,0,0,0,1.74-.59.41.41,0,0,0,.11-.07.34.34,0,0,0,.05-.14,6.46,6.46,0,0,1,.43-1.44.06.06,0,0,0,0-.07s0,0,0,0Z"/><path class="cls-1" d="M141.83,149.71l.9,1.07a.74.74,0,0,0,.13.12.49.49,0,0,0,.21,0,4.23,4.23,0,0,0,1.59-.17,3.09,3.09,0,0,0-.54.84l-.3.6a.68.68,0,0,0-.07.2.56.56,0,0,0,0,.22,6.37,6.37,0,0,0,.67,1.39l-1.55-.42a.8.8,0,0,0-.26,0,.46.46,0,0,0-.22.14l-1.36,1.16a.36.36,0,0,0,.23-.26,1.08,1.08,0,0,0,0-.36l0-1.32q-.89-.49-1.8-.9a9.67,9.67,0,0,0,1.74-.6.24.24,0,0,0,.11-.06.38.38,0,0,0,.05-.15,6.54,6.54,0,0,1,.43-1.43.06.06,0,0,0,0-.07s0,0,0,0Z"/><path class="cls-1" d="M134.24,163a3,3,0,0,0-4.7-.79,1.54,1.54,0,0,0-.49.86,2,2,0,0,0,.1.81,3.56,3.56,0,0,0,1.17,2.17,2.68,2.68,0,0,0,3.2-.64,2.11,2.11,0,0,0,.68-2.31"/><path class="cls-1" d="M127.47,145.34l-.29-.27a.28.28,0,0,0,.1.43A.34.34,0,0,0,127,145a.35.35,0,0,0-.28.51c.32,0,.78,0,.8-.32s-.35-.42-.59-.31a1.15,1.15,0,0,0-.49.61.57.57,0,0,0,.76.2.34.34,0,0,0-.2-.5c-.22,0-.35.34-.14.41"/><path class="cls-1" d="M158.53,166.63c-.14,0,0,.29.1.24s.12-.26,0-.34a.39.39,0,0,0-.39,0,.52.52,0,0,0-.29.57.37.37,0,0,0,.66,0,.35.35,0,1,0-.4.19c.27.07.53-.28.42-.55a.54.54,0,0,0-.74-.2.45.45,0,0,0-.23.44.31.31,0,0,0,.38.25c.16-.07.18-.35,0-.41s-.32.15-.23.28"/><path class="cls-1" d="M127,179l-.39.23a.42.42,0,1,0,0-.39.38.38,0,0,0,.31.54c.25,0,.34-.45.11-.53a.51.51,0,0,0-.24.28.39.39,0,0,0,.27.23c.21-.19-.09-.61-.34-.47a.45.45,0,0,0,0,.39"/><path class="cls-1" d="M96.1,138a.28.28,0,0,0-.23-.3c-.25.16-.52.49-.31.69s.56-.18.46-.45a.45.45,0,0,0-.47-.3.32.32,0,0,0-.24.44.26.26,0,0,0,.46-.05l-.31.23"/><path class="cls-1" d="M107.94,166.44c.08-.17-.18-.38-.34-.27a.3.3,0,0,0,0,.49.44.44,0,0,0,.53-.11.5.5,0,0,0-.17-.75.44.44,0,0,0-.58.46.4.4,0,0,0,.69.13.35.35,0,0,0-.36-.33.36.36,0,0,0-.31.38.2.2,0,0,0,.2-.29"/><path class="cls-1" d="M94,178.38a.53.53,0,0,0,.34-.6c-.12,0-.16.21,0,.24-.18-.13-.46.1-.41.31a.39.39,0,0,0,.54.21.53.53,0,0,0,.23-.57.61.61,0,0,0-.48.05c-.14.1-.14.36,0,.4"/><path class="cls-1" d="M122.86,190.11l3.7,2"/><path class="cls-1" d="M145.3,190.55a33.75,33.75,0,0,1,4.08,2.53"/><path class="cls-1" d="M162.69,179.55a21.67,21.67,0,0,0-.67,4.39"/><path class="cls-1" d="M157.07,142.53c-1,2.11-2,4.25-2.92,6.4"/><path class="cls-1" d="M113.6,111a56.47,56.47,0,0,1,12.05,12"/><path class="cls-1" d="M86.87,123a9.73,9.73,0,0,0,2.27,1.53,93.84,93.84,0,0,1,10.58,6.81"/><path class="cls-1" d="M89.31,160a75.64,75.64,0,0,1,7.65-.91"/><path class="cls-1" d="M120,150.08a21.84,21.84,0,0,1-2.49,13.12"/><path class="cls-1" d="M131.23,135.82a54.21,54.21,0,0,1,9.89,5.81"/><path class="cls-1" d="M164.87,162.15a19.51,19.51,0,0,1,2,13.58"/><path class="cls-1" d="M150.11,195.65a19.43,19.43,0,0,1,2,13.57"/><path class="cls-1" d="M111.58,202.09a19.52,19.52,0,0,1,2,13.58"/><path class="cls-1" d="M146.6,162.77c-1,4.31-4.83,7.35-6.65,11.38"/><path class="cls-1" d="M102.14,191a1,1,0,0,0,.38-.87,33.62,33.62,0,0,0,4.77,7"/><path class="cls-1" d="M115.49,194.12a94.15,94.15,0,0,1,5.22,12.39"/><path class="cls-1" d="M82.32,170.27c4.08-.49,8.14.73,12.07,1.93"/><path class="cls-1" d="M101.42,143.83q-2.91,1.51-6,2.76"/><path class="cls-1" d="M110.46,136.17a54.48,54.48,0,0,1,7.07,2.29"/><path class="cls-1" d="M95.32,115.77a44.81,44.81,0,0,1,8.81,6.49"/><path class="cls-1" d="M144,132.91l-.18-.2"/><path class="cls-1" d="M171.73,169a41.75,41.75,0,0,1,9,7.07"/></g></mask></defs><path class="cls-2" d="M196.37,175.2s1.91-27.85-69.21-67.32-73.1-9.55-73.1-9.55-8.83,50.38,35,103.46,90-.26,90-.26,9.69-12.1,12.89-15.1,16.52.52,21.45,7.92c0,0-5.84,21.52,1,33.11s27.67,40.16,48.13,47,36.11,2.18,36.11,2.18,18.79-5.61,43.1-22.42S375,215,375,215s1.39-11.33-28.26-21.57c0,0-42.92-15.83-67.64-18.68s-45.58,2.69-57.17,9.56C221.92,184.28,207.92,169.36,196.37,175.2Z"/><path class="cls-2" d="M329,262.39s25.22,22.22,22.56,40.74-18.91,9.74-18.91,9.74S310,296.48,312,271.3Z"/><path class="cls-2" d="M65.91,165.06s-34.89,8-39.54,24.41,12.94,15.91,12.94,15.91,5.19-.87,7.32-2.87,26.53-23.43,26.53-23.43Z"/><ellipse class="cls-3" cx="126.36" cy="166.82" rx="36.53" ry="49.03" transform="translate(-80.17 200.6) rotate(-62.15)"/><ellipse class="cls-3" cx="274.29" cy="225.04" rx="36.38" ry="48.24" transform="translate(-52.83 362.42) rotate(-62.15)"/><g class="cls-4"><ellipse class="cls-5" cx="126.22" cy="166.73" rx="36.68" ry="49.23" transform="translate(-80.16 200.44) rotate(-62.15)"/><ellipse class="cls-5" cx="274.75" cy="225.18" rx="36.53" ry="48.43" transform="translate(-52.71 362.9) rotate(-62.15)"/></g></svg>