<svg id="Laag_1" data-name="Laag 1" xmlns="http://www.w3.org/2000/svg" xmlns:xlink="http://www.w3.org/1999/xlink" viewBox="0 0 400 400"><defs><style>.cls-1{fill:#212348;stroke:#212348;stroke-miterlimit:10;stroke-width:0.25px;}.cls-2{mask:url(#mask);}.cls-3{font-size:70.53px;letter-spacing:0.03em;}.cls-3,.cls-4{fill:#001d56;font-family:Avenir-Black, Avenir;font-weight:800;}.cls-4{font-size:80.32px;letter-spacing:0.02em;}.cls-5{filter:url(#luminosity-noclip);}</style><filter id="luminosity-noclip" x="-31.39" y="103.27" width="590.65" height="236.97" filterUnits="userSpaceOnUse" color-interpolation-filters="sRGB"><feFlood flood-color="#fff" result="bg"/><feBlend in="SourceGraphic" in2="bg"/></filter><mask id="mask" x="-31.39" y="103.27" width="590.65" height="236.97" maskUnits="userSpaceOnUse"><g class="cls-5"><path class="cls-1" d="M65.17,123.44l2.07-.63a.74.74,0,0,0,.24-.11.64.64,0,0,0,.18-.28,6.55,6.55,0,0,0,.74-2.37,4.57,4.57,0,0,0,.86,1.28l.67.79a1,1,0,0,0,.24.23.78.78,0,0,0,.34.09,9.6,9.6,0,0,0,2.39-.09l-1.55,2a.76.76,0,0,0-.2.36.89.89,0,0,0,.06.39l.82,2.66a.6.6,0,0,0-.23-.5,1.7,1.7,0,0,0-.5-.26l-1.92-.74c-.82.63-1.62,1.3-2.39,2a15,15,0,0,0,.23-2.84.44.44,0,0,0,0-.2A.52.52,0,0,0,67,125a11.62,11.62,0,0,1-1.78-1.49s-.07-.06-.1,0,0,.08,0,0Z"/><path class="cls-1" d="M107.07,165.39l2.16.11a.62.62,0,0,0,.27,0,.63.63,0,0,0,.26-.2,6.41,6.41,0,0,0,1.5-2,4.59,4.59,0,0,0,.37,1.5l.37,1a1.05,1.05,0,0,0,.15.3.8.8,0,0,0,.28.2,9,9,0,0,0,2.28.72l-2.12,1.31a.91.91,0,0,0-.31.27.83.83,0,0,0-.08.39l-.13,2.78a.58.58,0,0,0,0-.54,1.69,1.69,0,0,0-.38-.42l-1.55-1.35a31.21,31.21,0,0,0-2.93,1.08,14.82,14.82,0,0,0,1.18-2.6.65.65,0,0,0,0-.19.51.51,0,0,0-.11-.22,10.52,10.52,0,0,1-1.16-2s0-.08-.09-.07,0,.08,0,0Z"/><path class="cls-1" d="M132.77,137l1.23-.7a.71.71,0,0,0,.14-.1.48.48,0,0,0,.07-.21,4.38,4.38,0,0,0,.13-1.61,3,3,0,0,0,.73.69l.54.41a.72.72,0,0,0,.19.11.59.59,0,0,0,.23,0,6.66,6.66,0,0,0,1.5-.4l-.7,1.46a.61.61,0,0,0-.08.25.75.75,0,0,0,.09.25l.91,1.57a.39.39,0,0,0-.22-.28,1,1,0,0,0-.35-.1l-1.33-.19q-.65.78-1.23,1.62a10.32,10.32,0,0,0-.26-1.84.43.43,0,0,0-.05-.12.39.39,0,0,0-.14-.08,7.38,7.38,0,0,1-1.34-.69,0,0,0,0,0-.07,0s0,.05,0,0Z"/><path class="cls-1" d="M82.78,143l1.41.08h.18a.46.46,0,0,0,.17-.14,4.25,4.25,0,0,0,1-1.29,2.82,2.82,0,0,0,.24,1l.24.63a.54.54,0,0,0,.1.2.49.49,0,0,0,.18.13,6.31,6.31,0,0,0,1.49.47l-1.39.85a.68.68,0,0,0-.2.18.66.66,0,0,0-.05.25l-.08,1.81a.4.4,0,0,0,0-.35,1.07,1.07,0,0,0-.25-.27l-1-.88c-.65.2-1.29.44-1.91.7a10.27,10.27,0,0,0,.76-1.69.31.31,0,0,0,0-.13.46.46,0,0,0-.07-.14,7,7,0,0,1-.76-1.3.06.06,0,0,0-.06,0s0,.06,0,0Z"/><path class="cls-1" d="M105.88,121.29l1.41.07a.33.33,0,0,0,.17,0,.43.43,0,0,0,.17-.13,4.37,4.37,0,0,0,1-1.29,3,3,0,0,0,.24,1l.24.64a.44.44,0,0,0,.1.19.46.46,0,0,0,.18.13,6,6,0,0,0,1.49.47l-1.39.86a.52.52,0,0,0-.19.17.57.57,0,0,0-.06.25l-.08,1.82a.39.39,0,0,0,0-.35,1.32,1.32,0,0,0-.25-.28l-1-.88c-.65.21-1.29.44-1.91.71a10.41,10.41,0,0,0,.77-1.7.5.5,0,0,0,0-.12.31.31,0,0,0-.07-.14,7.45,7.45,0,0,1-.76-1.31s0,0-.05,0,0,.06,0,0Z"/><path class="cls-1" d="M110.42,136.09a3,3,0,0,0-3.84,2.92,1.57,1.57,0,0,0,.29,1,2.12,2.12,0,0,0,.66.48,3.7,3.7,0,0,0,2.42.64,2.7,2.7,0,0,0,1.74-2.8,2.14,2.14,0,0,0-1.23-2.12"/><path class="cls-1" d="M92.7,128.86l-.4,0a.28.28,0,0,0,.39.23.33.33,0,1,0-.38.38c.26-.2.54-.57.32-.81s-.55,0-.64.22a1.21,1.21,0,0,0,.1.79.59.59,0,0,0,.69-.42.35.35,0,0,0-.52-.2c-.17.13,0,.49.21.39"/><path class="cls-1" d="M129.93,120.69c-.07.12.19.22.24.09s-.1-.27-.24-.24a.41.41,0,0,0-.27.3.51.51,0,0,0,.23.6.35.35,0,1,1,.33,0,.41.41,0,0,0-.11-.69.54.54,0,0,0-.66.4.49.49,0,0,0,.16.48.31.31,0,0,0,.45-.11c.07-.17-.13-.38-.29-.29s-.11.33,0,.36"/><path class="cls-1" d="M117.16,152.54l-.11.45c.36.09.67-.47.4-.72s-.82.1-.69.45a.38.38,0,0,0,.61.14c.16-.19-.09-.56-.32-.44a.53.53,0,0,0,0,.37.38.38,0,0,0,.36,0c0-.28-.51-.35-.58-.08a.43.43,0,0,0,.3.26"/><path class="cls-1" d="M65.51,146.91a.27.27,0,0,0-.37,0c-.06.29,0,.73.29.7s.26-.53,0-.64a.46.46,0,0,0-.55.13.33.33,0,0,0,.16.49c.2,0,.4-.21.28-.37l0,.38"/><path class="cls-1" d="M94.74,157.9c-.07-.19-.4-.14-.44.06a.31.31,0,0,0,.38.32.41.41,0,0,0,.28-.46.5.5,0,0,0-.67-.4.45.45,0,0,0-.06.75.41.41,0,0,0,.58-.42.34.34,0,1,0-.43.53.21.21,0,0,0-.07-.35"/><path class="cls-1" d="M93.88,176.46a.52.52,0,0,0-.2-.66c-.1.07,0,.27.14.19a.3.3,0,0,0,0,.52.38.38,0,0,0,.52-.25.54.54,0,0,0-.26-.57.74.74,0,0,0-.3.4c0,.16.17.35.31.26"/><path class="cls-1" d="M122.55,163.29l4-1.36"/><path class="cls-1" d="M138.42,147a36,36,0,0,1,4.69-1.26"/><path class="cls-1" d="M142.35,126.57a21.92,21.92,0,0,0,2.78,3.53"/><path class="cls-1" d="M111.13,105.07q1.28,3.32,2.7,6.58"/><path class="cls-1" d="M57.74,115.3A57.1,57.1,0,0,1,75,114.73"/><path class="cls-1" d="M48.05,143.33a9.87,9.87,0,0,0,2.71-.62,93.7,93.7,0,0,1,12.35-3.09"/><path class="cls-1" d="M77.05,167.17a74.76,74.76,0,0,1,4.64-6.28"/><path class="cls-1" d="M91,137.69a22,22,0,0,1,8,10.93"/><path class="cls-1" d="M88.27,119.48a54.85,54.85,0,0,1,11.15-3.27"/><path class="cls-1" d="M131,112.9a19.7,19.7,0,0,1,11.43,7.91"/><path class="cls-1" d="M118.82,126.82c2.5,3.7,2.08,8.66,3.79,12.79"/><path class="cls-1" d="M108.82,179.16a1,1,0,0,0-.38-.88,33.7,33.7,0,0,0,8.46,1.33"/><path class="cls-1" d="M120.4,171.5a94.81,94.81,0,0,1,12.76,4.73"/><path class="cls-1" d="M79.82,179.46c2.46-3.35,6.17-5.51,9.78-7.57"/><path class="cls-1" d="M73.53,147c-.6,2.13-1.29,4.24-2.08,6.31"/><path class="cls-1" d="M74.14,135.06a54.79,54.79,0,0,1,6.59-3.63"/><path class="cls-1" d="M48.59,132.1a45.36,45.36,0,0,1,10.89-2"/><path class="cls-1" d="M95,108h-.27"/><path class="cls-1" d="M140.83,112.58a42.19,42.19,0,0,1,11.44-1.71"/><path class="cls-1" d="M157.87,321.64l2.81.15a1,1,0,0,0,.34,0,1,1,0,0,0,.35-.26,9.06,9.06,0,0,0,1.95-2.58,6,6,0,0,0,.48,1.95l.47,1.26a1.29,1.29,0,0,0,.19.39,1.37,1.37,0,0,0,.37.26,12.76,12.76,0,0,0,3,.94l-2.75,1.7a1.1,1.1,0,0,0-.4.34,1.12,1.12,0,0,0-.11.51l-.17,3.61a.73.73,0,0,0-.06-.7,2.29,2.29,0,0,0-.49-.54l-2-1.76c-1.28.41-2.56.88-3.8,1.4a19.68,19.68,0,0,0,1.53-3.37.56.56,0,0,0,0-.25.57.57,0,0,0-.14-.28,14.68,14.68,0,0,1-1.51-2.6c0-.05-.06-.11-.11-.1s0,.11,0,.07Z"/><path class="cls-1" d="M191.25,284.81l1.6-.91a1.18,1.18,0,0,0,.18-.13.68.68,0,0,0,.1-.27,5.74,5.74,0,0,0,.16-2.1,3.87,3.87,0,0,0,1,.9l.7.53a.89.89,0,0,0,.25.14.7.7,0,0,0,.29,0,8.36,8.36,0,0,0,2-.53l-.92,1.91a.63.63,0,0,0-.09.33.72.72,0,0,0,.11.31l1.18,2a.49.49,0,0,0-.28-.36,1.21,1.21,0,0,0-.46-.12l-1.72-.26c-.57.68-1.1,1.38-1.6,2.11a12.76,12.76,0,0,0-.35-2.39.28.28,0,0,0-.06-.16.37.37,0,0,0-.17-.1,9.65,9.65,0,0,1-1.75-.9s-.07,0-.09,0,0,.06,0,0Z"/><path class="cls-1" d="M126.32,292.51l1.84.1a.55.55,0,0,0,.22,0,.63.63,0,0,0,.23-.17,5.74,5.74,0,0,0,1.27-1.67,3.76,3.76,0,0,0,.31,1.27l.31.82a.72.72,0,0,0,.12.25.7.7,0,0,0,.25.17,8,8,0,0,0,1.93.61L131,295a.55.55,0,0,0-.33.56l-.11,2.35a.5.5,0,0,0,0-.46,1.75,1.75,0,0,0-.32-.35l-1.31-1.14c-.85.26-1.67.57-2.49.91a12.09,12.09,0,0,0,1-2.2.3.3,0,0,0,0-.16.38.38,0,0,0-.09-.18,9.93,9.93,0,0,1-1-1.7s0-.07-.06-.06,0,.07,0,0Z"/><path class="cls-1" d="M156.32,264.36l1.83.09a.54.54,0,0,0,.22,0,.63.63,0,0,0,.23-.17,5.92,5.92,0,0,0,1.27-1.68,3.77,3.77,0,0,0,.32,1.27l.3.82a.75.75,0,0,0,.13.25.59.59,0,0,0,.24.17,8.06,8.06,0,0,0,1.93.62l-1.8,1.11a.7.7,0,0,0-.26.22.75.75,0,0,0-.06.33l-.11,2.36a.5.5,0,0,0,0-.46,1.37,1.37,0,0,0-.33-.35l-1.31-1.15c-.84.27-1.67.57-2.48.91a13.14,13.14,0,0,0,1-2.19,1,1,0,0,0,0-.17.38.38,0,0,0-.09-.18,9.31,9.31,0,0,1-1-1.7.09.09,0,0,0-.07-.06s0,.07,0,.05Z"/><path class="cls-1" d="M162.22,283.59a3.88,3.88,0,0,0-5,3.79,2,2,0,0,0,.38,1.25,2.81,2.81,0,0,0,.86.63,4.69,4.69,0,0,0,3.14.83c1.51-.34,2.29-2.09,2.26-3.64a2.77,2.77,0,0,0-1.6-2.74"/><path class="cls-1" d="M139.2,274.2l-.52,0a.36.36,0,0,0,.51.29.46.46,0,0,0-.73-.23.45.45,0,0,0,.23.72c.34-.25.71-.73.42-1s-.71-.05-.83.28a1.53,1.53,0,0,0,.14,1,.76.76,0,0,0,.88-.55.45.45,0,0,0-.67-.26c-.21.18,0,.64.27.51"/><path class="cls-1" d="M187.57,263.58c-.1.16.24.28.31.11s-.14-.35-.32-.31a.52.52,0,0,0-.34.4.66.66,0,0,0,.29.78.49.49,0,0,0,.62-.61.48.48,0,0,0-.86,0,.48.48,0,0,0,.68.52.53.53,0,0,0-.15-.89.69.69,0,0,0-.85.52.6.6,0,0,0,.2.62.41.41,0,0,0,.59-.14c.08-.22-.18-.49-.38-.38a.26.26,0,0,0,.06.47"/><path class="cls-1" d="M171,305l-.14.58a.58.58,0,0,0,.52-.93c-.36-.33-1.06.13-.89.59a.49.49,0,0,0,.79.18c.21-.25-.12-.72-.41-.57a.62.62,0,0,0,0,.48.5.5,0,0,0,.46,0c0-.37-.66-.46-.75-.11a.62.62,0,0,0,.39.35"/><path class="cls-1" d="M103.89,297.64a.36.36,0,0,0-.49-.05c-.07.38,0,.94.38.91s.33-.68,0-.84a.59.59,0,0,0-.7.17.43.43,0,0,0,.21.64c.25.07.51-.27.36-.48l-.06.5"/><path class="cls-1" d="M141.85,311.91c-.09-.24-.52-.17-.57.08a.4.4,0,0,0,.49.42.56.56,0,0,0,.38-.6.66.66,0,0,0-.88-.52.58.58,0,0,0-.08,1,.52.52,0,0,0,.75-.53.45.45,0,0,0-.64,0,.46.46,0,0,0,.09.64.26.26,0,0,0-.1-.45"/><path class="cls-1" d="M140.74,336a.71.71,0,0,0-.26-.87c-.14.1.05.36.18.26-.28.06-.31.53-.06.67a.49.49,0,0,0,.68-.33A.68.68,0,0,0,141,335a.82.82,0,0,0-.39.51c0,.22.21.46.4.34"/><path class="cls-1" d="M178,318.91l5.24-1.75"/><path class="cls-1" d="M198.59,297.79a44.27,44.27,0,0,1,6.1-1.64"/><path class="cls-1" d="M203.7,271.21a28.56,28.56,0,0,0,3.6,4.59"/><path class="cls-1" d="M163.15,243.29q1.65,4.31,3.5,8.55"/><path class="cls-1" d="M93.79,256.58a73.88,73.88,0,0,1,22.36-.74"/><path class="cls-1" d="M81.21,293a13.45,13.45,0,0,0,3.51-.81,121.48,121.48,0,0,1,16-4"/><path class="cls-1" d="M118.88,324a95.65,95.65,0,0,1,6-8.15"/><path class="cls-1" d="M137,285.66a28.74,28.74,0,0,1,10.33,14.2"/><path class="cls-1" d="M133.45,262a71.6,71.6,0,0,1,14.48-4.25"/><path class="cls-1" d="M189,253.46a25.59,25.59,0,0,1,14.85,10.28"/><path class="cls-1" d="M173.13,271.54c3.26,4.82,2.7,11.25,4.92,16.62"/><path class="cls-1" d="M160.15,339.54a1.36,1.36,0,0,0-.5-1.15,44,44,0,0,0,11,1.72"/><path class="cls-1" d="M175.18,329.59a123.42,123.42,0,0,1,16.58,6.13"/><path class="cls-1" d="M122.47,339.92c3.19-4.35,8-7.15,12.71-9.83"/><path class="cls-1" d="M114.31,297.81Q113.14,302,111.6,306"/><path class="cls-1" d="M115.1,282.25a71.86,71.86,0,0,1,8.55-4.72"/><path class="cls-1" d="M81.91,278.4a59.15,59.15,0,0,1,14.15-2.6"/><path class="cls-1" d="M142.17,247.14h-.35"/><path class="cls-1" d="M201.73,253.05a54.88,54.88,0,0,1,14.85-2.23"/><path class="cls-1" d="M198.24,143.23l2.56-.77a1,1,0,0,0,.29-.14.89.89,0,0,0,.23-.34,8.54,8.54,0,0,0,.91-2.93,5.62,5.62,0,0,0,1.06,1.58l.83,1a1.33,1.33,0,0,0,.3.28,1.14,1.14,0,0,0,.41.12,12.16,12.16,0,0,0,2.95-.12l-1.92,2.41a1.08,1.08,0,0,0-.24.43,1,1,0,0,0,.07.49l1,3.28a.73.73,0,0,0-.27-.61,2.28,2.28,0,0,0-.62-.32l-2.37-.92c-1,.78-2,1.61-2.95,2.48a17.88,17.88,0,0,0,.28-3.51.51.51,0,0,0,0-.24.58.58,0,0,0-.21-.2,13.27,13.27,0,0,1-2.19-1.84s-.09-.07-.13,0,0,.1,0,0Z"/><path class="cls-1" d="M255.8,193l1.33.07h.16a.55.55,0,0,0,.17-.13,3.93,3.93,0,0,0,.92-1.22,3,3,0,0,0,.23.93l.22.6a.64.64,0,0,0,.1.18.52.52,0,0,0,.17.12,5.72,5.72,0,0,0,1.4.45l-1.3.8a.53.53,0,0,0-.19.17.47.47,0,0,0-.05.24l-.08,1.71a.35.35,0,0,0,0-.33,1.18,1.18,0,0,0-.24-.26l-.95-.83q-.92.28-1.8.66a9.21,9.21,0,0,0,.72-1.6.25.25,0,0,0,0-.12.22.22,0,0,0-.06-.13,7.2,7.2,0,0,1-.72-1.23s0-.05,0-.05,0,.05,0,0Z"/><path class="cls-1" d="M281.66,160l1.51-.86a.52.52,0,0,0,.17-.12.64.64,0,0,0,.1-.26,5.36,5.36,0,0,0,.15-2,3.55,3.55,0,0,0,.91.86l.66.5a.76.76,0,0,0,.23.13.67.67,0,0,0,.28,0,8.13,8.13,0,0,0,1.86-.5l-.87,1.81a.59.59,0,0,0-.09.31.68.68,0,0,0,.11.3l1.12,1.94a.48.48,0,0,0-.27-.35,1.24,1.24,0,0,0-.43-.11l-1.64-.25a24.48,24.48,0,0,0-1.52,2,12.56,12.56,0,0,0-.33-2.27.26.26,0,0,0-.22-.24,9.32,9.32,0,0,1-1.66-.86s-.06,0-.09,0,0,.06,0,0Z"/><path class="cls-1" d="M220,167.33l1.74.09a.5.5,0,0,0,.21,0,.57.57,0,0,0,.22-.16,5.6,5.6,0,0,0,1.2-1.59,3.92,3.92,0,0,0,.3,1.2l.29.79a1,1,0,0,0,.12.23,1,1,0,0,0,.23.17,8.3,8.3,0,0,0,1.83.58l-1.7,1a.74.74,0,0,0-.25.21.7.7,0,0,0-.06.32l-.11,2.24a.49.49,0,0,0,0-.44,1.62,1.62,0,0,0-.31-.33l-1.25-1.09c-.8.25-1.58.54-2.36.87a12.66,12.66,0,0,0,.95-2.09.3.3,0,0,0,0-.16A.53.53,0,0,0,221,169a8.68,8.68,0,0,1-.94-1.61s0-.07-.07-.06,0,.07,0,0Z"/><path class="cls-1" d="M248.47,140.58l1.74.09a.49.49,0,0,0,.21,0,.52.52,0,0,0,.22-.17,5.3,5.3,0,0,0,1.2-1.59,3.91,3.91,0,0,0,.3,1.21l.29.78a1.12,1.12,0,0,0,.13.24.69.69,0,0,0,.22.16,7.88,7.88,0,0,0,1.84.58l-1.71,1.06a.51.51,0,0,0-.31.52l-.11,2.24a.49.49,0,0,0,0-.44,1.38,1.38,0,0,0-.31-.33l-1.25-1.09c-.79.25-1.58.54-2.35.87a11.84,11.84,0,0,0,.94-2.09.29.29,0,0,0,0-.16.3.3,0,0,0-.08-.17,8.92,8.92,0,0,1-.94-1.61.09.09,0,0,0-.07-.06s0,.07,0,0Z"/><path class="cls-1" d="M254.08,158.85a3.68,3.68,0,0,0-4.74,3.6,1.86,1.86,0,0,0,.36,1.19,2.76,2.76,0,0,0,.82.6,4.43,4.43,0,0,0,3,.78c1.44-.32,2.18-2,2.16-3.45a2.64,2.64,0,0,0-1.52-2.61"/><path class="cls-1" d="M232.21,149.93l-.5,0a.36.36,0,0,0,.49.28.44.44,0,0,0-.69-.22.43.43,0,0,0,.22.69c.32-.24.67-.7.39-1s-.67-.05-.78.27a1.44,1.44,0,0,0,.13,1,.74.74,0,0,0,.84-.52.44.44,0,0,0-.64-.25c-.21.17,0,.6.26.48"/><path class="cls-1" d="M278.15,139.84c-.08.15.24.27.3.11s-.13-.34-.3-.3a.51.51,0,0,0-.33.38.63.63,0,0,0,.28.74.44.44,0,1,0-.23-.54.46.46,0,0,0,.64.5.5.5,0,0,0-.13-.85.66.66,0,0,0-.82.49.59.59,0,0,0,.2.59.37.37,0,0,0,.55-.13c.08-.21-.16-.47-.36-.36a.25.25,0,0,0,.06.45"/><path class="cls-1" d="M262.39,179.14l-.14.55c.45.12.84-.57.5-.88a.55.55,0,0,0-.85.56.47.47,0,0,0,.75.17c.2-.24-.11-.69-.39-.54a.64.64,0,0,0,.05.45.46.46,0,0,0,.44,0c0-.35-.63-.44-.71-.1a.53.53,0,0,0,.37.33"/><path class="cls-1" d="M198.67,172.19a.35.35,0,0,0-.47,0c-.07.36,0,.89.37.87s.31-.66,0-.8a.55.55,0,0,0-.67.16.41.41,0,0,0,.19.61c.25.06.5-.26.35-.46l-.06.47"/><path class="cls-1" d="M234.72,185.75c-.08-.22-.49-.16-.53.08s.22.45.46.4a.54.54,0,0,0,.36-.57.63.63,0,0,0-.84-.5.56.56,0,0,0-.07.93.5.5,0,0,0,.71-.51.41.41,0,1,0-.52.64.25.25,0,0,0-.1-.42"/><path class="cls-1" d="M233.67,208.66a.67.67,0,0,0-.25-.82c-.12.09.05.34.18.24a.36.36,0,0,0-.06.64.47.47,0,0,0,.65-.31.67.67,0,0,0-.32-.7.82.82,0,0,0-.37.48c0,.21.2.44.38.33"/><path class="cls-1" d="M269,192.4l5-1.67"/><path class="cls-1" d="M288.62,172.34a41.72,41.72,0,0,1,5.8-1.56"/><path class="cls-1" d="M293.47,147.09a26.77,26.77,0,0,0,3.43,4.36"/><path class="cls-1" d="M255,120.56q1.57,4.09,3.33,8.13"/><path class="cls-1" d="M189.07,133.19a70.39,70.39,0,0,1,21.24-.7"/><path class="cls-1" d="M177.12,167.78a12.54,12.54,0,0,0,3.34-.76,115.92,115.92,0,0,1,15.24-3.82"/><path class="cls-1" d="M212.9,197.19a92.11,92.11,0,0,1,5.72-7.75"/><path class="cls-1" d="M230.11,160.82a27.23,27.23,0,0,1,9.81,13.48"/><path class="cls-1" d="M226.75,138.35a67.81,67.81,0,0,1,13.75-4"/><path class="cls-1" d="M279.49,130.23a24.37,24.37,0,0,1,14.1,9.76"/><path class="cls-1" d="M264.44,147.4c3.09,4.58,2.57,10.69,4.67,15.79"/><path class="cls-1" d="M252.11,212a1.3,1.3,0,0,0-.47-1.09,41.49,41.49,0,0,0,10.44,1.64"/><path class="cls-1" d="M266.39,202.54a119,119,0,0,1,15.75,5.83"/><path class="cls-1" d="M216.32,212.36c3-4.13,7.62-6.8,12.07-9.34"/><path class="cls-1" d="M208.56,172.36c-.74,2.63-1.59,5.23-2.57,7.78"/><path class="cls-1" d="M209.31,157.57a69.82,69.82,0,0,1,8.13-4.48"/><path class="cls-1" d="M177.78,153.92a56,56,0,0,1,13.45-2.47"/><path class="cls-1" d="M235,124.22h-.33"/><path class="cls-1" d="M291.6,129.84a52.29,52.29,0,0,1,14.11-2.12"/><path class="cls-1" d="M211.88,229.73l1.52-.46a.58.58,0,0,0,.18-.08.64.64,0,0,0,.14-.21,5.11,5.11,0,0,0,.54-1.74,3.15,3.15,0,0,0,.63.95l.49.58a.69.69,0,0,0,.18.16.51.51,0,0,0,.24.07,7,7,0,0,0,1.76-.07l-1.14,1.44a.61.61,0,0,0-.15.26.9.9,0,0,0,0,.28l.61,2a.42.42,0,0,0-.17-.37,1.24,1.24,0,0,0-.36-.19l-1.41-.54a22.46,22.46,0,0,0-1.76,1.47,11.27,11.27,0,0,0,.17-2.09.24.24,0,0,0,0-.14.28.28,0,0,0-.12-.12,8.52,8.52,0,0,1-1.31-1.09s-.05,0-.07,0,0,.06,0,0Z"/><path class="cls-1" d="M260.9,314.85,264,315a.73.73,0,0,0,.76-.31,9.86,9.86,0,0,0,2.13-2.81,6.59,6.59,0,0,0,.52,2.13l.52,1.38a1.28,1.28,0,0,0,.21.42,1.41,1.41,0,0,0,.4.29,13.88,13.88,0,0,0,3.24,1l-3,1.86a1.21,1.21,0,0,0-.43.38,1.14,1.14,0,0,0-.12.55l-.18,3.95a.82.82,0,0,0-.07-.77,2.32,2.32,0,0,0-.54-.59l-2.2-1.92a44.08,44.08,0,0,0-4.16,1.53,21.54,21.54,0,0,0,1.68-3.69.65.65,0,0,0,.05-.27.89.89,0,0,0-.15-.31A15.51,15.51,0,0,1,261,315c0-.05-.06-.11-.11-.1s0,.12,0,.07Z"/><path class="cls-1" d="M297.39,274.6l1.74-1a1.49,1.49,0,0,0,.2-.15.72.72,0,0,0,.1-.29,6.36,6.36,0,0,0,.19-2.29,4.18,4.18,0,0,0,1,1l.77.58a1,1,0,0,0,.26.15.92.92,0,0,0,.33,0,8.85,8.85,0,0,0,2.13-.58l-1,2.09a.59.59,0,0,0,0,.7l1.28,2.23a.53.53,0,0,0-.3-.4,1.48,1.48,0,0,0-.51-.13l-1.88-.28c-.62.74-1.2,1.51-1.75,2.3a14.27,14.27,0,0,0-.37-2.61.51.51,0,0,0-.07-.17.47.47,0,0,0-.19-.12,9.32,9.32,0,0,1-1.91-1,.09.09,0,0,0-.1,0s0,.07,0,0Z"/><path class="cls-1" d="M226.43,283l2,.11a.93.93,0,0,0,.24,0,.67.67,0,0,0,.25-.19,6.17,6.17,0,0,0,1.39-1.83,4.49,4.49,0,0,0,.34,1.39l.34.9a.78.78,0,0,0,.14.27.83.83,0,0,0,.26.19,9.08,9.08,0,0,0,2.11.66l-2,1.22a.8.8,0,0,0-.28.24.75.75,0,0,0-.07.36l-.12,2.58a.55.55,0,0,0,0-.5,1.67,1.67,0,0,0-.36-.39l-1.43-1.25c-.92.29-1.83.62-2.72,1a13.62,13.62,0,0,0,1.09-2.4.41.41,0,0,0,0-.19.5.5,0,0,0-.1-.19,10.13,10.13,0,0,1-1.08-1.86s0-.07-.08-.06,0,.08,0,0Z"/><path class="cls-1" d="M259.21,252.25l2,.1a.64.64,0,0,0,.24,0,.67.67,0,0,0,.25-.19,6.17,6.17,0,0,0,1.39-1.83,4.37,4.37,0,0,0,.34,1.38l.34.9a.74.74,0,0,0,.14.28.68.68,0,0,0,.26.18,8.65,8.65,0,0,0,2.11.67l-2,1.22a.8.8,0,0,0-.28.24.75.75,0,0,0-.07.36l-.12,2.58a.55.55,0,0,0,0-.5,1.67,1.67,0,0,0-.36-.39L262,256c-.92.29-1.83.62-2.72,1a13.39,13.39,0,0,0,1.09-2.41.53.53,0,0,0,0-.18.5.5,0,0,0-.1-.19,10.13,10.13,0,0,1-1.08-1.86s0-.07-.08-.06,0,.07,0,0Z"/><path class="cls-1" d="M265.66,273.27a4.25,4.25,0,0,0-5.46,4.14,2.2,2.2,0,0,0,.42,1.37,2.91,2.91,0,0,0,.94.68,5.12,5.12,0,0,0,3.42.91c1.66-.37,2.51-2.28,2.48-4,0-1.24-.56-2.65-1.75-3"/><path class="cls-1" d="M240.5,263l-.57,0a.39.39,0,0,0,.55.32.47.47,0,1,0-.54.54c.37-.28.78-.8.46-1.14s-.78-.05-.9.31a1.69,1.69,0,0,0,.14,1.12.85.85,0,0,0,1-.6.49.49,0,0,0-.73-.29c-.24.2,0,.7.3.55"/><path class="cls-1" d="M293.36,251.4c-.1.17.26.31.34.12s-.15-.38-.35-.34a.56.56,0,0,0-.37.44.71.71,0,0,0,.32.85.51.51,0,1,0-.27-.63.53.53,0,0,0,.74.58.58.58,0,0,0-.16-1,.76.76,0,0,0-.93.57.65.65,0,0,0,.22.68.44.44,0,0,0,.64-.16c.09-.23-.19-.53-.41-.41a.29.29,0,0,0,.06.52"/><text/><path class="cls-1" d="M201.91,288.62a.38.38,0,0,0-.53-.05c-.09.41,0,1,.41,1s.37-.76,0-.92a.64.64,0,0,0-.77.18.47.47,0,0,0,.23.7c.28.07.56-.3.39-.53l-.06.55"/><path class="cls-1" d="M243.39,304.22c-.1-.26-.56-.19-.62.08a.44.44,0,0,0,.54.46.6.6,0,0,0,.41-.65.73.73,0,0,0-1-.57.64.64,0,0,0-.09,1.06.57.57,0,0,0,.82-.58.5.5,0,0,0-.7,0,.51.51,0,0,0,.1.7.29.29,0,0,0-.11-.49"/><path class="cls-1" d="M242.18,330.58a.78.78,0,0,0-.28-.95c-.15.1,0,.39.2.28a.42.42,0,0,0-.07.73.54.54,0,0,0,.74-.35.76.76,0,0,0-.36-.81,1,1,0,0,0-.43.56c0,.24.24.5.44.37"/><path class="cls-1" d="M282.87,311.87l5.72-1.92"/><path class="cls-1" d="M305.4,288.78a48.23,48.23,0,0,1,6.67-1.78"/><path class="cls-1" d="M311,259.74a31.35,31.35,0,0,0,3.94,5"/><path class="cls-1" d="M266.67,229.22q1.81,4.71,3.83,9.35"/><path class="cls-1" d="M190.87,243.75a80.73,80.73,0,0,1,24.43-.81"/><path class="cls-1" d="M177.12,283.55a14.2,14.2,0,0,0,3.84-.89,133.84,133.84,0,0,1,17.54-4.38"/><path class="cls-1" d="M218.29,317.38a106,106,0,0,1,6.58-8.91"/><path class="cls-1" d="M238.08,275.53a31.34,31.34,0,0,1,11.29,15.52"/><path class="cls-1" d="M234.21,249.69A77.3,77.3,0,0,1,250,245"/><path class="cls-1" d="M294.89,240.34a28.06,28.06,0,0,1,16.23,11.23"/><path class="cls-1" d="M277.58,260.1c3.56,5.26,2.95,12.29,5.38,18.16"/><path class="cls-1" d="M263.39,334.41a1.49,1.49,0,0,0-.54-1.26,47.91,47.91,0,0,0,12,1.89"/><path class="cls-1" d="M279.82,323.53a135.8,135.8,0,0,1,18.12,6.71"/><path class="cls-1" d="M222.21,334.83c3.5-4.75,8.77-7.82,13.89-10.75"/><path class="cls-1" d="M213.29,288.81q-1.28,4.54-2.95,8.95"/><path class="cls-1" d="M214.16,271.8a78.69,78.69,0,0,1,9.35-5.16"/><path class="cls-1" d="M177.89,267.6a64.47,64.47,0,0,1,15.46-2.85"/><path class="cls-1" d="M243.74,233.43h-.38"/><path class="cls-1" d="M308.83,239.89a59.94,59.94,0,0,1,16.23-2.43"/><path class="cls-1" d="M96.48,227l.15-1.05a.29.29,0,0,0,0-.13.42.42,0,0,0-.09-.14,3.47,3.47,0,0,0-.89-.82,2.08,2.08,0,0,0,.74-.11l.49-.13a.67.67,0,0,0,.15-.06.35.35,0,0,0,.11-.13,4.58,4.58,0,0,0,.45-1.07l.55,1.09a.46.46,0,0,0,.11.16.53.53,0,0,0,.19.05l1.34.19a.27.27,0,0,0-.26,0,.72.72,0,0,0-.22.17l-.73.69q.17.75.39,1.47a6.88,6.88,0,0,0-1.21-.69l-.09,0a.25.25,0,0,0-.11,0,5.54,5.54,0,0,1-1,.47s0,0,0,0,0,0,0,0Z"/><path class="cls-1" d="M184.28,204.47l1.62-3a1.43,1.43,0,0,0,.15-.39,1.19,1.19,0,0,0-.11-.52,10.58,10.58,0,0,0-1.82-3.47,7.16,7.16,0,0,0,2.39.48l1.63.13a1.51,1.51,0,0,0,.52,0,1.29,1.29,0,0,0,.48-.28,14.9,14.9,0,0,0,2.56-2.76l.45,3.91a1.31,1.31,0,0,0,.18.61,1.19,1.19,0,0,0,.5.38l3.88,2.05a.94.94,0,0,0-.8-.3,2.81,2.81,0,0,0-.85.27l-3,1.31c-.22,1.62-.36,3.26-.42,4.9a23.87,23.87,0,0,0-2.92-3.42.64.64,0,0,0-.26-.18.67.67,0,0,0-.37,0,17.15,17.15,0,0,1-3.65.32c-.06,0-.14,0-.15.07s.12.07.08,0Z"/><path class="cls-1" d="M161,148.73l-.17-2.23a.58.58,0,0,0-.05-.26.72.72,0,0,0-.24-.25,7.15,7.15,0,0,0-2.22-1.27,4.69,4.69,0,0,0,1.48-.57l.94-.5a1,1,0,0,0,.28-.2.85.85,0,0,0,.17-.31,9.46,9.46,0,0,0,.43-2.42l1.63,2a.74.74,0,0,0,.31.27.68.68,0,0,0,.4,0l2.86-.23a.59.59,0,0,0-.55.12,1.77,1.77,0,0,0-.37.44l-1.17,1.76c.45,1,1,1.92,1.49,2.85a16.28,16.28,0,0,0-2.81-.86.46.46,0,0,0-.2,0,.49.49,0,0,0-.21.14,10.66,10.66,0,0,1-1.89,1.45s-.07.06-.06.1.09,0,0,0Z"/><path class="cls-1" d="M135,219.86l.5-.93a.5.5,0,0,0,.05-.13.53.53,0,0,0,0-.16,3.22,3.22,0,0,0-.56-1.07,2.31,2.31,0,0,0,.74.14l.51,0a.43.43,0,0,0,.16,0,.55.55,0,0,0,.15-.08,4.61,4.61,0,0,0,.79-.86l.14,1.21a.39.39,0,0,0,.06.19.3.3,0,0,0,.15.12l1.21.64a.3.3,0,0,0-.25-.1.86.86,0,0,0-.27.09l-.92.4c-.07.51-.11,1-.13,1.52a7.61,7.61,0,0,0-.91-1.06.16.16,0,0,0-.08,0,.14.14,0,0,0-.11,0,6.09,6.09,0,0,1-1.13.1s-.05,0-.05,0,0,0,0,0Z"/><path class="cls-1" d="M120.5,176.57l1-2a.77.77,0,0,0,.1-.25.8.8,0,0,0-.07-.34,7,7,0,0,0-1.19-2.26,4.61,4.61,0,0,0,1.56.31l1.06.09a1,1,0,0,0,.34,0,1,1,0,0,0,.32-.18,10.19,10.19,0,0,0,1.67-1.8l.29,2.55a.83.83,0,0,0,.11.4.88.88,0,0,0,.33.24l2.53,1.34a.63.63,0,0,0-.52-.2,1.84,1.84,0,0,0-.56.18l-1.93.85a31.16,31.16,0,0,0-.28,3.2,15,15,0,0,0-1.91-2.23.38.38,0,0,0-.16-.12.43.43,0,0,0-.25,0,11.11,11.11,0,0,1-2.37.2s-.09,0-.1,0,.07,0,0,0Z"/><path class="cls-1" d="M144.69,180a4.72,4.72,0,0,0,1.6,7.45,2.44,2.44,0,0,0,1.57.22,3.22,3.22,0,0,0,1.13-.62,5.66,5.66,0,0,0,2.53-3c.42-1.84-1.11-3.61-2.83-4.38-1.26-.56-2.93-.69-3.84.34"/><path class="cls-1" d="M122.47,200.48l-.24.58a.43.43,0,0,0,.58-.4.54.54,0,0,0-.62.67.55.55,0,0,0,.91.13c-.1-.51-.44-1.16-.93-1s-.42.75-.11,1a1.81,1.81,0,0,0,1.19.38,1,1,0,0,0-.15-1.26c-.34,0-.72.27-.63.6s.71.31.69,0"/><path class="cls-1" d="M135.79,141.81c.13.18.44-.12.29-.29s-.46,0-.51.19a.62.62,0,0,0,.26.58.81.81,0,0,0,1,.09.6.6,0,0,0-.34-1,.56.56,0,1,0,.52.5.66.66,0,0,0-1.07-.31.85.85,0,0,0,.13,1.21.74.74,0,0,0,.79.1.49.49,0,0,0,.15-.72c-.19-.2-.63-.06-.61.22a.32.32,0,0,0,.55.18"/><path class="cls-1" d="M172.7,181.44l.57.45a.67.67,0,1,0-.57.24c.39,0,.78-.42.61-.78s-.86-.24-.84.16a.79.79,0,0,0,.55.19.56.56,0,0,0,.18-.53c-.4-.21-.85.48-.5.76a.68.68,0,0,0,.58-.25"/><path class="cls-1" d="M130,251.41a.44.44,0,0,0-.3.52c.38.27,1,.48,1.2,0s-.59-.72-.94-.41a.7.7,0,0,0-.17.86.52.52,0,0,0,.81.1c.2-.25,0-.71-.35-.65l.52.33"/><path class="cls-1" d="M165.3,217.06c-.31,0-.45.47-.2.66a.49.49,0,0,0,.71-.32.67.67,0,0,0-.46-.72.8.8,0,0,0-1,.69.71.71,0,0,0,1,.6.64.64,0,0,0-.2-1.11.55.55,0,0,0-.28.73.54.54,0,0,0,.74.22.33.33,0,0,0-.55-.12"/><path class="cls-1" d="M191.25,230.74a.86.86,0,0,0-1.09-.16c0,.2.42.12.37-.07-.07.34.43.61.71.41a.6.6,0,0,0,0-.91.86.86,0,0,0-1,0,1.06,1.06,0,0,0,.36.69c.23.15.62,0,.58-.26"/><path class="cls-1" d="M191.67,181l.78-6.67"/><path class="cls-1" d="M179.1,147.37a53.82,53.82,0,0,1,1.36-7.55"/><path class="cls-1" d="M152.52,128a34.81,34.81,0,0,0,6.91-1.59"/><path class="cls-1" d="M100.86,158.17q5.6.41,11.21.57"/><path class="cls-1" d="M79.63,241.3a90,90,0,0,1,10.74-25"/><path class="cls-1" d="M113.16,274a15.44,15.44,0,0,0,.93-4.28A148.8,148.8,0,0,1,118,250"/><path class="cls-1" d="M166.67,248.53a116.41,116.41,0,0,1-5.85-10.83"/><path class="cls-1" d="M133.93,208.83a34.92,34.92,0,0,1,20.95-4"/><path class="cls-1" d="M106.1,200.5a86.2,86.2,0,0,1,2.81-18.12"/><path class="cls-1" d="M125.39,135a31.22,31.22,0,0,1,19-11"/><path class="cls-1" d="M137.09,161.8c7-1.09,13.76,2.84,20.81,3.18"/><path class="cls-1" d="M205.13,211.22a1.66,1.66,0,0,0-1.52-.06A53.37,53.37,0,0,0,211.19,200"/><path class="cls-1" d="M202,189.54a151.26,151.26,0,0,1,15.32-15.06"/><path class="cls-1" d="M186.09,252.84c-3.14-5.76-3.73-12.52-4.25-19.05"/><path class="cls-1" d="M135.57,240.05q4,3.44,7.6,7.21"/><path class="cls-1" d="M118.86,231.14a88.65,88.65,0,0,1-.77-11.85"/><path class="cls-1" d="M97.48,265.64a72,72,0,0,1,4.45-16.9"/><path class="cls-1" d="M94.25,183.22l-.18.39"/><path class="cls-1" d="M131.54,120.8a66.35,66.35,0,0,1,5.22-17.48"/><path class="cls-1" d="M24.2,220l2,.11a.7.7,0,0,0,.25,0,.79.79,0,0,0,.25-.19,6.54,6.54,0,0,0,1.41-1.87,4.3,4.3,0,0,0,.35,1.41l.34.92a1.22,1.22,0,0,0,.14.28.88.88,0,0,0,.27.19,9.29,9.29,0,0,0,2.15.68l-2,1.23a.79.79,0,0,0-.29.25.91.91,0,0,0-.08.37L28.91,226a.54.54,0,0,0,0-.51,1.49,1.49,0,0,0-.36-.39l-1.46-1.28q-1.41.45-2.76,1a14.6,14.6,0,0,0,1.11-2.45.33.33,0,0,0-.07-.38,10.18,10.18,0,0,1-1.09-1.89s0-.07-.08-.07,0,.08,0,.05Z"/><path class="cls-1" d="M48.41,193.32l1.15-.66a.32.32,0,0,0,.13-.1.41.41,0,0,0,.08-.19,4.33,4.33,0,0,0,.12-1.52,2.63,2.63,0,0,0,.68.65l.51.39a.64.64,0,0,0,.18.1.5.5,0,0,0,.21,0,5.85,5.85,0,0,0,1.42-.38L52.23,193a.42.42,0,0,0-.07.24.53.53,0,0,0,.08.23L53.1,195a.38.38,0,0,0-.21-.27,1.24,1.24,0,0,0-.33-.09l-1.25-.18c-.41.49-.8,1-1.16,1.53a9.24,9.24,0,0,0-.25-1.74.22.22,0,0,0,0-.11.32.32,0,0,0-.12-.08,6.92,6.92,0,0,1-1.27-.65s-.05,0-.06,0,0,.05,0,0Z"/><path class="cls-1" d="M1.33,198.91l1.33.07h.16a.42.42,0,0,0,.16-.13,3.85,3.85,0,0,0,.92-1.21,3,3,0,0,0,.23.92l.23.59a.38.38,0,0,0,.09.18.43.43,0,0,0,.17.13,6.16,6.16,0,0,0,1.4.44l-1.3.81a.49.49,0,0,0-.19.16.64.64,0,0,0,0,.24l-.08,1.71a.37.37,0,0,0,0-.34.9.9,0,0,0-.23-.25l-.95-.83q-.91.29-1.8.66a9.46,9.46,0,0,0,.72-1.59.25.25,0,0,0,0-.12.22.22,0,0,0-.06-.13A7.6,7.6,0,0,1,1.35,199s0,0-.05,0,0,0,0,0Z"/><path class="cls-1" d="M23.08,178.49l1.33.07a.29.29,0,0,0,.16,0,.45.45,0,0,0,.16-.12,4.18,4.18,0,0,0,.92-1.22,3,3,0,0,0,.23.92l.22.6a.64.64,0,0,0,.1.18.52.52,0,0,0,.17.12,5.72,5.72,0,0,0,1.4.45l-1.3.8a.45.45,0,0,0-.19.17.46.46,0,0,0-.05.23l-.08,1.71a.35.35,0,0,0,0-.33,1.1,1.1,0,0,0-.23-.25l-1-.84c-.61.2-1.21.42-1.79.67a9.56,9.56,0,0,0,.72-1.6.25.25,0,0,0,0-.12.52.52,0,0,0-.06-.13,6.09,6.09,0,0,1-.72-1.23s0-.05-.05,0,0,0,0,0Z"/><path class="cls-1" d="M27.36,192.44a2.82,2.82,0,0,0-3.62,2.75,1.43,1.43,0,0,0,.27.9,2,2,0,0,0,.63.46,3.43,3.43,0,0,0,2.27.6,2.53,2.53,0,0,0,1.64-2.64,2,2,0,0,0-1.16-2"/><path class="cls-1" d="M10.66,185.63l-.37,0a.26.26,0,0,0,.37.21.33.33,0,0,0-.53-.17.33.33,0,0,0,.17.53c.24-.19.51-.53.3-.76s-.52,0-.6.21a1.13,1.13,0,0,0,.1.74.56.56,0,0,0,.64-.4.33.33,0,0,0-.49-.19c-.15.13,0,.46.2.37"/><path class="cls-1" d="M45.73,177.93c-.06.11.18.2.23.08s-.1-.25-.23-.22-.21.15-.25.28a.48.48,0,0,0,.21.57.35.35,0,0,0,.45-.44.33.33,0,1,0-.13.41.4.4,0,0,0-.11-.66.52.52,0,0,0-.62.38.44.44,0,0,0,.15.45.29.29,0,0,0,.43-.1c.06-.16-.13-.35-.28-.27a.19.19,0,0,0,.05.34"/><path class="cls-1" d="M33.7,207.92l-.1.43a.42.42,0,0,0,.37-.68.42.42,0,0,0-.64.43.36.36,0,0,0,.57.13c.15-.18-.09-.53-.3-.42a.52.52,0,0,0,0,.35.35.35,0,0,0,.33,0c0-.27-.47-.34-.54-.08a.43.43,0,0,0,.29.25"/><path class="cls-1" d="M12.58,213c-.06-.17-.37-.13-.41.06a.29.29,0,0,0,.36.3.4.4,0,0,0,.27-.43.47.47,0,0,0-.63-.38.42.42,0,0,0-.06.71.38.38,0,0,0,.54-.39.32.32,0,0,0-.46,0,.33.33,0,0,0,.06.46.19.19,0,0,0-.07-.33"/><path class="cls-1" d="M11.78,230.46a.52.52,0,0,0-.19-.63c-.1.07,0,.26.14.18a.28.28,0,0,0-.05.49.35.35,0,0,0,.49-.23.5.5,0,0,0-.24-.54.64.64,0,0,0-.28.37c0,.16.16.33.29.25"/><path class="cls-1" d="M38.78,218.05l3.79-1.28"/><path class="cls-1" d="M53.72,202.73a34.07,34.07,0,0,1,4.43-1.19"/><path class="cls-1" d="M57.43,183.46A20.49,20.49,0,0,0,60,186.79"/><path class="cls-1" d="M28,163.21q1.2,3.14,2.54,6.21"/><path class="cls-1" d="M-4.07,221.7a72,72,0,0,1,4.36-5.91"/><path class="cls-1" d="M9.06,193.94a20.78,20.78,0,0,1,7.49,10.29"/><path class="cls-1" d="M6.5,176.79A51.75,51.75,0,0,1,17,173.71"/><path class="cls-1" d="M46.75,170.59A18.62,18.62,0,0,1,57.52,178"/><path class="cls-1" d="M60.41,202.71a18.62,18.62,0,0,1,10.77,7.45"/><path class="cls-1" d="M39.75,233.7a18.62,18.62,0,0,1,10.76,7.45"/><path class="cls-1" d="M35.27,183.7c2.36,3.49,1.95,8.16,3.56,12.05"/><path class="cls-1" d="M25.85,233a1,1,0,0,0-.36-.83,32.15,32.15,0,0,0,8,1.25"/><path class="cls-1" d="M36.75,225.79a89,89,0,0,1,12,4.45"/><path class="cls-1" d="M-1.46,233.28c2.31-3.15,5.81-5.19,9.21-7.13"/><path class="cls-1" d="M12.82,166h-.26"/><path class="cls-1" d="M56,170.3a39.68,39.68,0,0,1,10.77-1.62"/><path class="cls-1" d="M61.54,196.47c-.07.11.17.2.22.08s-.1-.25-.23-.22-.21.15-.25.28a.48.48,0,0,0,.22.57.34.34,0,1,0-.18-.42.35.35,0,0,0,.49.39.4.4,0,0,0-.11-.66.51.51,0,0,0-.61.38.43.43,0,0,0,.14.45.29.29,0,0,0,.43-.1c.06-.16-.13-.35-.28-.27s-.1.31,0,.34"/><path class="cls-1" d="M240.6,229.37l1.15-.66a.45.45,0,0,0,.13-.1.41.41,0,0,0,.08-.19,4.35,4.35,0,0,0,.12-1.52,2.68,2.68,0,0,0,.69.65l.5.38a.67.67,0,0,0,.18.11.74.74,0,0,0,.21,0,6.34,6.34,0,0,0,1.42-.38l-.66,1.38a.4.4,0,0,0-.07.24.45.45,0,0,0,.08.22l.86,1.49a.34.34,0,0,0-.21-.27,1.24,1.24,0,0,0-.33-.09l-1.25-.19c-.41.5-.8,1-1.16,1.53a9.25,9.25,0,0,0-.25-1.73.36.36,0,0,0,0-.11.35.35,0,0,0-.13-.08,6.92,6.92,0,0,1-1.27-.65.07.07,0,0,0-.06,0s0,0,0,0Z"/><path class="cls-1" d="M281.31,221.93l1.12.71a.37.37,0,0,0,.14.07.38.38,0,0,0,.21,0,4.39,4.39,0,0,0,1.4-.61,2.88,2.88,0,0,0-.26.91l-.1.63a.74.74,0,0,0,0,.21,1.11,1.11,0,0,0,.09.19,6,6,0,0,0,1,1.08l-1.53.05a.64.64,0,0,0-.24,0,.58.58,0,0,0-.16.19l-.91,1.44a.36.36,0,0,0,.14-.3,1.05,1.05,0,0,0-.08-.34L281.7,225c-.63-.13-1.26-.23-1.89-.31a9.42,9.42,0,0,0,1.41-1l.08-.09a.38.38,0,0,0,0-.15,6.74,6.74,0,0,1,0-1.42s0-.06,0-.06,0,0,0,0Z"/><path class="cls-1" d="M30.2,186.62c-.07.12.18.21.23.09s-.11-.26-.24-.23a.36.36,0,0,0-.24.29.48.48,0,0,0,.21.57.37.37,0,0,0,.45-.45.36.36,0,0,0-.63,0,.35.35,0,0,0,.49.38.39.39,0,0,0-.1-.65.51.51,0,0,0-.62.38.44.44,0,0,0,.14.45.3.3,0,0,0,.43-.1c.06-.16-.13-.36-.27-.28a.2.2,0,0,0,0,.35"/><path class="cls-1" d="M35.36,178.48c-.07.12.18.21.23.08s-.1-.25-.23-.22a.37.37,0,0,0-.25.29.47.47,0,0,0,.21.56.35.35,0,0,0,.45-.44.35.35,0,0,0-.62,0c-.09.25.26.52.49.38a.39.39,0,0,0-.11-.65.51.51,0,0,0-.62.37.44.44,0,0,0,.15.46.29.29,0,0,0,.42-.11c.06-.15-.12-.35-.27-.27a.19.19,0,0,0,0,.34"/><path class="cls-1" d="M4.77,249.24l2-.59a.8.8,0,0,0,.23-.1.71.71,0,0,0,.18-.27,6.36,6.36,0,0,0,.69-2.23,4.08,4.08,0,0,0,.81,1.21l.63.74a1.2,1.2,0,0,0,.23.22.79.79,0,0,0,.31.08,8.92,8.92,0,0,0,2.25-.08l-1.46,1.84a.72.72,0,0,0-.18.33.79.79,0,0,0,.05.37l.77,2.5a.51.51,0,0,0-.21-.46,1.51,1.51,0,0,0-.47-.25l-1.81-.7q-1.17.9-2.25,1.89a14.08,14.08,0,0,0,.22-2.67.58.58,0,0,0,0-.19.5.5,0,0,0-.17-.15,11.17,11.17,0,0,1-1.67-1.4s-.06-.06-.1,0,0,.08,0,0Z"/><path class="cls-1" d="M44.24,288.75l2,.11a.69.69,0,0,0,.25,0,.58.58,0,0,0,.25-.19,6.39,6.39,0,0,0,1.42-1.86,4.17,4.17,0,0,0,.35,1.41l.34.91a.66.66,0,0,0,.41.47,8.89,8.89,0,0,0,2.14.68l-2,1.24a.68.68,0,0,0-.28.25.66.66,0,0,0-.08.36l-.13,2.62a.52.52,0,0,0,0-.51,1.66,1.66,0,0,0-.36-.39l-1.46-1.27c-.93.29-1.85.63-2.76,1a14.08,14.08,0,0,0,1.11-2.44.65.65,0,0,0,0-.19.54.54,0,0,0-.1-.2,10.47,10.47,0,0,1-1.1-1.89s0-.07-.08-.06,0,.08,0,0Z"/><path class="cls-1" d="M68.44,262l1.16-.65.13-.1a.49.49,0,0,0,.07-.19,4.14,4.14,0,0,0,.12-1.52,3,3,0,0,0,.69.65l.51.38a.59.59,0,0,0,.17.1.55.55,0,0,0,.22,0,5.36,5.36,0,0,0,1.41-.38l-.66,1.38a.55.55,0,0,0-.07.24.5.5,0,0,0,.09.23l.85,1.48a.35.35,0,0,0-.2-.26,1,1,0,0,0-.34-.09l-1.25-.19c-.41.49-.79,1-1.16,1.53a8.4,8.4,0,0,0-.25-1.73.28.28,0,0,0,0-.12.4.4,0,0,0-.13-.07,6.83,6.83,0,0,1-1.26-.65,0,0,0,0,0-.07,0s0,0,0,0Z"/><path class="cls-1" d="M21.36,267.63l1.33.07a.49.49,0,0,0,.17,0,.45.45,0,0,0,.16-.12,4.18,4.18,0,0,0,.92-1.22,3,3,0,0,0,.23.92l.22.6a.61.61,0,0,0,.09.18.57.57,0,0,0,.18.12,5.59,5.59,0,0,0,1.4.45l-1.31.8a.56.56,0,0,0-.18.16.49.49,0,0,0-.05.24l-.08,1.71a.35.35,0,0,0,0-.33,1.43,1.43,0,0,0-.23-.26l-1-.83c-.61.2-1.21.42-1.8.67a9.6,9.6,0,0,0,.73-1.6.5.5,0,0,0,0-.12.33.33,0,0,0-.07-.13,6.55,6.55,0,0,1-.71-1.23s0-.05-.05,0,0,0,0,0Z"/><path class="cls-1" d="M43.11,247.22l1.33.07a.41.41,0,0,0,.16,0,.41.41,0,0,0,.17-.12,4.31,4.31,0,0,0,.92-1.21,2.77,2.77,0,0,0,.23.92l.22.59a.51.51,0,0,0,.09.18.46.46,0,0,0,.18.13,6.08,6.08,0,0,0,1.39.44l-1.3.81a.58.58,0,0,0-.19.16.64.64,0,0,0-.05.24l-.08,1.71a.37.37,0,0,0,0-.34,1.13,1.13,0,0,0-.24-.25l-1-.83q-.91.28-1.8.66a9.46,9.46,0,0,0,.72-1.59.27.27,0,0,0,0-.12.33.33,0,0,0-.07-.13,7.6,7.6,0,0,1-.72-1.23s0,0-.05,0,0,0,0,0Z"/><path class="cls-1" d="M47.39,261.16a2.83,2.83,0,0,0-3.62,2.75,1.53,1.53,0,0,0,.28.91,2,2,0,0,0,.62.45,3.4,3.4,0,0,0,2.28.6,2.54,2.54,0,0,0,1.64-2.63,2,2,0,0,0-1.16-2"/><path class="cls-1" d="M30.7,254.35l-.38,0a.26.26,0,0,0,.37.21.31.31,0,1,0-.36.36c.25-.19.52-.53.31-.76s-.52,0-.6.21a1.07,1.07,0,0,0,.09.74.57.57,0,0,0,.65-.4c-.07-.19-.33-.32-.49-.19s0,.46.2.37"/><path class="cls-1" d="M65.77,246.65c-.07.12.18.21.23.08s-.11-.25-.24-.22a.36.36,0,0,0-.24.29.47.47,0,0,0,.21.56.34.34,0,1,0-.18-.41c-.08.25.27.53.49.38a.38.38,0,0,0-.1-.65.51.51,0,0,0-.62.38.43.43,0,0,0,.15.45.29.29,0,0,0,.42-.11c.06-.15-.12-.35-.27-.27a.19.19,0,0,0,0,.34"/><path class="cls-1" d="M53.74,276.65l-.11.42c.34.09.64-.44.38-.68s-.77.1-.65.43a.36.36,0,0,0,.58.13c.15-.18-.09-.52-.3-.41a.48.48,0,0,0,0,.35.36.36,0,0,0,.33,0c0-.27-.48-.34-.54-.08a.43.43,0,0,0,.28.25"/><path class="cls-1" d="M5.1,271.35a.25.25,0,0,0-.35,0c-.06.28,0,.68.27.66s.24-.5,0-.61a.43.43,0,0,0-.51.13.3.3,0,0,0,.15.46c.18.05.37-.2.26-.35l0,.36"/><path class="cls-1" d="M32.62,281.7c-.06-.18-.37-.13-.41.05a.29.29,0,0,0,.35.31.42.42,0,0,0,.28-.44.49.49,0,0,0-.64-.38.43.43,0,0,0-.06.71.38.38,0,0,0,.55-.39.34.34,0,0,0-.47,0,.33.33,0,0,0,.07.46.19.19,0,0,0-.07-.32"/><path class="cls-1" d="M31.82,299.18a.52.52,0,0,0-.19-.63c-.1.07,0,.26.13.19-.2.05-.22.38,0,.49a.36.36,0,0,0,.49-.24.53.53,0,0,0-.24-.54.63.63,0,0,0-.28.37c0,.16.15.34.29.25"/><path class="cls-1" d="M58.81,286.77l3.8-1.27"/><path class="cls-1" d="M73.76,271.46a32,32,0,0,1,4.42-1.19"/><path class="cls-1" d="M77.46,252.19a20.47,20.47,0,0,0,2.62,3.32"/><path class="cls-1" d="M48.06,231.94c.81,2.08,1.65,4.15,2.54,6.2"/><path class="cls-1" d="M-2.23,241.58A53.82,53.82,0,0,1,14,241"/><path class="cls-1" d="M-11.35,268a9.36,9.36,0,0,0,2.55-.59,88,88,0,0,1,11.64-2.9"/><path class="cls-1" d="M16,290.42a71.36,71.36,0,0,1,4.36-5.91"/><path class="cls-1" d="M29.1,262.66A20.85,20.85,0,0,1,36.59,273"/><path class="cls-1" d="M26.53,245.52A51.24,51.24,0,0,1,37,242.43"/><path class="cls-1" d="M66.79,239.32a18.53,18.53,0,0,1,10.76,7.45"/><path class="cls-1" d="M80.45,271.43a18.62,18.62,0,0,1,10.76,7.45"/><path class="cls-1" d="M59.78,302.43a18.59,18.59,0,0,1,10.77,7.45"/><path class="cls-1" d="M55.3,252.43c2.36,3.49,2,8.15,3.57,12"/><path class="cls-1" d="M45.89,301.72a1,1,0,0,0-.36-.83,32.08,32.08,0,0,0,8,1.25"/><path class="cls-1" d="M56.79,294.51a88.4,88.4,0,0,1,12,4.45"/><path class="cls-1" d="M18.57,302c2.32-3.15,5.82-5.18,9.21-7.13"/><path class="cls-1" d="M12.65,271.47c-.56,2-1.22,4-2,5.94"/><path class="cls-1" d="M13.22,260.19a52.88,52.88,0,0,1,6.21-3.43"/><path class="cls-1" d="M32.85,234.73H32.6"/><path class="cls-1" d="M76,239A39.6,39.6,0,0,1,86.8,237.4"/></g></mask></defs><g class="cls-2"><text class="cls-3" transform="translate(39.55 261.27)">NEANKE</text><text class="cls-4" transform="translate(42.78 206.2)">STUDIO </text></g></svg>