<svg id="Laag_1" data-name="Laag 1" xmlns="http://www.w3.org/2000/svg" xmlns:xlink="http://www.w3.org/1999/xlink" viewBox="0 0 400 400"><defs><style>.cls-1,.cls-15,.cls-16{fill:none;}.cls-2{clip-path:url(#clip-path);}.cls-3{fill:#001c56;}.cls-10,.cls-11,.cls-12,.cls-13,.cls-14,.cls-16,.cls-3,.cls-4,.cls-5,.cls-6,.cls-7,.cls-8{opacity:0.9;}.cls-4{fill:#83525f;}.cls-5{fill:#c5c2b2;}.cls-18,.cls-6{fill:#e57897;}.cls-7{fill:#a8cbbf;}.cls-8{fill:#c05d64;}.cls-17,.cls-9{fill:#e9c1b9;}.cls-15,.cls-16,.cls-9{stroke:#dba6a6;}.cls-10,.cls-15,.cls-16,.cls-9{stroke-miterlimit:10;}.cls-10{fill:#001c57;stroke:#001c57;}.cls-11{fill:#b14c5e;}.cls-12{fill:#a7ccc4;}.cls-13{fill:#0a1c56;}.cls-14{fill:#ead6b6;}</style><clipPath id="clip-path"><rect class="cls-1" x="124.64" y="-402.96" width="156.22" height="344.99"/></clipPath></defs><g class="cls-2"><path class="cls-3" d="M82.84,117S103,26.41,107.38-3.26s18.68-85,19-101.08,6.23-119.4,6.23-119.4A96.62,96.62,0,0,0,142.17-242c3.3-9.16,6.23-38.46,6.23-38.46L162-339.11l1.83-5.86h4l-15,65.56-3.29,27.83s-4.77,23.44-8.43,26.37-4,21-4,21-2.56,101.38-4.76,105.41L88.68,117Z"/></g><path class="cls-4" d="M186.23,397.26s9.52-14.09,16.08-16.42c0,0,1,13.59-2.89,16.42Z"/><path class="cls-5" d="M256.08,68.89s-1.22-5.81,2.85-3.87,1.63,3.46.72,3.87S257.1,69.8,256.08,68.89Z"/><path class="cls-6" d="M132.56,175.52s56.07-5.05,65.22,32.6l.3,5.91A132.37,132.37,0,0,0,162,197.69S136.83,174.31,132.56,175.52Z"/><path class="cls-7" d="M208.39,134.64S192.12,101,181.22,110s-.54,27.42,15,26.94S208.39,134.64,208.39,134.64Z"/><path class="cls-7" d="M247.51,114.75s-20.08-9.08-22.79,6.54-4.32,23.54,2.87,25.82,18.87-8.45,19.92-16.26A72.34,72.34,0,0,0,247.51,114.75Z"/><path class="cls-7" d="M217.3,104.1s2.84-6.88,5.13-6.08,16,14.81,22.85,11.79c0,0,35.85.48,30.59-13.54s-29-14.61-29-14.61-21-2.76-21.49,2.18c0,0-5.1,7.08-3.83,9.12l.16,2.6-3.54,4.82Z"/><path class="cls-7" d="M214.16,102.32S210.72,92,209.83,93s0-.84,0-.84S212,75.87,197.5,66.47c0,0-7.52-9.88-9.28-16.42S177,44.31,175.83,51.33s-2.67,15.8-.77,17.69-1.66,7.74-1.66,7.74-1.24,20.94,4,22.06,32.33,1.61,32.43-3.26l4.09,9.43Z"/><path class="cls-8" d="M199.07,165.21s-4.75-5.67-10.69-4.69a9.1,9.1,0,0,0-7.25,6.5s-11.54,19.43-41.28,15c0,0-3-15.06,36.56-21.79,0,0,12.63-.88,13.27-1.86s-16.24-4.13-22.43-1.9-18.2,10.73-36.39,3.23c0,0,8.74-7.64,30.13-8.35,0,0,14.24-.17,21.46,1.82,0,0-6-6.93-24.53-6.67,0,0-29,10.39-31.24,8.25s8.79-8.31,25.31-10.7l15.3.38s-1-3.18-19.36-3.47c0,0-30.54,6.58-34.22-1s39.63-2,39.63-2-.91-2.37-6.92-3.91-34.43-3.41-39-17.08,29.19,9.37,29.19,9.37,9.55,7.35,13.37,6.75c0,0-6.77-15.59-6.94-16.87s.71-11.64,4.4-12.47,5.76,14.36,4.59,24.93c0,0,10.3,13.33,21.72,16.78,0,0-19.08-16.71-13.3-24,0,0,6-.73,10.67,12.28s16.55,18.6,16.55,18.6-7.27-21.14-13.93-24.92-22.68-15.34-15.32-18.27,18.27,16.46,18.27,16.46-2.36-11.67-5.45-13.08S155.39,97.29,162,95s13.49,15.25,13.49,15.25-6.88-27.42,4.23-25.33,2.09,23.23,2.09,23.23,7.17-15.68,10.85-13-1.1,11.26-1.1,11.26-10.38,9-8.91,13c0,0,5.42-11.24,13.17-10.58S185,123.67,185,123.67s-3.56,9.08,1.54,16.28c0,0,4-18.12,9.54-17.08s1.63,10.34,1.63,10.34A99.44,99.44,0,0,1,190.75,144s-4.43,9.37,8.47,16.89Z"/><path class="cls-9" d="M97.27,397.26s64.37-34,64.37-39.59,4.55-9.45,4.55-9.45,4.42-75.93,15.11-83.28c0,0,9.8-26.06,10.69-25.83s14.92-2.68,14.92-2.68,2.9,21.16,1.34,23.39-6.68,16.25-6.68,16.25-.89,7.58,0,8.47,44.85,35.8,44.85,35.8l-7,29.38S230.13,364.84,229,366s-8.65,9.6-11.45,11.92-8,5.82-8.32,7.27-9.89,12.06-9.89,12.06h-102Z"/><path class="cls-10" d="M164.54,397.26s13.92-62.57,17-83.06,12.91-58.69,13.16-69.82S199,161.9,199,161.9a66.38,66.38,0,0,0,6.58-12.65c2.27-6.32,4.3-26.56,4.3-26.56l9.36-40.48,1.26-4h2.79l-10.38,45.28-2.27,19.23s-3.29,16.19-5.82,18.21S202,175.36,202,175.36s-1.78,70-3.29,72.81L168.58,397.26Z"/><path class="cls-11" d="M175,348.6s-17.09-30.69-35.61-34.71c0,0-2.9,16.51,8.48,22.54S175,348.6,175,348.6Z"/><path class="cls-12" d="M149,370.9s20.91,13,19.59,29.36h-9.76S144.25,374,149,370.9Z"/><path class="cls-13" d="M200.29,226.47s5.44-6.65,11.52-4.76,6.95,9,6.95,9S229,256.45,260.3,254c0,0,4.49-18.68-36-31.41,0,0-13-2.47-13.61-3.77s17.22-3.47,23.45,0,18,15.49,37.49,8c0,0-8.4-10.56-30.54-13.75,0,0-14.77-1.74-22.44,0,0,0,6.8-8.1,26.06-5.79,0,0,29.24,16.21,31.7,13.75S268,209.55,251,204.77l-15.92-1.16s1.3-3.91,20.41-2.31c0,0,31.12,11.58,35.61,2.46s-41-6.81-41-6.81,1.15-2.89,7.52-4.19,36.05-.63,42-17.4-31.12,8.71-31.12,8.71-10.57,8.25-14.48,7.09c0,0,8.4-19,8.69-20.55s.29-14.76-3.47-16.21-7.24,17.51-7,31c0,0-11.87,15.72-24,18.87,0,0,21.28-19.06,15.92-28.88,0,0-6.22-1.57-12.16,14.36a39.85,39.85,0,0,1-18.81,21.71s9.4-25.91,16.64-30,24.9-16.94,17.52-21.43S227,178.86,227,178.86s3.47-14.47,6.8-15.92,17.8-17.52,11.15-21.14-15.35,17.81-15.35,17.81,9.56-33.87-2.17-32.42-4.2,29.09-4.2,29.09-6.08-20.55-10.13-17.51.15,14.33.15,14.33,10,12.44,8.1,17.37c0,0-4.63-14.77-12.74-14.77s10,19.86,10,19.86,2.9,11.84-3,20.38c0,0-2.6-23.3-8.39-22.58s-2.61,12.88-2.61,12.88,3.62,9.7,6.22,14.33c0,0,3.78,12.31-10.27,20.41Z"/><path class="cls-7" d="M153.35,178.87s40.86,8,47.8,24.72v5.32s-6.74-10.84-22.33-11.79S153.35,178.87,153.35,178.87Z"/><path class="cls-6" d="M201.48,193.2s11.1-36.6,12.68-36.68c0,0-6.29,5.41-6.34,7.37s-1.65-19.16-6.34-19.16S199,161.9,199,161.9s-8.21-9-8.71-14.22c0,0,5.57-20.8,1.15-22.44S188,146.7,188,146.7s1.15-23.75-6.71-23.59,0,18.51,0,18.51-12.12-16.18-29.81-14.48c0,0,15.61,13.82,25.82,18.57,0,0-40.4-21.94-36.31-3.44,0,0,9.5-.16,9.5,2.3s-8.19,2-8.19,2-.81,9.83,18,8.36c0,0,18.18-.82,21.29,2.29,0,0-30.13-.17-31.44,9.17s27.18,4.42,34.23,1,16.8,9.33,16.8,9.33-14.89-7.46-17.92-3.42S201.48,193.2,201.48,193.2Z"/><path class="cls-8" d="M210.9,140.05s9.93-44.16,21.36-39.47c0,0-1.17,7.33-6.89,16.28,0,0,12.76-7.19,13.34-9.53s6.16-24.93,9.54-21.12-5.58,18.62-5.58,18.62,14.67-24.19,22.88-18.18-15.25,17.16-15.25,17.16,28.74-4.84,32,1.61-30.94,4.25-30.94,4.25,34.31.44,36.65,11.29-10.7.44-10.7.44,8.21,6.75,5,8.22-44.58-11.44-44.58-11.44S273,132,267.31,141.64s-35.05-16.28-35.05-16.28S222,122,216.72,129.91c0,0,17.74-1.32,18.33,3.81S210.9,140.05,210.9,140.05Z"/><path class="cls-13" d="M212.25,112.2l-1.35-2.78s3.17-14.46-8.6-16.33,7.22,17,7.22,17l2.49,3.16Z"/><line class="cls-13" x1="182.75" y1="89.88" x2="210.43" y2="120.11"/><line class="cls-13" x1="198.45" y1="103.1" x2="210.9" y2="116.51"/><line class="cls-13" x1="185.16" y1="104.1" x2="209.83" y2="122.69"/><path class="cls-13" d="M199.35,89.88S186.23,79,189.58,93.76s10.71,8.3,10.71,8.3S203.1,95.36,199.35,89.88Z"/><path class="cls-13" d="M185.16,73.68s-2.58,15.53,7.54,16.6S192.79,72.21,185.16,73.68Z"/><path class="cls-13" d="M179.94,63s-9.1,15.93,2.81,18.47S179.94,63,179.94,63Z"/><path class="cls-13" d="M180.61,78.17s-13-9-14.05,0S177.4,89.88,177.4,89.88,188.91,94.56,180.61,78.17Z"/><path class="cls-13" d="M163.21,81.66s-13.8,5.14,1.33,11.3,9-8.84,9-8.84S169.37,78.66,163.21,81.66Z"/><path class="cls-13" d="M172.45,92s-7.56,7.09,2.31,10.57,13.2,3.48,7.25-6.82S172.45,92,172.45,92Z"/><path class="cls-13" d="M164.54,100.85s-21.28,7.1,0,9.64S171.81,97.51,164.54,100.85Z"/><path class="cls-8" d="M273.48,63.76s14.19-26.14-8.28-24.23c0,0,3.82-15.14-13.71-12.11,0,0-.48-23.74-23.74-8.76,0,0-12.05-18.17-23.08-1.76,0,0-13.75,12.59-7.69,24.23s19.13,29.48,19.13,29.48,20.08,10.81,29.64,7.56S273.48,63.76,273.48,63.76Z"/><path class="cls-6" d="M201.3,15s-10.06-3.5-10.37,7.65,2.87,44,25.5,54.12S266,76,266,76s15.78-12.11,6.22-16.89S256,63,256,63s-3.65-4.95-6.37-1.92-12.91,15.71-12.91,15.71-3.35,0,1.12-4.44,20.64-25.14-2.59-22.91c0,0-2.35,2.06-.92-3.83s-12.43-5.27-15,0S217.51,63,217.51,63s-2.44-20.09-3.35-27.1-5.46-8-5.46-8S208.64,18.66,201.3,15Z"/><path class="cls-14" d="M220.77,27.15s-4.83.86-1.5,3.87S220.77,27.15,220.77,27.15Z"/><path class="cls-14" d="M225.61,27.69s-.32-5.27,3.76-2.47-1.88,3.65-1.88,3.65S225.93,29.62,225.61,27.69Z"/><path class="cls-14" d="M223.89,34.78s.67-6.13,4.31-1.72S223.89,34.78,223.89,34.78Z"/><path class="cls-14" d="M233.78,35.59s-.66-4.88,2.89-3.81S238.4,36.29,233.78,35.59Z"/><path class="cls-14" d="M240.55,31.78s-1.08-3.76,3.22-2.32S240.55,31.78,240.55,31.78Z"/><path class="cls-14" d="M244.2,35.1s4-4.37,5.38-3.47,1.28,5-1.19,5A6.9,6.9,0,0,1,244.2,35.1Z"/><path class="cls-14" d="M241.19,43.05s-1.64-7.2,3.91-3.11S241.19,43.05,241.19,43.05Z"/><path class="cls-9" d="M237.6,255.78S218,221.46,188.52,224.94c0,0-5.89,16.91,14.51,19.65,0,0,12.18,5.69,12.93,9.56,0,0-31.68,1.8-42.07,19.55s17.56,1.14,17.56,1.14,25.31-5.29,30.78-.38-15.67,7.44-15.67,7.44-17.56.3-25.49,6.91-19.26,19.07-13.79,24,19.83-7.55,21.53-7.36,13.38-6.72,25.11-4.16-.75,4.54-.75,4.54-29.77-3.38-31.35,6.27.57,15.25,7.74,14.31,11.71-4.14,18.7.1S224.5,340,224.5,340s12.84,14.6,15.75,14.19,11.59-11.22,10.05-18.7c0,0,8.85-7.75,4.28-18.62,0,0,9.56-7.13,2.7-18.35C257.28,298.5,243,259.59,237.6,255.78Z"/><path class="cls-15" d="M250.48,310.67s-19.06-30-32.11-31.23"/><path class="cls-15" d="M246.42,328.3S218,303.09,213.17,305.81"/><path class="cls-16" d="M216,254.15s18.31-2.82,21.64,1.63"/><path class="cls-15" d="M218.37,348.6s-5.86-11.67-3.56-17.36"/><path class="cls-17" d="M222.14,373.35s19.21-17.43,19.59-19.9-9.79-1.45-9.79-1.45Z"/><path class="cls-18" d="M188.52,224.94s10.36,14.54,20.13,3.36A32.25,32.25,0,0,0,188.52,224.94Z"/><path class="cls-18" d="M179.9,268.44s5.08,6.55,1,9.82a13,13,0,0,1-9,2.61S170.27,275,179.9,268.44Z"/><path class="cls-18" d="M172.6,297s5.15,6.29,2.38,10.6-9,3-9,3S163.53,308.15,172.6,297Z"/><path class="cls-18" d="M184.72,321.39s9.79-2.47,9.17-6.83a32,32,0,0,0-2.68-8.5s-8.9.34-9.39,4.69S179.87,320.86,184.72,321.39Z"/></svg>