<svg id="Laag_1" data-name="Laag 1" xmlns="http://www.w3.org/2000/svg" xmlns:xlink="http://www.w3.org/1999/xlink" viewBox="0 0 400 400"><defs><style>.cls-1{fill:none;}.cls-2{fill:#ead6b6;}.cls-3{font-size:36px;fill:#001d56;font-family:Bangers-Regular, Bangers;}.cls-4{letter-spacing:-0.04em;}.cls-5{letter-spacing:0em;}.cls-6{letter-spacing:-0.01em;}.cls-7{clip-path:url(#clip-path);}</style><clipPath id="clip-path"><circle class="cls-1" cx="619.72" cy="203.91" r="169.59"/></clipPath></defs><path class="cls-2" d="M257.75,229l69.86,28.81-13.08-54,68.89-22.4-55-38.14,31.6-82-71.67,34.5L251.1,36.23,191.54,73.51,124.47,32.59,95.65,102.44l-78.21,7.5,64.28,53L25.91,239.37l78.21-7.51,13.07,54L201,254.15s7.5,78.21,101.57,112.6C302.54,366.75,234.5,274.61,257.75,229Z"/><text class="cls-3" transform="translate(114.17 134.94)">LET’S CRE<tspan class="cls-4" x="109.11" y="0">A</tspan><tspan class="cls-5" x="123.37" y="0">TE </tspan><tspan x="40.57" y="43.2">S</tspan><tspan class="cls-6" x="56.05" y="43.2">O</tspan><tspan x="73.55" y="43.2">ME </tspan><tspan x="6.84" y="86.4">HAPPINESS! </tspan></text><g class="cls-7"><image width="4000" height="3000" transform="translate(393.23 33.9) scale(0.11)" xlink:href="../../../STUDIO%20NEANKE/Website/Mockups/jcolemockup.jpg"/></g></svg>