<svg id="Laag_1" data-name="Laag 1" xmlns="http://www.w3.org/2000/svg" viewBox="0 0 400 400"><defs><style>.cls-1{fill:#ead6b6;}.cls-2{fill:#fff;}.cls-3{fill:#16172c;}.cls-4{fill:#6e1b57;}.cls-5{fill:#001c57;}.cls-6{fill:#001d56;stroke:#001d56;stroke-miterlimit:10;}</style></defs><path class="cls-1" d="M88.65,337.55l196,28.81L332.31,62s-1.38-3.88-3.65-3.85S135.33,27.75,135.33,27.75Z"/><polygon class="cls-2" points="115.73 275.23 276.45 300.82 310.21 88.77 146.33 62.67 115.73 275.23"/><path class="cls-3" d="M231.87,194.43a.11.11,0,1,0,0-.22.11.11,0,0,0,0,.22Z"/><path class="cls-3" d="M240.42,208.36a.41.41,0,0,0,0-.81.41.41,0,0,0,0,.81Z"/><path class="cls-3" d="M201.09,148.56l-.15.13c-.05,0,0,.12.07.09l.17-.11a.07.07,0,0,0,0-.11.08.08,0,0,0-.11,0Z"/><path class="cls-3" d="M172.4,116.19l.09-.06a.26.26,0,0,0,.12-.12.15.15,0,0,0,0-.17.16.16,0,0,0-.16,0l-.08,0-.07.05-.08.07a.17.17,0,0,0,0,.21.17.17,0,0,0,.21,0Z"/><path class="cls-4" d="M163.17,266.67s41,14.25,71.64,11.36l4.64-29.25-71.64-11.36Z"/><polygon class="cls-5" points="161.26 238.17 182.95 246.2 222.37 252.45 245.93 251.6 236 231.65 235.66 164.32 197.13 158.21 177.91 221.52 161.26 238.17"/><polygon class="cls-1" points="182.95 246.2 222.37 252.45 217.63 233 225.11 165.27 206.81 162.37 194.22 229.67 182.95 246.2"/><path class="cls-4" d="M194.15,158.81s25.52,10.44,44.76,7.1c0,0,10-28.55-17.22-35.1S194.15,158.81,194.15,158.81Z"/><path class="cls-4" d="M199.39,217.64l16.86,2.67s4.86-19.07-5.51-19.61S199.39,217.64,199.39,217.64Z"/><path class="cls-6" d="M203.55,214.81l9.39,1.49s2.7-10.62-3.07-10.93S203.55,214.81,203.55,214.81Z"/><path class="cls-4" d="M208.55,181.71l9.64,1.53S221,172.34,215,172,208.55,181.71,208.55,181.71Z"/><path class="cls-6" d="M210.92,180.1l5.38.85s1.54-6.08-1.76-6.25S210.92,180.1,210.92,180.1Z"/><path class="cls-1" d="M192,274.38s-.09-22.57,10.13-19.79,3.7,22,3.7,22A83.2,83.2,0,0,1,192,274.38Z"/><path class="cls-5" d="M195.66,264.6h-.06a.79.79,0,0,0-.43,0,.59.59,0,0,0-.28.15.52.52,0,0,0-.21.23.81.81,0,0,0-.11.41v.06l0,.23.09.21.14.18.17.13.21.09.23,0,.23,0a.77.77,0,0,0,.3-.15,1.17,1.17,0,0,0,.27-.35.43.43,0,0,0,.06-.22.45.45,0,0,0,0-.23.43.43,0,0,0-.06-.22.35.35,0,0,0-.12-.19.39.39,0,0,0-.15-.16.67.67,0,0,0-.3-.16Z"/></svg>