<svg viewBox="0 0 400 400" xmlns="http://www.w3.org/2000/svg"><path d="m334.83 165.65s-21.53-.44-23.54 1.39-14.63-8.12-27.14-17.44c0 0-7.08-2.36-8-1.35s.93-1 .93-1-6.52-2.88-11.61-.79-28.18 4.14-28.18 4.14-18.05-.39-28.64-8.49c0 0-11.63-9.24-17.81-7.19a28.62 28.62 0 0 1 -12.89.71s-18.23 1.22-19.65-.89-18.1 4.83-18.1 4.83-8.9 2.69-13.87 6.93c0 0-9 .54-11.22 5.87s-6.28 4.23-6.28 4.23-14.88 1.89-16.66 4.33-13.57 4.72-13.57 4.72l-10.87 1.25s-4.25-3.67-6.09-3-5.49-.44-5.49-.44-2.34-8.09-4.25-7.79-8.65-1.25-8.59-6.46-5-5.3-.44-19.44c0 0 6.31-13.77 11.37-16.08s7.62-8.12 7.62-8.12 6.82-6.28 3.41-8.67-1.71-4-1.71-4-7.15 0-9.1 1.42-7.47.68-7 3.69-6.93 1.46-7 3.7-1.45 4.61-2.05 4.92-3.15 7.64-3.15 7.64-4.49 5.9-5.29 7.76-.89 11-1.94 11.14-.42 19.57 1.31 19.52 4.15 12.84 5.66 12.61 7.71 10.5 10.08 9 8.25 2.83 12.08 3.75 11.45 2.55 12.26 2.21 10.75 2.22 11.56 1.88 12.81-2.65 13.25-4 7-1.09 7-1.09-6.24 29.84-6.46 38.45-1.27 24.37-4.33 27.18-15.29 22.32-17.25 22.2-5.28 38.63-1.89 47.85 4.1 13.79 10.8 14.3 9.35 2.44 8.34-4 3.06-20.36 1-20.82-2.9-13.59 1-13.8c0 0 5-17.55 9.22-15.86 0 0 22.5-8.19 26.39-10.75s13.36-6.76 18.38-14.56-.61 16.08 3.15 20.17 3.57 10.36 7.64 14 2.9 13.58 8.88 16.94 2.26 14.46 18.49 18.55 19.12-4.9 19.12-4.9-11-18.16-12.37-21.85-12.89-15.14-8.83-21.62 1.17-27.53 1.17-27.53l.19-6.27s42.65 8.55 45.11 9.34 14.84 10.16 13.45 16.22 5.11 32.71 5.11 32.71-.46 7.08 1.9 12.17-5.2 6.66-.12 11.72-2.43 14.41 1.53 17.3 8 8.89 13.46 8.82 13.49-.94 11.84-6.53a20.56 20.56 0 0 0 -4.85-8.6s2.74-32.39.2-31.22 6.2-30.2 9.54-28.77l3.34 1.43s6.34 15.38 11 24.39 13 27.21 16.2 30.22 8.33 8.44 15.5 6.94 17.3-1.54 13.93-5.69-14.73-17.18-14.56-21.08-8.06-16.67-8.06-16.67-10.64-18.22-9.72-27.33a25.85 25.85 0 0 0 -3.2-15.48s12.7.56 15.84 2.07 11.16-1.92 11.16-1.92 11-11.17 11.1-13.92 1.58-12.07.66-12.1 8.89-4.85 7.53-5.36c0 0 2.18-10.53 1-13.61 0 0-2.21-23.48-3.65-24s5-7.88 3.3-10.88-3.12-3.69-3.12-3.69-11.81 2.93-14.46 4.44z" fill="#dc6a3b"/><g fill="#001c57"><path d="m320 169.74c2-.56 4.05-2.48 4.66-1.71s2.4 7.51 3.71 6.44 12 3.66 12 3.66-7.41 1.41-10.35-.1-.7 1.84-.7 1.84 10.68 3.36 10.83 4.13 4.35 5 4.36 5.83.8 4.33-1.24 2.3a62.34 62.34 0 0 0 -5-4.27s-7.07-.37-6.62-1.43-3.21.75-2.42 1.86 13.33 4.94 12.84 7.35-1.71 5.56-4 2.6-10.41-7.49-10.41-7.49-4.55 11.06-4.82 10.11-2.63.54-2.63.54 5.9-15.08 4.92-16.65-5.39 8.1-5.39 8.1-4.9 5.69-6.31 4.56-4.91-.75-3.66-2.16 7.3-9.24 7.3-9.24l1.18-3.51s-5.38 3.42-5.38 4.16-3.26 4.94-4.13 4.21-1.36-3.85-.15-4.77 9-7 8.47-8.1 1-4.71 1-4.71-5.18 4.63-5.69 3.72c0 0-3.46 3.13-3.84 3.06s-3.11 1.35-2.82.08 4.27-5 4.27-5l5.13-4.25z"/><path d="m348.5 165.2s-2.29 11.32-4.25 10.51-2.89-6.15-2.89-6.15z"/><path d="m299.63 168.25s3.62-.87 3.13 1.85-2.46 3.13-3.33 2.75-12-9.6-12.55-9.51-4.41-2.26-4.84-1.07 1.18 11.46 2.06 13.22 2.33 7.11.74 7.66-1.21 13.39-3.17 13.8-1.1-4.4-1-6.24 1-7.88 1-7.88-2.65-2-2.86-1.38-.83-11.85-1.76-11.3-8 5.82-8 7.44-.28-7.68 7.44-12.84c0 0-1.27-6.3 7-6.68 0 0 3 2.69 4.13 1.19s3.32-3.47 3.49-1.77-3.47 3.19-.89 4.71 9.41 6.05 9.41 6.05z"/><path d="m295.51 174.38s-9.3-8.8-9.47-8 3.39 8.72 5.45 8.6a23.43 23.43 0 0 0 4.02-.6z"/><path d="m286.05 154.13s-8.11-6.45-13.06-3.65-6.99 20.52-6.99 20.52 5.54-18.77 20.05-16.87z"/><path d="m268.21 147.76s-3.1 5.46-7.4 5.75-8.48 27.49-8.28 34.49 1.21 15.9-.41 17.81 5.53 19.06 6.29 21.49-2.09 5.82-3.23 1.15-7.49-19.9-6.83-25.49a11.9 11.9 0 0 0 -3-9.24s-5.5-18 3.2-28.59 8.76-13.37 9.76-12.7 8.85-5.66 9.9-4.67z"/><path d="m238.61 196.17s-7.14-9-4.05-18.65 4.14-20.05 9-22.22c0 0 6.59-6.86 7.76-5.08s-2.07 6.36-3.4 6.83-4.05 6-4.75 9.67-6.17 21.01-4.56 29.45z"/><path d="m235.62 152.67s-.19 1.67-4.47 6.45-7.21 21-5.33 27.18 9.58 45.34 11.88 45.43l2.29.1s-8.18 10.4-14.23-9.4-12-36.22-9.09-37.81 2.11-12.78 5.09-17.05 13.86-14.9 13.86-14.9z"/><path d="m215 224.8s4 5.3 1.82 5.87-10-11.44-9.46-12.43-4.36-27.37-4.36-27.37 1.19-27.78 2.87-28.72 7.68-12.15 7.68-12.15 9.57-.58 9.14.62-13.11 17.78-12.76 30.26-1.28 19.58 1.61 30.76 3.46 13.16 3.46 13.16z"/><path d="m209.27 145.43s-2.47-2.12-4.11-1-11.44 17.51-11.8 31.93a178.5 178.5 0 0 0 1.17 25.64s3.66 17.9 5.61 17.82-5.37-30.85-3-41.71 12.53-37.98 12.13-32.68z"/><path d="m219.51 239.36s1.79-1.65-13-4.58c0 0-8.77-8-10.43-15.7s-5.66 3.16-2.41 7.9a31.66 31.66 0 0 1 4.28 8.45l-3.37 1.46s24.52-.25 24.93 2.47z"/><path d="m186.92 214.37s-6.95-76 9.91-73.38c0 0-9.14-3.88-16.87 2.38s-6.05 31.63-6.05 31.63z"/><path d="m172.81 135.87s8-1.13 1 6.28-6.89 24.54-6.89 24.54l-2.24-23.12z"/><path d="m190.3 236s-21.81-1.19-24.13 1.4-17.67 8.94-17.67 8.94-21.1 24.66-49.3 27.09c0 0 11.83-6 27.64-14.46s18.41-14 18.41-14 11.36-11.46 13.62-11.31a19.69 19.69 0 0 0 5.57-.89s-13.78-51.72-1.54-56c0 0 2.89 50.32 8.1 53.48s8.49 1.93 8.49 1.93-10.93-8-10-17.72a174 174 0 0 0 .69-19.47s2.89-5.28 3.39-2.13 16.73 43.14 16.73 43.14z"/><path d="m183.87 234.74.14 9.14s-22.09 11.56-35.51 8.85 26.05-11.42 26.05-11.42 8.15-9.8 9.32-6.57z"/><path d="m181.76 252.25s-22.2 9.88-33.5 5.22c0 0 30.6-7.02 33.5-5.22z"/><path d="m177.88 261.28s2.28 2.43-3.88 3.6-25.45 0-25.45 0l-.69-4.45z"/><path d="m181.27 266.71s-3.25 10-10.93 11.86-15.83-1-15.83-1l-.37-2.36s27.13-5.75 27.13-8.5z"/><path d="m183.24 279.36-2.58 4.32s-19.37 4.8-19.81 3.09 22.39-7.41 22.39-7.41z"/><path d="m187 285.55s-.66 4-2.09 4.24-16.76 4.75-15 2.34 17.09-6.58 17.09-6.58z"/><path d="m190.74 293.5s2.61 1.91.44 2.78-14.53 3.87-14.78 2.31 14.34-5.09 14.34-5.09z"/><path d="m162.47 138.29s-7.24-1.39-10.36.81-14.69 14.1-13.85 18.49 6 56.8 8.89 56.95 1.23-22 1.23-22 2.66-27.36 2.29-32.67 11.8-21.58 11.8-21.58z"/><path d="m139.66 142.57s-7.21-.29-9.9 6.45-7.43 11.6-4.95 30.45a221.1 221.1 0 0 0 7.42 34.33l5.65 18.59 2.1 1.73s1.06-10.24-.61-13.87-5.37-18.41-5.37-18.41-5.43-21.59-2.55-23.64l2.63-21.34z"/><path d="m115.37 174.73s-5.9-11.42-3.62-12.92 7.36-10.08 7.36-10.08l5.81-.9z"/><path d="m143.08 247.7s-11.49-5.92-14.49-18.76-10.59-49.94-10.59-49.94-2.92 11.43.54 31.36 11.46 32.64 19.46 41.72z"/><path d="m108.16 173.73s3.85 39.63 2.11 46.57-4.63-46.18-4.63-46.18z"/><path d="m132.73 255.6s-9.79-3.15-15-20.31-7.37-9-7.37-9 5.76 33.13 16.45 32.66 5.92-3.35 5.92-3.35z"/><path d="m116.17 263.41s-19.71-41.88-16.3-50.41c0 0-8.38 5.17-2.44 24.23s5.83 20.27 5.83 20.27z"/><path d="m104.64 271.42s-13.79-27-14.71-25.28 11.74 26.38 11.74 26.38z"/><path d="m99.2 273.43s-7.2-14.08-11.2-12.92 8.82 16.42 8.82 16.42z"/><path d="m94.73 281.71s-17.73-6.21-18.54-7.85 17.15 11.68 17.15 11.68z"/><path d="m90.21 291.14s-18.21-1.77-18.32-5.28 1.52-4.46 1.52-4.46l17.59 7.9z"/><path d="m89.82 297s-14.78 2.46-14.36-.77 14.33-2.24 14.33-2.24z"/><path d="m100.29 161.6s-4.19-.4-5.54 1.4.75 11.27.75 11.27l4 .8z"/><path d="m86.35 167.15s-3.45-.83-4 3.25 1.37 8.76 1.37 8.76 3.54 2.08 3.37-2.77-.74-9.24-.74-9.24z"/><path d="m76.86 168.82c.48 1.84-2 11.23-5.92 10.19s1.76-10 1.76-10 3.44-2.9 4.16-.19z"/><path d="m64.1 167.69s-3.1 10.31-5.59 9.17.61-9.18.61-9.18 3.96-4.02 4.98.01z"/><path d="m53.76 165.8s1.12-5.93-2.86-2.09a5.78 5.78 0 0 0 -.72 7.9s3.63.13 3.58-5.81z"/><path d="m50.44 159.88s-7.95 6.22-7.22 9-3.81.59-3.27-3.42 5.7-7.84 5.7-7.84 4.35-1.57 4.79 2.26z"/><path d="m40.05 154.88s3.9-6.46-2.29-2.17-.7 4.06-.7 4.06 2.32-.63 2.99-1.89z"/><path d="m35.75 147.3s4.75-.82 3.67-2.93-4.75.32-4.75.32-3.78 1.1-3.43 3.32 4.51-.71 4.51-.71z"/><path d="m39.26 138.93s-.55-3.7-4.1-2.89c0 0-4.63-1.74-5.66.87s4.74 2.09 4.74 2.09z"/><path d="m41 130.92s-.06-5.8-9.25-3.78 9.25 3.78 9.25 3.78z"/><path d="m44.15 124s-2.53-6.25-10.55-4.15c0 .03 5.4 6.51 10.55 4.15z"/><path d="m50 117.24s-8.46-8-13-7.56 9.28 7.8 9.28 7.8z"/><path d="m55.6 111.14s-3-9.38-10.75-8 9.87 7.72 9.87 7.72z"/><path d="m61.81 104s-1.34-8.62-9.37-7.2 9.37 7.2 9.37 7.2z"/><path d="m330 314s-15.47 4.49-14.4 4.73 3.86-12.39 14.4-4.73z"/><path d="m326.45 304.1s-14.57 2.8-15.71 4.85 8.63-10.9 15.71-4.85z"/><path d="m321.92 296.84s-3-4.31-8.42-.76-9.13 3.91-7.51 6.35 15.93-5.59 15.93-5.59z"/><path d="m315.81 289.07s-6.49-3.57-10.74 2.63 10.74-2.63 10.74-2.63z"/><path d="m313.19 283s-5.27-1.39-7.56 1.18 7.56-1.18 7.56-1.18z"/><path d="m311.46 279s-1.68-7.95-6.51-6.41-10.22 10.61-10.22 10.61z"/><path d="m308.58 265.93s-5.7-3.61-10.78-1.84-4.8 8-4.8 8 12.79-1.59 15.58-6.16z"/><path d="m307.15 256.81a32.89 32.89 0 0 0 -14 2.8c-7.76 3.28-6.64 5.69-6.64 5.69z"/><path d="m306.37 251.77s.33-3.68-5.31-2.07-9.41 6.64-9.41 6.64 13.77-1.46 14.72-4.57z"/><path d="m270 318.54a13.31 13.31 0 0 1 -10.44 5.19c-6.76-.07-4.87-5.83-4.87-5.83s18.23-2.14 15.31.64z"/><path d="m267.5 310.92s2 4.16-9.85 4-4.89-5.91-4.89-5.91 3.82 5.34 14.74 1.91z"/><path d="m259.46 300.12s14.24 3.22 9.1 6.46-17.24-6.74-17.24-6.74-3.62-6.17-1.09-7 9.23 7.28 9.23 7.28z"/><path d="m260.14 290.3s-15-3.88-14.59-19.88a36.3 36.3 0 0 0 -9.73-25.68s1.26-6.37 5.76.24 7.66 23.26 7.66 23.26 4.56 18.95 10.9 22.06z"/><path d="m261.82 263.39s11 12.86 8.91 14.49-13.25-12-13.25-12-6.81-19.62-2.49-20.94 3.42 7.48 3.42 7.48z"/><path d="m263.11 238.67s-.9-30.36.45-28.75 4.93 31.61 4.93 31.61 12.4 26.73 8.09 28.08-10.44-8.92-12.25-17a48.23 48.23 0 0 1 -1.22-13.94z"/><path d="m275.93 197.32s-8.82-2.46-6.08 8.08 8.52 41.45 9.56 42 5 5.64 6.61 4.58-5.1-9.89-5.1-9.89-3.59-13.28-2.85-13.4 6.79 9.77 9.61 9.33-2.71-6.84-2.71-6.84-4.9-8.56-4-9.93-5.04-23.93-5.04-23.93z"/></g><path d="m313.58 209.65c9.51-2.16 12.93 2.75 14.16 6.71a15.36 15.36 0 0 1 .69 4.37" fill="#fff"/><path d="m326.78 216.76s-11.56 4.75-12.45-7.33" fill="#fff"/><path d="m340.7 220.9a23.54 23.54 0 0 1 -1.21-4.6c-1.9-13.22 14.31-11.71 14.31-11.71" fill="#fff"/><path d="m352 204.21s-8 15.7-11.79 13.21" fill="#fff"/><path d="m336.14 229.43s-13.86-2.77-6 4.21l4.54 4.08s19.62-12.86 1.46-8.29z" fill="#001c57"/><path d="m314.64 237.78s16.11 10.33 20.05-.06" fill="#001c57"/><path d="m318.59 230.7s-16.56-5-24.23-3.24" fill="#001c57"/><path d="m322.53 236s-21.81-5.68-29-5.38" fill="#001c57"/><path d="m314.83 236.05s-19 0-22.57 2.38" fill="#001c57"/><path d="m359.73 233.82s-15.4-1.76-16.6-1.71" fill="#001c57"/><path d="m368.88 244.83s-24-11.59-26.9-10.91" fill="#001c57"/><path d="m360.1 246.2s-15.83-10.2-20.1-9.7" fill="#001c57"/><path d="m201.54 311.82s-2.81-5.71-4.69-5.42" fill="#001c57"/><path d="m197 313.82a6.74 6.74 0 0 0 -3.84-5.69" fill="#001c57"/><path d="m87.19 324.48s1.06-5.64-1.22-5.88" fill="#001c57"/><path d="m81.46 325.64s1-5.23-.79-5" fill="#001c57"/><path d="m320 218.13a5 5 0 1 0 -5-5 5.05 5.05 0 0 0 5 5z" fill="#001c57"/><path d="m344.72 215a5 5 0 1 0 -5-5 5.05 5.05 0 0 0 5 5z" fill="#001c57"/><path d="m274.3 340.63s-2.82-5.72-4.7-5.42" fill="#001c57"/><path d="m269.73 342.63a6.72 6.72 0 0 0 -3.83-5.69" fill="#001c57"/><path d="m337.85 329.09s-2.82-5.72-4.69-5.43" fill="#001c57"/><path d="m333.29 331.08a6.73 6.73 0 0 0 -3.84-5.68" fill="#001c57"/></svg>