<svg viewBox="0 0 400 400" xmlns="http://www.w3.org/2000/svg" xmlns:xlink="http://www.w3.org/1999/xlink"><clipPath id="a"><path d="m124.64-402.96h156.22v344.99h-156.22z"/></clipPath><g clip-path="url(#a)"><path d="m82.84 117s20.16-90.59 24.54-120.26 18.68-85 19-101.08 6.23-119.4 6.23-119.4a96.62 96.62 0 0 0 9.56-18.26c3.3-9.16 6.23-38.46 6.23-38.46l13.6-58.65 1.83-5.86h4l-15 65.56-3.29 27.83s-4.77 23.44-8.43 26.37-4 21-4 21-2.56 101.38-4.76 105.41l-43.67 215.8z" fill="#001c56" opacity=".9"/></g><path d="m186.23 397.26s9.52-14.09 16.08-16.42c0 0 1 13.59-2.89 16.42z" fill="#83525f" opacity=".9"/><path d="m256.08 68.89s-1.22-5.81 2.85-3.87 1.63 3.46.72 3.87-2.55.91-3.57 0z" fill="#c5c2b2" opacity=".9"/><path d="m132.56 175.52s56.07-5.05 65.22 32.6l.3 5.91a132.37 132.37 0 0 0 -36.08-16.34s-25.17-23.38-29.44-22.17z" fill="#e57897" opacity=".9"/><path d="m208.39 134.64s-16.27-33.64-27.17-24.64-.54 27.42 15 26.94 12.17-2.3 12.17-2.3z" fill="#a8cbbf" opacity=".9"/><path d="m247.51 114.75s-20.08-9.08-22.79 6.54-4.32 23.54 2.87 25.82 18.87-8.45 19.92-16.26a72.34 72.34 0 0 0 0-16.1z" fill="#a8cbbf" opacity=".9"/><path d="m217.3 104.1s2.84-6.88 5.13-6.08 16 14.81 22.85 11.79c0 0 35.85.48 30.59-13.54s-29-14.61-29-14.61-21-2.76-21.49 2.18c0 0-5.1 7.08-3.83 9.12l.16 2.6-3.54 4.82z" fill="#a8cbbf" opacity=".9"/><path d="m214.16 102.32s-3.44-10.32-4.33-9.32 0-.84 0-.84 2.17-16.29-12.33-25.69c0 0-7.52-9.88-9.28-16.42s-11.22-5.74-12.39 1.28-2.67 15.8-.77 17.69-1.66 7.74-1.66 7.74-1.24 20.94 4 22.06 32.33 1.61 32.43-3.26l4.09 9.43z" fill="#a8cbbf" opacity=".9"/><path d="m199.07 165.21s-4.75-5.67-10.69-4.69a9.1 9.1 0 0 0 -7.25 6.5s-11.54 19.43-41.28 15c0 0-3-15.06 36.56-21.79 0 0 12.63-.88 13.27-1.86s-16.24-4.13-22.43-1.9-18.2 10.73-36.39 3.23c0 0 8.74-7.64 30.13-8.35 0 0 14.24-.17 21.46 1.82 0 0-6-6.93-24.53-6.67 0 0-29 10.39-31.24 8.25s8.79-8.31 25.31-10.7l15.3.38s-1-3.18-19.36-3.47c0 0-30.54 6.58-34.22-1s39.63-2 39.63-2-.91-2.37-6.92-3.91-34.43-3.41-39-17.08 29.19 9.37 29.19 9.37 9.55 7.35 13.37 6.75c0 0-6.77-15.59-6.94-16.87s.71-11.64 4.4-12.47 5.76 14.36 4.59 24.93c0 0 10.3 13.33 21.72 16.78 0 0-19.08-16.71-13.3-24 0 0 6-.73 10.67 12.28s16.55 18.6 16.55 18.6-7.27-21.14-13.93-24.92-22.68-15.34-15.32-18.27 18.27 16.46 18.27 16.46-2.36-11.67-5.45-13.08-15.85-15.24-9.24-17.53 13.49 15.25 13.49 15.25-6.88-27.42 4.23-25.33 2.09 23.23 2.09 23.23 7.17-15.68 10.85-13-1.1 11.26-1.1 11.26-10.38 9-8.91 13c0 0 5.42-11.24 13.17-10.58s-10.82 14.84-10.82 14.84-3.56 9.08 1.54 16.28c0 0 4-18.12 9.54-17.08s1.63 10.34 1.63 10.34a99.44 99.44 0 0 1 -6.96 10.79s-4.43 9.37 8.47 16.89z" fill="#c05d64" opacity=".9"/><path d="m97.27 397.26s64.37-34 64.37-39.59 4.55-9.45 4.55-9.45 4.42-75.93 15.11-83.28c0 0 9.8-26.06 10.69-25.83s14.92-2.68 14.92-2.68 2.9 21.16 1.34 23.39-6.68 16.25-6.68 16.25-.89 7.58 0 8.47 44.85 35.8 44.85 35.8l-7 29.38s-9.29 15.12-10.42 16.28-8.65 9.6-11.45 11.92-8 5.82-8.32 7.27-9.89 12.06-9.89 12.06h-102z" fill="#e9c1b9" stroke="#dba6a6" stroke-miterlimit="10"/><path d="m164.54 397.26s13.92-62.57 17-83.06 12.91-58.69 13.16-69.82 4.3-82.48 4.3-82.48a66.38 66.38 0 0 0 6.58-12.65c2.27-6.32 4.3-26.56 4.3-26.56l9.36-40.48 1.26-4h2.79l-10.38 45.28-2.27 19.23s-3.29 16.19-5.82 18.21-2.82 14.43-2.82 14.43-1.78 70-3.29 72.81l-30.13 149.09z" fill="#001c57" opacity=".9" stroke="#001c57" stroke-miterlimit="10"/><path d="m175 348.6s-17.09-30.69-35.61-34.71c0 0-2.9 16.51 8.48 22.54s27.13 12.17 27.13 12.17z" fill="#b14c5e" opacity=".9"/><path d="m149 370.9s20.91 13 19.59 29.36h-9.76s-14.58-26.26-9.83-29.36z" fill="#a7ccc4" opacity=".9"/><path d="m200.29 226.47s5.44-6.65 11.52-4.76 6.95 9 6.95 9 10.24 25.74 41.54 23.29c0 0 4.49-18.68-36-31.41 0 0-13-2.47-13.61-3.77s17.22-3.47 23.45 0 18 15.49 37.49 8c0 0-8.4-10.56-30.54-13.75 0 0-14.77-1.74-22.44 0 0 0 6.8-8.1 26.06-5.79 0 0 29.24 16.21 31.7 13.75s-8.41-11.48-25.41-16.26l-15.92-1.16s1.3-3.91 20.41-2.31c0 0 31.12 11.58 35.61 2.46s-41-6.81-41-6.81 1.15-2.89 7.52-4.19 36.05-.63 42-17.4-31.12 8.71-31.12 8.71-10.57 8.25-14.48 7.09c0 0 8.4-19 8.69-20.55s.29-14.76-3.47-16.21-7.24 17.51-7 31c0 0-11.87 15.72-24 18.87 0 0 21.28-19.06 15.92-28.88 0 0-6.22-1.57-12.16 14.36a39.85 39.85 0 0 1 -18.81 21.71s9.4-25.91 16.64-30 24.9-16.94 17.52-21.43-20.35 18.83-20.35 18.83 3.47-14.47 6.8-15.92 17.8-17.52 11.15-21.14-15.35 17.81-15.35 17.81 9.56-33.87-2.17-32.42-4.2 29.09-4.2 29.09-6.08-20.55-10.13-17.51.15 14.33.15 14.33 10 12.44 8.1 17.37c0 0-4.63-14.77-12.74-14.77s10 19.86 10 19.86 2.9 11.84-3 20.38c0 0-2.6-23.3-8.39-22.58s-2.61 12.88-2.61 12.88 3.62 9.7 6.22 14.33c0 0 3.78 12.31-10.27 20.41z" fill="#0a1c56" opacity=".9"/><path d="m153.35 178.87s40.86 8 47.8 24.72v5.32s-6.74-10.84-22.33-11.79-25.47-18.25-25.47-18.25z" fill="#a8cbbf" opacity=".9"/><path d="m201.48 193.2s11.1-36.6 12.68-36.68c0 0-6.29 5.41-6.34 7.37s-1.65-19.16-6.34-19.16-2.48 17.17-2.48 17.17-8.21-9-8.71-14.22c0 0 5.57-20.8 1.15-22.44s-3.44 21.46-3.44 21.46 1.15-23.75-6.71-23.59 0 18.51 0 18.51-12.12-16.18-29.81-14.48c0 0 15.61 13.82 25.82 18.57 0 0-40.4-21.94-36.31-3.44 0 0 9.5-.16 9.5 2.3s-8.19 2-8.19 2-.81 9.83 18 8.36c0 0 18.18-.82 21.29 2.29 0 0-30.13-.17-31.44 9.17s27.18 4.42 34.23 1 16.8 9.33 16.8 9.33-14.89-7.46-17.92-3.42 18.22 19.9 18.22 19.9z" fill="#e57897" opacity=".9"/><path d="m210.9 140.05s9.93-44.16 21.36-39.47c0 0-1.17 7.33-6.89 16.28 0 0 12.76-7.19 13.34-9.53s6.16-24.93 9.54-21.12-5.58 18.62-5.58 18.62 14.67-24.19 22.88-18.18-15.25 17.16-15.25 17.16 28.74-4.84 32 1.61-30.94 4.25-30.94 4.25 34.31.44 36.65 11.29-10.7.44-10.7.44 8.21 6.75 5 8.22-44.58-11.44-44.58-11.44 35.27 13.82 29.58 23.46-35.05-16.28-35.05-16.28-10.26-3.36-15.54 4.55c0 0 17.74-1.32 18.33 3.81s-24.15 6.33-24.15 6.33z" fill="#c05d64" opacity=".9"/><g fill="#0a1c56"><path d="m212.25 112.2-1.35-2.78s3.17-14.46-8.6-16.33 7.22 17 7.22 17l2.49 3.16z" opacity=".9"/><path d="m182.75 89.88 27.68 30.23" opacity=".9"/><path d="m198.45 103.1 12.45 13.41" opacity=".9"/><path d="m185.16 104.1 24.67 18.59" opacity=".9"/><path d="m199.35 89.88s-13.12-10.88-9.77 3.88 10.71 8.3 10.71 8.3 2.81-6.7-.94-12.18z" opacity=".9"/><path d="m185.16 73.68s-2.58 15.53 7.54 16.6.09-18.07-7.54-16.6z" opacity=".9"/><path d="m179.94 63s-9.1 15.93 2.81 18.47-2.81-18.47-2.81-18.47z" opacity=".9"/><path d="m180.61 78.17s-13-9-14.05 0 10.84 11.71 10.84 11.71 11.51 4.68 3.21-11.71z" opacity=".9"/><path d="m163.21 81.66s-13.8 5.14 1.33 11.3 9-8.84 9-8.84-4.17-5.46-10.33-2.46z" opacity=".9"/><path d="m172.45 92s-7.56 7.09 2.31 10.57 13.2 3.48 7.25-6.82-9.56-3.75-9.56-3.75z" opacity=".9"/><path d="m164.54 100.85s-21.28 7.1 0 9.64 7.27-12.98 0-9.64z" opacity=".9"/></g><path d="m273.48 63.76s14.19-26.14-8.28-24.23c0 0 3.82-15.14-13.71-12.11 0 0-.48-23.74-23.74-8.76 0 0-12.05-18.17-23.08-1.76 0 0-13.75 12.59-7.69 24.23s19.13 29.48 19.13 29.48 20.08 10.81 29.64 7.56 27.73-14.41 27.73-14.41z" fill="#c05d64" opacity=".9"/><path d="m201.3 15s-10.06-3.5-10.37 7.65 2.87 44 25.5 54.12 49.57-.77 49.57-.77 15.78-12.11 6.22-16.89-16.22 3.89-16.22 3.89-3.65-4.95-6.37-1.92-12.91 15.71-12.91 15.71-3.35 0 1.12-4.44 20.64-25.14-2.59-22.91c0 0-2.35 2.06-.92-3.83s-12.43-5.27-15 0-1.82 17.39-1.82 17.39-2.44-20.09-3.35-27.1-5.46-8-5.46-8-.06-9.24-7.4-12.9z" fill="#e57897" opacity=".9"/><path d="m220.77 27.15s-4.83.86-1.5 3.87 1.5-3.87 1.5-3.87z" fill="#ead6b6" opacity=".9"/><path d="m225.61 27.69s-.32-5.27 3.76-2.47-1.88 3.65-1.88 3.65-1.56.75-1.88-1.18z" fill="#ead6b6" opacity=".9"/><path d="m223.89 34.78s.67-6.13 4.31-1.72-4.31 1.72-4.31 1.72z" fill="#ead6b6" opacity=".9"/><path d="m233.78 35.59s-.66-4.88 2.89-3.81 1.73 4.51-2.89 3.81z" fill="#ead6b6" opacity=".9"/><path d="m240.55 31.78s-1.08-3.76 3.22-2.32-3.22 2.32-3.22 2.32z" fill="#ead6b6" opacity=".9"/><path d="m244.2 35.1s4-4.37 5.38-3.47 1.28 5-1.19 5a6.9 6.9 0 0 1 -4.19-1.53z" fill="#ead6b6" opacity=".9"/><path d="m241.19 43.05s-1.64-7.2 3.91-3.11-3.91 3.11-3.91 3.11z" fill="#ead6b6" opacity=".9"/><path d="m237.6 255.78s-19.6-34.32-49.08-30.84c0 0-5.89 16.91 14.51 19.65 0 0 12.18 5.69 12.93 9.56 0 0-31.68 1.8-42.07 19.55s17.56 1.14 17.56 1.14 25.31-5.29 30.78-.38-15.67 7.44-15.67 7.44-17.56.3-25.49 6.91-19.26 19.07-13.79 24 19.83-7.55 21.53-7.36 13.38-6.72 25.11-4.16-.75 4.54-.75 4.54-29.77-3.38-31.35 6.27.57 15.25 7.74 14.31 11.71-4.14 18.7.1 16.24 13.49 16.24 13.49 12.84 14.6 15.75 14.19 11.59-11.22 10.05-18.7c0 0 8.85-7.75 4.28-18.62 0 0 9.56-7.13 2.7-18.35 0-.02-14.28-38.93-19.68-42.74z" fill="#e9c1b9" stroke="#dba6a6" stroke-miterlimit="10"/><path d="m250.48 310.67s-19.06-30-32.11-31.23" fill="none" stroke="#dba6a6" stroke-miterlimit="10"/><path d="m246.42 328.3s-28.42-25.21-33.25-22.49" fill="none" stroke="#dba6a6" stroke-miterlimit="10"/><path d="m216 254.15s18.31-2.82 21.64 1.63" fill="none" opacity=".9" stroke="#dba6a6" stroke-miterlimit="10"/><path d="m218.37 348.6s-5.86-11.67-3.56-17.36" fill="none" stroke="#dba6a6" stroke-miterlimit="10"/><path d="m222.14 373.35s19.21-17.43 19.59-19.9-9.79-1.45-9.79-1.45z" fill="#e9c1b9"/><path d="m188.52 224.94s10.36 14.54 20.13 3.36a32.25 32.25 0 0 0 -20.13-3.36z" fill="#e57897"/><path d="m179.9 268.44s5.08 6.55 1 9.82a13 13 0 0 1 -9 2.61s-1.63-5.87 8-12.43z" fill="#e57897"/><path d="m172.6 297s5.15 6.29 2.38 10.6-9 3-9 3-2.45-2.45 6.62-13.6z" fill="#e57897"/><path d="m184.72 321.39s9.79-2.47 9.17-6.83a32 32 0 0 0 -2.68-8.5s-8.9.34-9.39 4.69-1.95 10.11 2.9 10.64z" fill="#e57897"/></svg>