<svg id="Laag_1" data-name="Laag 1" xmlns="http://www.w3.org/2000/svg" viewBox="0 0 400 400"><defs><style>.cls-1{fill:#f9ba8a;}</style></defs><path class="cls-1" d="M86.05,138.21s75.1,0,75.1-75.09c0,0,0,75.09,75.1,75.09,0,0-75.1,0-75.1,75.1C161.15,213.31,161.15,138.21,86.05,138.21Z"/><path class="cls-1" d="M198.7,191.7s57.65,0,57.65-57.65c0,0,0,57.65,57.65,57.65,0,0-57.65,0-57.65,57.65C256.35,249.35,256.35,191.7,198.7,191.7Z"/><path class="cls-1" d="M127.77,293s51.54,0,51.54-51.54c0,0,0,51.54,51.54,51.54,0,0-51.54,0-51.54,51.54C179.31,344.55,179.31,293,127.77,293Z"/></svg>