<svg id="Laag_1" data-name="Laag 1" xmlns="http://www.w3.org/2000/svg" viewBox="0 0 400 400"><defs><style>.cls-1{fill:#f9ba8a;}</style></defs><path class="cls-1" d="M1.76,39.89C64.59,24.11,96.45,37.5,114,53.92c12.31,11.51,19.08,25.91,36.92,30.85,23.95,6.62,34.19-13.13,60.06-15.71,39.87-4,82.81,36.23,99.45,81.33,4.3,11.68,16.16,43.82,5.41,74.6-8.82,25.26-24.46,25.57-29,47.68-7.21,34.75,26,60.15,16.73,76.84-7.39,13.32-29.52-1.06-68.43,11.22-30,9.47-27.29,21.31-47.26,24.12-37.06,5.23-45.58-35.67-97.47-40.94-22.6-2.3-48.49,2.65-55.14,3.92a238.71,238.71,0,0,0-33.48,9Z"/></svg>