<svg id="Laag_1" data-name="Laag 1" xmlns="http://www.w3.org/2000/svg" viewBox="0 0 400 400"><defs><style>.cls-1{fill:#a9d2cb;opacity:0.9;}</style></defs><path class="cls-1" d="M303.44,291.6s-14.31-17.51-30.32-12.55-18.3,23.63-18.3,23.63-27.07,67.86-109.42,61.38c0,0-11.82-49.18,94.93-82.73,0,0,34.31-6.48,35.84-9.91s-45.37-9.15-61.76,0-47.28,40.79-98.75,21c0,0,22.12-27.83,80.45-36.22,0,0,38.88-4.57,59.09,0,0,0-17.92-21.35-68.62-15.25,0,0-77,42.7-83.5,36.22s22.11-30.12,66.72-42.7l41.94-3.05s-3.43-10.29-53.76-6.1c0,0-82,30.5-93.78,6.48s107.89-17.92,107.89-17.92-3.05-7.62-19.83-11S57.33,201.15,41.7,157s82,22.94,82,22.94,27.83,21.73,38.12,18.68c0,0-22.11-49.94-22.87-54.14s-.76-38.88,9.15-42.69,19.06,46.13,18.3,81.58c0,0,31.26,41.41,63.29,49.68,0,0-56-50.18-41.94-76.05,0,0,16.39-4.13,32,37.81S269.31,252,269.31,252s-24.78-68.25-43.85-78.92-65.57-44.61-46.13-56.43,53.76,49.57,53.76,49.57-9.15-38.13-17.92-41.94S168.28,78.13,185.81,68.6s40.42,46.89,40.42,46.89-25.17-89.21,5.71-85.4S243,106.72,243,106.72s16-54.14,26.67-46.13-.38,37.74-.38,37.74S243,131.12,248,144.08c0,0,12.2-38.88,33.55-38.88s-26.31,52.3-26.31,52.3-7.62,31.19,8,53.68c0,0,6.86-61.38,22.11-59.47s6.86,33.93,6.86,33.93-9.53,25.54-16.39,37.74c0,0-10,32.41,27,53.76Z"/></svg>