<svg id="Laag_1" data-name="Laag 1" xmlns="http://www.w3.org/2000/svg" viewBox="0 0 400 400"><defs><style>.cls-1{fill:#e57897;}</style></defs><path class="cls-1" d="M399.76,324.38C262.31,297.93,196.43,297.6,162.2,303.9c-13.07,2.41-38.5,8.87-65.08-5.49C76,287,74.21,273.29,47.08,260c-22.2-10.91-34.79-8.51-39-20.48-4.34-12.2,3-30.81,13-41.44,20.85-22.19,51.86-8.23,56.54-23,3-9.33-9.13-15.92-7.73-28.46,2.4-21.36,42-42.59,77.7-36.46,20.27,3.49,29.71,14.16,49.62,9.49,15.06-3.52,24.85-13.17,28.07-16,17-14.76,59.59-20.15,174.51,25.47Z"/></svg>