<svg id="Laag_1" data-name="Laag 1" xmlns="http://www.w3.org/2000/svg" xmlns:xlink="http://www.w3.org/1999/xlink" viewBox="0 0 400 400"><defs><style>.cls-1{fill:none;}.cls-2{clip-path:url(#clip-path);}</style><clipPath id="clip-path"><path class="cls-1" d="M398.73,301c-6.29,5.86-45.71,41.53-87.35,30.36-5.73-1.54-4.7-2.22-16.11-6.82-14.34-5.78-53.34-19.8-97.57-15.17-21,2.19-19.86,6.13-38.41,8.67C118,323.67,50.4,312.61,21.76,262.27c-2.46-4.32-23.11-41.95-8-81.15,15-39,55.25-53.57,75-60.71,33.17-12,61.76-10.44,71.86-9.92,57.7,3,134.92,3.24,239.13,1.24Z"/></clipPath></defs><g class="cls-2"><image width="1661" height="2519" transform="translate(-61.24 338.63) rotate(-90) scale(0.19)" xlink:href="../../../International%20Publishing%20/Book%20production%20%26%20graphic%20design/Cover/Naamloos-1.png"/></g></svg>