<svg id="Laag_1" data-name="Laag 1" xmlns="http://www.w3.org/2000/svg" xmlns:xlink="http://www.w3.org/1999/xlink" viewBox="0 0 400 400"><defs><style>.cls-1{fill:none;}.cls-2{fill:#c0646f;}.cls-2,.cls-4,.cls-5{opacity:0.9;}.cls-3{clip-path:url(#clip-path);}.cls-4{fill:#a9d2cb;}.cls-5{fill:#001c56;}</style><clipPath id="clip-path"><rect class="cls-1" x="125" y="27.5" width="156.22" height="344.99"/></clipPath></defs><path class="cls-2" d="M137.59,43.42S176.33,60,169,88l-1.89,4a99.3,99.3,0,0,0-18-23.55S140.83,44.14,137.59,43.42Z"/><g class="cls-3"><path class="cls-4" d="M203.3,138.45s-29.07-13.14-33,9.47-6.25,34.09,4.15,37.38,27.33-12.23,28.84-23.54A103.78,103.78,0,0,0,203.3,138.45Z"/><path class="cls-5" d="M83.19,547.46s20.15-90.59,24.54-120.25,18.68-85,19-101.09S133,206.72,133,206.72a96,96,0,0,0,9.53-18.31c3.29-9.16,6.22-38.46,6.22-38.46l13.55-58.6,1.84-5.86h4l-15,65.56-3.3,27.84s-4.76,23.44-8.42,26.37-4,21-4,21-2.56,101.38-4.76,105.41L89,547.46Z"/><path class="cls-5" d="M135,300.2s7.87-9.62,16.67-6.9,10.06,13,10.06,13,14.88,37.3,60.14,33.73c0,0,6.5-27-52.18-45.47,0,0-18.86-3.56-19.7-5.45s24.94-5,33.95,0,26,22.42,54.28,11.53c0,0-12.16-15.3-44.22-19.91,0,0-21.38-2.52-32.48,0,0,0,9.85-11.74,37.72-8.38,0,0,42.33,23.47,45.89,19.9s-12.15-16.55-36.67-23.47l-23-1.67s1.88-5.66,29.55-3.36c0,0,45,16.77,51.55,3.57s-59.31-9.85-59.31-9.85,1.68-4.19,10.9-6.08,52.18-.91,60.77-25.18-45,12.61-45,12.61-15.3,11.94-21,10.26c0,0,12.16-27.45,12.57-29.75s.42-21.38-5-23.47-10.47,25.35-10,44.84c0,0-17.19,22.76-34.79,27.31,0,0,30.8-27.59,23.05-41.8,0,0-9-2.27-17.6,20.78s-27.25,31.43-27.25,31.43,13.63-37.51,24.1-43.38,36.05-24.51,25.36-31-29.55,27.24-29.55,27.24,5-21,9.85-23.05,25.78-25.36,16.14-30.6-22.22,25.78-22.22,25.78,13.84-49-3.14-46.94-6.09,42.12-6.09,42.12-8.79-29.76-14.66-25.36.21,20.75.21,20.75,14.46,18,11.74,25.15c0,0-6.71-21.38-18.44-21.38s14.46,28.75,14.46,28.75,4.19,17.15-4.4,29.51c0,0-3.77-33.74-12.16-32.69S141.14,242,141.14,242s5.24,14,9,20.75c0,0,5.47,17.81-14.87,29.55Z"/><path class="cls-2" d="M150.3,175.08s14.37-63.93,30.93-57.14c0,0-1.7,10.62-10,23.57,0,0,18.47-10.41,19.32-13.8s8.92-36.09,13.8-30.57-8.06,27-8.06,27,21.23-35,33.11-26.33-22.07,24.84-22.07,24.84,41.6-7,46.28,2.34-44.8,6.15-44.8,6.15,49.68.64,53.07,16.35-15.49.64-15.49.64,11.89,9.76,7.22,11.89-64.54-16.56-64.54-16.56,51.16,20,42.88,34-50.74-23.56-50.74-23.56-14.86-4.82-22.5,6.58c0,0,25.69-1.91,26.54,5.52S150.3,175.08,150.3,175.08Z"/></g></svg>